<?xml version="1.0" encoding="UTF-8"?><svg id="Layer_1" xmlns="http://www.w3.org/2000/svg" xmlns:xlink="http://www.w3.org/1999/xlink" viewBox="0 0 4 4"><defs><style>.cls-1{fill:none;}.cls-2{fill:#00806a;}.cls-3{clip-path:url(#clippath);}</style><clipPath id="clippath"><rect class="cls-1" x="0" y="0" width="4" height="4"/></clipPath></defs><g class="cls-3"><path class="cls-1" d="M243,2244c0,0,2,0,3,0l11-11c1-1,1-3,0-3l-67-67c0,0-2,0-3,0l-11,11c-1,1-1,3,0,3l67,67Z"/><path class="cls-1" d="M2961,1991s0,0,0,0c0,0,0,0,1-1s0,0,0,0c7-8,5-17-1-26-7-9-15-12-2-15-1-6-22-12-32-8-1,7-6,14-13,17-2,6-2,12,1,17,7,1,22,14,33,18,8,2,17,5,25,2,3-1,4-3,4-3Z"/><path class="cls-1" d="M2949,2022c0,0,0-1,0-2-2,0-4,0-5,0-24-2-54,0-58,2,0,3,0,6,1,8,9-19,43-18,59-25,0,0,2,0,3-1Z"/><path class="cls-1" d="M243,244c0,0,2,0,3,0l11-11c1-1,1-3,0-3l-67-67c0,0-2,0-3,0l-11,11c-1,1-1,3,0,3l67,67Z"/><path class="cls-1" d="M2903,1936c0-1,0-3-2-3,0,0,0,0,0,0,0,0-2,0-4,1-2,1-5,4-7,8-2,2-5,7-4,1,0,0,0,0,1,1,2,1,4,0,6,0,6-2,12-11,11-17Z"/><path class="cls-1" d="M524,2525c0,0,2,0,3,0l11-11c1-1,1-3,0-3l-67-67c0,0-2,0-3,0l-11,11c-1,1-1,3,0,3l67,67Z"/><path class="cls-1" d="M81,962l-53-4c-1,0-19-6-25-15l-3-44s0,0,0,0,0,0,0,0c0,0,0,0,0,0l-4,53c0,1-6,19-15,25l-44,3s0,0,0,1c0,0,0,0,0,0l53,4c1,0,19,6,25,15l3,44s0,0,1,0c0,0,0,0,0,0l4-53c0-1,6-19,15-25l44-3s0,0,0-1c0,0,0,0,0,0Z"/><path class="cls-1" d="M81,2962l-53-4c-1,0-19-6-25-15l-3-44s0,0,0,0,0,0,0,0c0,0,0,0,0,0l-4,53c0,1-6,19-15,25l-44,3s0,0,0,1c0,0,0,0,0,0l53,4c1,0,19,6,25,15l3,44s0,0,1,0c0,0,0,0,0,0l4-53c0-1,6-19,15-25l44-3s0,0,0-1c0,0,0,0,0,0Z"/><path class="cls-1" d="M961,1991s0,0,0,0c0,0,0,0,1-1s0,0,0,0c7-8,5-17-1-26-7-9-15-12-2-15-1-6-22-12-32-8-1,7-6,14-13,17-2,6-2,12,1,17,7,1,22,14,33,18,8,2,17,5,25,2,3-1,4-3,4-3Z"/><path class="cls-1" d="M903,1936c0-1,0-3-2-3,0,0,0,0,0,0,0,0-2,0-4,1-2,1-5,4-7,8-2,2-5,7-4,1,0,0,0,0,1,1,2,1,4,0,6,0,6-2,12-11,11-17Z"/><path class="cls-1" d="M885,2039c0,3,0,6,1,8,9-19,43-18,59-25,0,0,2,0,3-1,0,0,0-1,0-2-2,0-4,0-5,0-24-2-54,0-58,2Z"/><path class="cls-1" d="M2955,2026c-2,0-5,2-7,3-17,7-52,7-56,24,0,4,0,8,2,12,9,17,43,16,6,12,11-2,27-7,34-17,13-19-1-38-32-33Z"/><path class="cls-1" d="M3035,2061c-4,1-7,2-11,3,3,16,2,28,15,32-2-1-2-21-4-31,0-1,0-2,0-4Z"/><path class="cls-1" d="M965,1959c4-5,9-1,14-18,6-9,13-24,21-3-5-4-11-5-16-4-12,3-22,18-28,3-2,3-3,7-5,1,5,3,9,7,13,11Z"/><path class="cls-1" d="M3068,2012c3,3,5,8,6,12,2,0,5,0,7,0,13-3,25-15,31-26,6-12,1-22,3-33,0,0,0-1,0-2,8-12,12-26,13-41,0-2,0-3-2-4-2-1-5,0-5,3,0,13-4,25-1,36,0,0-1,0-2,0-12-8-3,0-4,12-7,9-14,2-15,31,6,3,11,6,14,11Z"/><path class="cls-1" d="M3074,2031c-3,11-16,22-27,26-2,0-4,1-6,2,0,6,0,5,2,18,0,9,2,19,5,27,3,6,9,1,18,11,5,0,9-1,12-5,12-12,15-42,1-61-2-7-6-13-1-18-2,0-3,0-5,0Z"/><path class="cls-1" d="M2965,1959c4-5,9-1,14-18,6-9,13-24,21-3-5-4-11-5-16-4-12,3-22,18-28,3-2,3-3,7-5,1,5,3,9,7,13,11Z"/><path class="cls-1" d="M921,3999c1-4,5-8,8-11,5-4,1-6,16-7,2-11-3-23-8-33-7-13-23-25-37-2,0,0-2,0-2,0-4-12-5-24-3-37,0-3-2-5-5-4-2,0-3,2-3,3-2,15-1,29,4,43,0,0,0,1,0,2-9,9-7,2-3,33,4,11,12,26,25,31,2,1,5,2,7,2Z"/><path class="cls-1" d="M982,4026c0-1,3-2,8-28-2-2-5-3-7-5-15-9-4-1-52,3-1,1-2,2-3,3-1,2-2,4-2,7,0,9,1,2,18,25,13,8,31,18,46,14-4-4-6-8-7-13,0-3,0-6,0-6Z"/><path class="cls-1" d="M1029,3982c-1-6,0-14,7-21-3-5-8-13-12-22-4-9-6-2-12-28-5-9-13-1-22-7-19,9-14,34-8,51,3,1,1,21,19,27,9,6,18,6,27,1Z"/><path class="cls-1" d="M1039,4019c0,0,0-1,0-2h0c2-5,3-11,3-16-5-3-8-7-11-12-9,5-19,5-28,0-4,5-6,7-8,12-6,11-1,25-4,35,5-18,3-25,48-18Z"/><path class="cls-1" d="M528,3448c-1-1-3-1-3,0l-67,67c0,0,0,2,0,3l11,11c1,1,3,1,3,0l67-67c0,0,0-2,0-3l-11-11Z"/><path class="cls-1" d="M246,3729c-1-1-3-1-3,0l-67,67c0,0,0,2,0,3l11,11c1,1,3,1,3,0l67-67c0,0,0-2,0-3l-11-11Z"/><path class="cls-1" d="M3909,101l53,4c1,0,19,6,25,15l3,44s0,0,1,0c0,0,0,0,0,0l4-53c0-1,6-19,15-25l44-3s0,0,0-1c0,0,0,0,0,0l-53-4c-1,0-19-6-25-15l-3-44s0,0,0,0,0,0,0,0c0,0,0,0,0,0l-4,53c0,1-6,19-15,25l-44,3s0,0,0,1c0,0,0,0,0,0Z"/><path class="cls-1" d="M1041,3957c4-4,9-7,15-8,0-4-2-7-2-11-4-13-1-3-21-35-5-2-1-2-16,0,7,8,11,24,15,34,3,9,7,15,1,2Z"/><path class="cls-1" d="M246,1729c-1-1-3-1-3,0l-67,67c0,0,0,2,0,3l11,11c1,1,3,1,3,0l67-67c0,0,0-2,0-3l-11-11Z"/><path class="cls-1" d="M528,1448c-1-1-3-1-3,0l-67,67c0,0,0,2,0,3l11,11c1,1,3,1,3,0l67-67c0,0,0-2,0-3l-11-11Z"/><path class="cls-1" d="M524,525c0,0,2,0,3,0l11-11c1-1,1-3,0-3l-67-67c0,0-2,0-3,0l-11,11c-1,1-1,3,0,3l67,67Z"/><path class="cls-1" d="M946,39c-2-1-4-2-5-3-1-6-2-19-21-31-2,0-3,0-5-1-5,3-1,9-13,15-9,17-12,47-3,61,2,4,6,6,11,7,1,1,16-2,2-7,5-6,8-17,11-25,4-13,4-11,6-17Z"/><path class="cls-1" d="M295,46c-3,9-6,2-1,29,14-1,16-13,22-28-4-1-7-3-1-5,0,1,0,3-1,4Z"/><path class="cls-1" d="M1043,29c-2-1-4-3-7-4-2-9-48,5-38,26,5,11,19,19,3,24,15,7,49,15,61,0,3-3,4-7,4-11,0-17-34-24-5-35Z"/><path class="cls-1" d="M2243,244c0,0,2,0,3,0l11-11c1-1,1-3,0-3l-67-67c0,0-2,0-3,0l-11,11c-1,1-1,3,0,3l67,67Z"/><path class="cls-1" d="M1044,21c0,0,2,1,3,2,15,1,48,16,53,36,1-2,2-5,3-8,0-2-28-28-52-31-2,0-3,0-5,0,0,0,0,1,0,2Z"/><path class="cls-1" d="M95,46c-3,9-6,2-1,29,14-1,16-13,22-28-4-1-7-3-1-5,0,1,0,3-1,4Z"/><path class="cls-1" d="M2991,36c5-18,3-25,48-18,0,0,0-1,0-2h0c2-5,3-11,3-16-5-3-8-7-11-12-9,5-19,5-28,0-4,5-6,7-8,12-6,11-1,25-4,35Z"/><path class="cls-1" d="M2524,525c0,0,2,0,3,0l11-11c1-1,1-3,0-3l-67-67c0,0-2,0-3,0l-11,11c-1,1-1,3,0,3l67,67Z"/><path class="cls-1" d="M2928-2c-1,2-2,4-2,7,0,9,1,2,18,25,13,8,31,18,46,14-4-4-6-8-7-13,0-3,0-6,0-6,0-1,3-2,8-28-2-2-5-3-7-5-15-9-4-1-52,3-1,1-2,2-3,3Z"/><path class="cls-1" d="M3043,29c-2-1-4-3-7-4-2-9-48,5-38,26,5,11,19,19,3,24,15,7,49,15,61,0,3-3,4-7,4-11,0-17-34-24-5-35Z"/><path class="cls-1" d="M3044,21c0,0,2,1,3,2,15,1,48,16,53,36,1-2,2-5,3-8,0-2-28-28-52-31-2,0-3,0-5,0,0,0,0,1,0,2Z"/><path class="cls-1" d="M995,1998c-1,2-19,0-27-6-3,5-8,8-13,9-1,5-2,11,0,16h0c0,0,0,1,0,2,19-4,42,8,43,27,8-9,7-24,4-35-1-5-3-8-6-13Z"/><path class="cls-1" d="M1035,2061c-4,1-7,2-11,3,3,16,2,28,15,32-2-1-2-21-4-31,0-1,0-2,0-4Z"/><path class="cls-1" d="M1074,2031c-3,11-16,22-27,26-2,0-4,1-6,2,0,6,0,5,2,18,0,9,2,19,5,27,3,6,9,1,18,11,5,0,9-1,12-5,12-12,15-42,1-61-2-7-6-13-1-18-2,0-3,0-5,0Z"/><path class="cls-1" d="M2997,2055c14,7,33,1,48-4,9-3,21-12,23-21,0-2,0-5,0-7,0,0-1-3-2-4-9-15-34-19-5-13-3,1-5,2-8,3,3,9,4,2,2,29,0,0,0,3-2,6-2,5-5,9-1,11Z"/><path class="cls-1" d="M955,2026c-2,0-5,2-7,3-17,7-52,7-56,24,0,4,0,8,2,12,9,17,43,16,6,12,11-2,27-7,34-17,13-19-1-38-32-33Z"/><path class="cls-1" d="M969,1964c5,8,5,17,3,22,8,7,17,8,27,4,1-4,19-13,24-22,9-15,2-39,3-51-9-6-16-6-23,2-7,7-11,17-17,25-5,8-12,15-16,19Z"/><path class="cls-1" d="M997,2055c14,7,33,1,48-4,9-3,21-12,23-21,0-2,0-5,0-7,0,0-1-3-2-4-9-15-34-19-5-13-3,1-5,2-8,3,3,9,4,2,2,29,0,0,0,3-2,6-2,5-5,9-1,11Z"/><path class="cls-1" d="M1068,2012c3,3,5,8,6,12,2,0,5,0,7,0,13-3,25-15,31-26,6-12,1-22,3-33,0,0,0-1,0-2,8-12,12-26,13-41,0-2,0-3-2-4-2-1-5,0-5,3,0,13-4,25-1,36,0,0-1,0-2,0-12-8-3,0-4,12-7,9-14,2-15,31,6,3,11,6,14,11Z"/><path class="cls-1" d="M928-2c-1,2-2,4-2,7,0,9,1,2,18,25,13,8,31,18,46,14-4-4-6-8-7-13,0-3,0-6,0-6,0-1,3-2,8-28-2-2-5-3-7-5-15-9-4-1-52,3-1,1-2,2-3,3Z"/><path class="cls-1" d="M991,36c5-18,3-25,48-18,0,0,0-1,0-2h0c2-5,3-11,3-16-5-3-8-7-11-12-9,5-19,5-28,0-4,5-6,7-8,12-6,11-1,25-4,35Z"/><path class="cls-1" d="M2995,1998c-1,2-19,0-27-6-3,5-8,8-13,9-1,5-2,11,0,16h0c0,0,0,1,0,2,19-4,42,8,43,27,8-9,7-24,4-35-1-5-3-8-6-13Z"/><path class="cls-1" d="M3025,1917c-9-6-16-6-23,2-7,7-11,17-17,25-5,8-12,15-16,19,5,8,5,17,3,22,8,7,17,8,27,4,1-4,19-13,24-22,9-15,2-39,3-51Z"/><path class="cls-1" d="M2946,39c-2-1-4-2-5-3-1-6-2-19-21-31-2,0-3,0-5-1-5,3-1,9-13,15-9,17-12,47-3,61,2,4,6,6,11,7,1,1,16-2,2-7,5-6,8-17,11-25,4-13,4-11,6-17Z"/><path class="cls-1" d="M919,1123c107,37,178,25,196,16,11-5,18-15,0-18-15-2-4,0-83-1-81-2-145-71-178-67-34,4-22,5,64,8Z"/><path class="cls-1" d="M1113,3946c-2-2-3-2-3-2,0,0,0,0,0,0-1,0-2,2-3,3-2,6,1,15,7,18,2,1,4,2,6,0,0,0,1,0,1-1,1-2-1-8-2-1-2-4-4-7-6-9Z"/><path class="cls-1" d="M2982,4026c0-1,3-2,8-28-2-2-5-3-7-5-15-9-4-1-52,3-1,1-2,2-3,3-1,2-2,4-2,7,0,9,1,2,18,25,13,8,31,18,46,14-4-4-6-8-7-13,0-3,0-6,0-6Z"/><path class="cls-1" d="M3113,3946c-2-2-3-2-3-2,0,0,0,0,0,0-1,0-2,2-3,3-2,6,1,15,7,18,2,1,4,2,6,0,0,0,1,0,1-1,1-2-1-8-2-1-2-4-4-7-6-9Z"/><path class="cls-1" d="M3039,4019c0,0,0-1,0-2h0c2-5,3-11,3-16-5-3-8-7-11-12-9,5-19,5-28,0-4,5-6,7-8,12-6,11-1,25-4,35,5-18,3-25,48-18Z"/><path class="cls-1" d="M3099,395c-8-6-21-2-33,1-5,2-14,3-23,11-8,7-12,16-6,25,0,0,0,0,0,0,0,0,0,0,0,1,0,0,0,0,0,0,0,0,1,2,4,4,7,5,16,4,25,4,12-2,27-2,36-11,4-4,5-1,5-16-6-4-9-12-9-19Z"/><path class="cls-1" d="M2921,3999c1-4,5-8,8-11,5-4,1-6,16-7,2-11-3-23-8-33-7-13-23-25-37-2,0,0-2,0-2,0-4-12-5-24-3-37,0-3-2-5-5-4-2,0-3,2-3,3-2,15-1,29,4,43,0,0,0,1,0,2-9,9-7,2-3,33,4,11,12,26,25,31,2,1,5,2,7,2Z"/><path class="cls-1" d="M2246,1729c-1-1-3-1-3,0l-67,67c0,0,0,2,0,3l11,11c1,1,3,1,3,0l67-67c0,0,0-2,0-3l-11-11Z"/><path class="cls-1" d="M2528,3434c-1-1-3-1-3,0l-67,67c0,0,0,2,0,3l11,11c1,1,3,1,3,0l67-67c0,0,0-2,0-3l-11-11Z"/><path class="cls-1" d="M1099,395c-8-6-21-2-33,1-5,2-14,3-23,11-8,7-12,16-6,25,0,0,0,0,0,0,0,0,0,0,0,1,0,0,0,0,0,0,0,0,1,2,4,4,7,5,16,4,25,4,12-2,27-2,36-11,4-4,5-1,5-16-6-4-9-12-9-19Z"/><path class="cls-1" d="M3029,3982c-1-6,0-14,7-21-3-5-8-13-12-22-4-9-6-2-12-28-5-9-13-1-22-7-19,9-14,34-8,51,3,1,1,21,19,27,9,6,18,6,27,1Z"/><path class="cls-1" d="M3041,3957c4-4,9-7,15-8,0-4-2-7-2-11-4-13-1-3-21-35-5-2-1-2-16,0,7,8,11,24,15,34,3,9,7,15,1,2Z"/><path class="cls-1" d="M2246,3715c-1-1-3-1-3,0l-67,67c0,0,0,2,0,3l11,11c1,1,3,1,3,0l67-67c0,0,0-2,0-3l-11-11Z"/><path class="cls-1" d="M4081,2962l-53-4c-1,0-19-6-25-15l-3-44s0,0,0,0,0,0,0,0c0,0,0,0,0,0l-4,53c0,1-6,19-15,25l-44,3s0,0,0,1c0,0,0,0,0,0l53,4c1,0,19,6,25,15l3,44s0,0,1,0c0,0,0,0,0,0l4-53c0-1,6-19,15-25l44-3s0,0,0-1c0,0,0,0,0,0Z"/><path class="cls-1" d="M3813,162c-1-1-3-1-3,0l-67,67c0,0,0,2,0,3l11,11c1,1,3,1,3,0l67-67c0,0,0-2,0-3l-11-11Z"/><path class="cls-1" d="M3532,443c-1-1-3-1-3,0l-67,67c0,0,0,2,0,3l11,11c1,1,3,1,3,0l67-67c0,0,0-2,0-3l-11-11Z"/><path class="cls-1" d="M3757,1728c0,0-2,0-3,0l-11,11c-1,1-1,3,0,3l67,67c0,0,2,0,3,0l11-11c1-1,1-3,0-3l-67-67Z"/><path class="cls-1" d="M3476,1447c0,0-2,0-3,0l-11,11c-1,1-1,3,0,3l67,67c0,0,2,0,3,0l11-11c1-1,1-3,0-3l-67-67Z"/><path class="cls-1" d="M3757,3715c0,0-2,0-3,0l-11,11c-1,1-1,3,0,3l67,67c0,0,2,0,3,0l11-11c1-1,1-3,0-3l-67-67Z"/><path class="cls-1" d="M2855,3029c-34,4-22,5,64,8,107,37,178,25,196,16,11-5,18-15,0-18-15-2-4,0-83-1-81-2-145-71-178-67Z"/><path class="cls-1" d="M3476,3433c0,0-2,0-3,0l-11,11c-1,1-1,3,0,3l67,67c0,0,2,0,3,0l11-11c1-1,1-3,0-3l-67-67Z"/><path class="cls-1" d="M3532,2429c-1-1-3-1-3,0l-67,67c0,0,0,2,0,3l11,11c1,1,3,1,3,0l67-67c0,0,0-2,0-3l-11-11Z"/><path class="cls-1" d="M3813,2148c-1-1-3-1-3,0l-67,67c0,0,0,2,0,3l11,11c1,1,3,1,3,0l67-67c0,0,0-2,0-3l-11-11Z"/><path class="cls-1" d="M2528,1448c-1-1-3-1-3,0l-67,67c0,0,0,2,0,3l11,11c1,1,3,1,3,0l67-67c0,0,0-2,0-3l-11-11Z"/><path class="cls-1" d="M1476,3447c0,0-2,0-3,0l-11,11c-1,1-1,3,0,3l67,67c0,0,2,0,3,0l11-11c1-1,1-3,0-3l-67-67Z"/><path class="cls-1" d="M1813,162c-1-1-3-1-3,0l-67,67c0,0,0,2,0,3l11,11c1,1,3,1,3,0l67-67c0,0,0-2,0-3l-11-11Z"/><path class="cls-1" d="M2092,3008l-44-3c-8-6-14-15-15-25l-4-53c0,0,0,0,0,0,0,0,0,0,0,0s0,0,0,0l-3,44c-6,8-15,14-25,15l-53,4c0,0,0,0,0,0,0,0,0,0,0,1l44,3c8,6,14,15,15,25l4,53c0,0,0,0,0,0,0,0,0,0,1,0l3-44c6-8,15-14,25-15l53-4c0,0,0,0,0,0,0,0,0,0,0-1Z"/><path class="cls-1" d="M2092,1008l-44-3c-8-6-14-15-15-25l-4-53c0,0,0,0,0,0,0,0,0,0,0,0s0,0,0,0l-3,44c-6,8-15,14-25,15l-53,4c0,0,0,0,0,0,0,0,0,0,0,1l44,3c8,6,14,15,15,25l4,53c0,0,0,0,0,0,0,0,0,0,1,0l3-44c6-8,15-14,25-15l53-4c0,0,0,0,0,0,0,0,0,0,0-1Z"/><path class="cls-1" d="M1476,1447c0,0-2,0-3,0l-11,11c-1,1-1,3,0,3l67,67c0,0,2,0,3,0l11-11c1-1,1-3,0-3l-67-67Z"/><path class="cls-1" d="M1532,443c-1-1-3-1-3,0l-67,67c0,0,0,2,0,3l11,11c1,1,3,1,3,0l67-67c0,0,0-2,0-3l-11-11Z"/><path class="cls-1" d="M2243,223c0,0,2,0,3,0l11-11c1-1,1-3,0-3l-67-67c0,0-2,0-3,0l-11,11c-1,1-1,3,0,3l67,67Z"/><path class="cls-1" d="M1757,3728c0,0-2,0-3,0l-11,11c-1,1-1,3,0,3l67,67c0,0,2,0,3,0l11-11c1-1,1-3,0-3l-67-67Z"/><path class="cls-1" d="M1757,1728c0,0-2,0-3,0l-11,11c-1,1-1,3,0,3l67,67c0,0,2,0,3,0l11-11c1-1,1-3,0-3l-67-67Z"/><path class="cls-1" d="M2524,2511c0,0,2,0,3,0l11-11c1-1,1-3,0-3l-67-67c0,0-2,0-3,0l-11,11c-1,1-1,3,0,3l67,67Z"/><path class="cls-1" d="M1813,2162c-1-1-3-1-3,0l-67,67c0,0,0,2,0,3l11,11c1,1,3,1,3,0l67-67c0,0,0-2,0-3l-11-11Z"/><path class="cls-1" d="M1532,2443c-1-1-3-1-3,0l-67,67c0,0,0,2,0,3l11,11c1,1,3,1,3,0l67-67c0,0,0-2,0-3l-11-11Z"/><path class="cls-2" d="M1117,3941c-5-5-9-4-11-3-2,1-4,3-5,5-1-5-24-2-36,2-1,0-2,0-3,1,0-4-2-9-2-11-4-15-11-33-25-39-7-3-14-3-22,0,0,0-1,0-2,0-6-4-14-4-23-1-18,8-2,27-16,45,4,18,11,34,26,45-1,2-3,3-4,5,0,0,0,0,0,1-2-2-5-3-7-5-9-5-2-8-31-8,0,0-2,0-3,0,0-11-4-24-9-34-7-14-24-27-39-24-2-9-3-19-1-3,0-5-3-11-9-11-6,0-11,3-11,9-2,16-1,3,4,43-9,11-6,25-3,36h0c4,12,12,27,25,34-5,4-9,9-12,15-1,19-11,45-6,6,2,1,1,17,18,17,13,2,22-2,29-12,3,0,5,0,7,0,15-3,18-18,23-32,8,2,16,3,24,1,0,0,0,0,0,0,8,23,45,37,67,4,18,2,37-3,41-21,5-4,8-1,9-17h0c0-2-19-33-58-38-1,0-3,0-4,0,0-4,1-7,1-11,6,2,13,1,2,0,14-2,3-2,41-13,5-5,7-11,7-18,2,0,4,0,6,0,4-2,5-5,5-9,0-3-1-6-3-11-2-5-4-8-7-11ZM1032,3902c11,5,17,22,21,35,0,4,2,7,2,11-5,2-1,5-15,8-3-6-7-11-1-2-4-1-8-26-15-34,6-2,11-2,16,0ZM983,3954c-6-16-11-42,8-51,1-4,17-2,22,7,5,9,8,19,12,28,4,9,9,17,12,22-6,7-8,15-7,21-9,5-18,4-27-1-9-6-16-17-19-27ZM889,3966c-3-13-6-24,3-33,0,0,0,0,0-2-6-14-6-28-4-43,0-2,1-3,3-3,3,0,5,2,5,4-2,13-1,25,3,37,0,0,1,1,2,0,14-5,3,7,37,2,5,1,1,22,8,33-6,1-12,4-16,7-3,3-7,7-8,11-2,0-5,0-7-2-12-5-21-2-25-31ZM93,4081c-4,5-11,8-2,7-5,0-9-3-11-7-9-15-6-44,3-61,4-7,8-12,13-15,2,0,3,0,5,1,0,12,11,25,21,31,2,1,3,2,5,3-2,6-2,4-6,17-2,8-5,18-11,25ZM94,4075c4-9,7-2,1-29,0-1,0-2,1-4,3,2,7,4,1,5-6,15-8,27-22,28ZM944,4031c-8-5-18-16-18-25,0-2,0-5,2-7,0,0,2-2,3-3,12-12,37-12,52-3,2,2,5,3,7,5-5,8-8,19-8,28,0,0,0,3,0,6,1,5,4,1,7,13-15,4-33-6-46-14ZM991,4036c-6-1-2-25,4-35,2-4,4-7,8-12,9,4,19,4,28,0,2,5,6,9,11,12,0,5,0,11-3,16h0c0,0,0,1,0,2-18-7-42,0-48,18ZM1089,4075c-12,15-45,7-61,0-11-5-25-12-3-24-9-21,18-35,38-26,2,0,5,3,7,4,16,11,49,18,5,35,0,4-2,8-4,11ZM105,402c24,3,53,12,52,31,0,3-1,6-3,8-5-2-38-26-53-36,0,0-2-1-3-2,0,0,0-1,0-2,2,0,4,0,5,0ZM1104,3985c-9,8-24,9-36,11-8,0-18,2-25-4-2-2-3-3-4-4,0,0,0,0,0,0,0,0,0,0,0-1s0,0,0,0c-5-9-2-18,6-25,8-8,17-9,23-11,11-4,24-7,33-1,0,7,3,15,9,19,0,6,0,12-5,16ZM112,3965s0,0-1,1c-2,0-4,0-6,0-6-4-9-13-7-18,0-1,1-2,3-3,0,0,0,0,0,0,0,0,2,0,3,2,2,2,4,5,6,9,1,2,4,8,2,1Z"/><path class="cls-2" d="M3117,3941c-5-5-9-4-11-3-2,1-4,3-5,5-1-5-24-2-36,2-1,0-2,0-3,1,0-4-2-9-2-11-4-15-11-33-25-39-7-3-14-3-22,0,0,0-1,0-2,0-6-4-14-4-23-1-18,8-2,27-16,45,4,18,11,34,26,45-1,2-3,3-4,5,0,0,0,0,0,1-2-2-5-3-7-5-9-5-2-8-31-8,0,0-2,0-3,0,0-11-4-24-9-34-7-14-24-27-39-24-2-9-3-19-1-3,0-5-3-11-9-11-6,0-11,3-11,9-2,16-1,3,4,43-9,11-6,25-3,36h0c4,12,12,27,25,34-5,4-9,9-12,15-1,19-11,45-6,6,2,1,1,17,18,17,13,2,22-2,29-12,3,0,5,0,7,0,15-3,18-18,23-32,8,2,16,3,24,1,0,0,0,0,0,0,8,23,45,37,67,4,18,2,37-3,41-21,5-4,8-1,9-17h0c0-2-19-33-58-38-1,0-3,0-4,0,0-4,1-7,1-11,6,2,13,1,2,0,14-2,3-2,41-13,5-5,7-11,7-18,2,0,4,0,6,0,4-2,5-5,5-9,0-3-1-6-3-11-2-5-4-8-7-11ZM3032,3902c11,5,17,22,21,35,0,4,2,7,2,11-5,2-1,5-15,8-3-6-7-11-1-2-4-1-8-26-15-34,6-2,11-2,16,0ZM2983,3954c-6-16-11-42,8-51,1-4,17-2,22,7,5,9,8,19,12,28,4,9,9,17,12,22-6,7-8,15-7,21-9,5-18,4-27-1-9-6-16-17-19-27ZM2889,3966c-3-13-6-24,3-33,0,0,0,0,0-2-6-14-6-28-4-43,0-2,1-3,3-3,3,0,5,2,5,4-2,13-1,25,3,37,0,0,1,1,2,0,14-5,3,7,37,2,5,1,1,22,8,33-6,1-12,4-16,7-3,3-7,7-8,11-2,0-5,0-7-2-12-5-21-2-25-31ZM293,4081c-4,5-11,8-2,7-5,0-9-3-11-7-9-15-6-44,3-61,4-7,8-12,13-15,2,0,3,0,5,1,0,12,11,25,21,31,2,1,3,2,5,3-2,6-2,4-6,17-2,8-5,18-11,25ZM294,4075c4-9,7-2,1-29,0-1,0-2,1-4,3,2,7,4,1,5-6,15-8,27-22,28ZM2944,4031c-8-5-18-16-18-25,0-2,0-5,2-7,0,0,2-2,3-3,12-12,37-12,52-3,2,2,5,3,7,5-5,8-8,19-8,28,0,0,0,3,0,6,1,5,4,1,7,13-15,4-33-6-46-14ZM2991,4036c-6-1-2-25,4-35,2-4,4-7,8-12,9,4,19,4,28,0,2,5,6,9,11,12,0,5,0,11-3,16h0c0,0,0,1,0,2-18-7-42,0-48,18ZM3089,4075c-12,15-45,7-61,0-11-5-25-12-3-24-9-21,18-35,38-26,2,0,5,3,7,4,16,11,49,18,5,35,0,4-2,8-4,11ZM305,402c24,3,53,12,52,31,0,3-1,6-3,8-5-2-38-26-53-36,0,0-2-1-3-2,0,0,0-1,0-2,2,0,4,0,5,0ZM3104,3985c-9,8-24,9-36,11-8,0-18,2-25-4-2-2-3-3-4-4,0,0,0,0,0,0,0,0,0,0,0-1s0,0,0,0c-5-9-2-18,6-25,8-8,17-9,23-11,11-4,24-7,33-1,0,7,3,15,9,19,0,6,0,12-5,16ZM312,3965s0,0-1,1c-2,0-4,0-6,0-6-4-9-13-7-18,0-1,1-2,3-3,0,0,0,0,0,0,0,0,2,0,3,2,2,2,4,5,6,9,1,2,4,8,2,1Z"/><path class="cls-2" d="M3909,1017l53,4c8,0,15,5,2,11l3,44c2,2,4,4,7,4s1,0,2,0c3,0,6-4,6-7l4-53c0-8,5-15,11-2l44-3c3-2,4-5,3-9,0-3-4-6-7-6l-53-4c-8,0-15-5-2-11l-3-44c-2-3-5-4-9-3-3,0-6,4-6,7l-4,53c0,8-5,15-11,2l-44,3c-3,2-4,5-3,9,0,3,4,6,7,6ZM3909,1008l44-3c8-6,14-15,15-25l4-53c0,0,0,0,0,0,0,0,0,0,0,0s0,0,0,0l3,44c6,8,15,14,25,15l53,4c0,0,0,0,0,0,0,0,0,0,0,1l-44,3c-8,6-14,15-15,25l-4,53c0,0,0,0,0,0,0,0,0,0-1,0l-3-44c-6-8-15-14-25-15l-53-4c0,0,0,0,0,0,0,0,0,0,0-1Z"/><path class="cls-2" d="M4082,2955l-53-4c-8,0-15-5-2-11l-3-44c-2-3-5-4-9-3-3,0-6,4-6,7l-4,53c0,8-5,15-11,2l-44,3c-3,2-4,5-3,9,0,3,4,6,7,6l53,4c8,0,15,5,2,11l3,44c2,2,4,4,7,4s1,0,2,0c3,0,6-4,6-7l4-53c0-8,5-15,11-2l44-3c3-2,4-5,3-9,0-3-4-6-7-6ZM4082,2964l-44,3c-8,6-14,15-15,25l-4,53c0,0,0,0,0,0,0,0,0,0-1,0l-3-44c-6-8-15-14-25-15l-53-4c0,0,0,0,0,0,0,0,0,0,0-1l44-3c8-6,14-15,15-25l4-53c0,0,0,0,0,0,0,0,0,0,0,0s0,0,0,0l3,44c6,8,15,14,25,15l53,4c0,0,0,0,0,0,0,0,0,0,0,1Z"/><path class="cls-2" d="M936,3104c-8-5-16-1-24-16-2,3-3,6-4,9-12,22-21,47-35,69,34,2,43-27,63-61Z"/><path class="cls-2" d="M1341,2909c-4-5-6-6-8-6,0,0,0,0-1,0-3,0-5,3-7,6-7,13-2,37,11,48,4,3,9,6,13,4,2,0,3-1,4-2,4-5,0-2-2-26-3-11-7-19-1-24Z"/><path class="cls-2" d="M9,3078c-4-3-8-7-11-1-21-18-43-54-4-83-4-1-8-2-12-4-14,7-26,17-38,33-28,39-45,111-29,149,4,1,13,18,24,21,23,7,39,2,52-1,15-14,26-38,35-57,14-29,13-25,19-39Z"/><path class="cls-2" d="M1142,3087c-4-4-9-9-15-12-47-29-118-4-103,51,8,29,4,53,64,68,35,22,114,55,148,22,7-7,12-16,14-26,4-42-75-71-109-103Z"/><path class="cls-2" d="M1307,2916c-18-17-51-13-8-9-14,2-36,3-59,18-21,14-34,35-24,59,0,0,0,0,0,0,0,1,1,3,2,4,0,0,0,0,0,0,1,2,3,6,7,11,14,15,38,16,59,17,31,0,67,4,93-13,12-9,17-23,17-38-12-13-18-33-15-5Z"/><path class="cls-2" d="M1162,3069c-4-1-8-2-13-3,0,1-1,2-2,4,2,2,4,4,6,6,33,3,112,57,116,107,4-5,8-11,1-18,9-48-59-78-117-95Z"/><path class="cls-2" d="M1149,292c-6-14-15-35-21-59-6-24-9-51-18-73-1-24-27-3-52-25-5,15-45,79-37,121,4,25,17,54,38,72,19,17,42,22,66,13,0-15,7-34,25-5Z"/><path class="cls-2" d="M1201,2895c0-9-1-19-2-28-5-32-14-77-39-93-11-7-24-9-39-5,14,23,18,62,24,88,5,23,12,39,18,53,12-7,25-13,39-15Z"/><path class="cls-2" d="M1127,2985c-24,8-48,5-69-9-12,1-18,16-25,26-18,24-32,57-21,85,19-42,82-5,123-26,0-1,2-3,2-4h0c6-12,11-26,12-39-11-8-18-19-22-33Z"/><path class="cls-2" d="M1022,2991c-5-5-11-1-16-14-33-28-94-38-127-12-3,2-6,5-8,7-3,3-6,9-7,16-2,22,17,54,35,69,29,25,68,56,107,51-7-1-12-22-13-35,0-7,0-14,0-14,2-24,14-48,29-67Z"/><path class="cls-2" d="M837,2964c5,3,11,6,16,7,5-1,15-18,24-23,12-7,27-11,42-12,8-26,0-59-8-84-12-34-47-69-82-62-2,0-4,0-4-3-6-3-3-61,6-91,2-6-3-13-1-12-4,0-7,3-8,7-1,35-13,71-5,106,0,1,0,3-1,4-25,19-23,47-2,78,5,28,21,68,49,85Z"/><path class="cls-2" d="M883-33h0c4,12,12,27,25,34-5,4-9,9-12,15-1,19-11,45-6,6,2,1,1,17,18,17,13,2,22-2,29-12,3,0,5,0,7,0,15-3,18-18,23-32,8,2,16,3,24,1,0,0,0,0,0,0,8,23,45,37,67,4,18,2,37-3,41-21,5-4,8-1,9-17h0c0-2-19-33-58-38-1,0-3,0-4,0,0-4,1-7,1-11,6,2,13,1,2,0,14-2,3-2,41-13,5-5,7-11,7-18,2,0,4,0,6,0,4-2,5-5,5-9,0-3-1-6-3-11-2-5-4-8-7-11-5-5-9-4-11-3-2,1-4,3-5,5-1-5-24-2-36,2-1,0-2,0-3,1,0-4-2-9-2-11-4-15-11-33-25-39-7-3-14-3-22,0,0,0-1,0-2,0-6-4-14-4-23-1-18,8-2,27-16,45,4,18,11,34,26,45-1,2-3,3-4,5,0,0,0,0,0,1-2-2-5-3-7-5-9-5-2-8-31-8,0,0-2,0-3,0,0-11-4-24-9-34-7-14-24-27-39-24-2-9-3-19-1-3,0-5-3-11-9-11-6,0-11,3-11,9-2,16-1,3,4,43-9,11-6,25-3,36ZM93,81c-4,5-11,8-2,7-5,0-9-3-11-7-9-15-6-44,3-61,4-7,8-12,13-15,2,0,3,0,5,1,0,12,11,25,21,31,2,1,3,2,5,3-2,6-2,4-6,17-2,8-5,18-11,25ZM94,75c4-9,7-2,1-29,0-1,0-2,1-4,3,2,7,4,1,5-6,15-8,27-22,28ZM1089,75c-12,15-45,7-61,0-11-5-25-12-3-24-9-21,18-35,38-26,2,0,5,3,7,4,16,11,49,18,5,35,0,4-2,8-4,11ZM105,2c24,3,53,12,52,31,0,3-1,6-3,8-5-2-38-26-53-36,0,0-2-1-3-2,0,0,0-1,0-2,2,0,4,0,5,0ZM1106-53c0-1,1-2,3-3,0,0,0,0,0,0,0,0,2,0,3,2,2,2,4,5,6,9,1,2,4,8,2,1,0,0,0,0-1,1-2,0-4,0-6,0-6-4-9-13-7-18ZM1067-49c11-4,24-7,33-1,0,7,3,15,9,19,0,6,0,12-5,16-9,8-24,9-36,11-8,0-18,2-25-4-2-2-3-3-4-4,0,0,0,0,0,0,0,0,0,0,0-1s0,0,0,0c-5-9-2-18,6-25,8-8,17-9,23-11ZM1032-98c11,5,17,22,21,35,0,4,2,7,2,11-5,2-1,5-15,8-3-6-7-11-1-2-4-1-8-26-15-34,6-2,11-2,16,0ZM983-46c-6-16-11-42,8-51,1-4,17-2,22,7,5,9,8,19,12,28,4,9,9,17,12,22-6,7-8,15-7,21-9,5-18,4-27-1-9-6-16-17-19-27ZM995,0c2-4,4-7,8-12,9,4,19,4,28,0,2,5,6,9,11,12,0,5,0,11-3,16h0c0,0,0,1,0,2-18-7-42,0-48,18-6-1-2-25,4-35ZM982-8c2,2,5,3,7,5-5,8-8,19-8,28,0,0,0,3,0,6,1,5,4,1,7,13-15,4-33-6-46-14-8-5-18-16-18-25,0-2,0-5,2-7,0,0,2-2,3-3,12-12,37-12,52-3ZM893-68c-6-14-6-28-4-43,0-2,1-3,3-3,3,0,5,2,5,4-2,13-1,25,3,37,0,0,1,1,2,0,14-5,3,7,37,2,5,1,1,22,8,33-6,1-12,4-16,7-3,3-7,7-8,11-2,0-5,0-7-2-12-5-21-2-25-31-3-13-6-24,3-33,0,0,0,0,0-2Z"/><path class="cls-2" d="M879,2038h0c0,7,1,13,6,19,0,19,18,28,36,29,22,2,62-4,74-25,0,0,0,0,0,0,7,4,15,4,24,4,3,14,3,3,17,36,2,0,4,2,7,2,4,11,12,17,25,18,8,1,18-4,21-13,8-14,12-4,6-6-2-7-5-13-9-17,14-4,25-17,31-28h0c5-1,11-23,5-36,7-12,11-26,12-42,0-5-4-1-9-11-6,0-1,4-11,9,0,11-3,21-7,29-15-6-33,3-43,16-7,9-14,21-16,32-1,0-2,0-3,0-11-3-22-2-32,1-3,1-6,2-8,3,0,0,0-1,0-1,0-2-2-4-3-5,17-7,27-22,34-38,7-16,1-35-7-47-8-5-16-7-23-4,0,0,0,0-1-1-7-5-14-7-21-5-14,3-25,2-32,33,0,2-3,7-5,1,0,0-2-1-3-2-11-7-24-12-35-9,0-2-2-4-4-6-2-1-6-3-11,0-3,2-6,5-9,9-3,4-5,7-5,1,0,4,0,7,4,1,2,1,3,2,6,2-1,7,0,13,3,19,8,12,24,16,37,21,6,2,13,4,19,3,0,4,0,7,0,11-1,0-3,0-4,0-39-3-61,6-64,25ZM987,206c-7,1-23,15-34,17-17,4-51,5-6-12-2-4-2-8-2-12,4-17,38-17,56-24,2-1,5-2,7-3,22-4,46,15,32,33ZM1024,2064c4,0,8-2,11-3,0,1,0,3,0,4,1,1,2,21,4,31-13-4-13-16-15-32ZM1089,2049c5,19,2,48-1,61-3,3-8,5-12,5-1,0-15-5-18-11-4-7-5-18-5-27-1-13-1-11-2-18,2,0,4-1,6-2,11-4,24-15,27-26,2,0,3,0,5,0,4,4,8,1,1,18ZM1068,1971c9-11,27-2,4-12,0,0,2,0,2,0,7-11,1-23,1-36,0-3,3-4,5-3,1,0,2,2,2,4,0,15-5,29-13,41,0,0,0,1,0,2,7,11,2,21-3,33-6,1-17,23-31,26-3,0-5,0-7,0,0-4-3-9-6-12-4-4-9-8-14-11,0-11,8-22,15-31ZM1007,2044c1-2,2-6,2-6,2-9,1-2-2-29,3-1,5-2,8-3,16-6,41-1,5,13,0,1,2,3,2,4,0,2,1,4,0,7-2,9-14,18-23,21-15,6-34,12-48,4,4-3,7-7,1-11ZM998,2047c-1-18-24-3-43-27,0,0,0-1,0-2h0c0-5,0-11,0-16,5-2,1-5,13-9,8,6,18,8,27,6,3,6,4,8,6,13,3,11,4,26-4,35ZM1025,1917c17,13,6,37-3,51-5,9-14,18-24,22-1,4-19,2-27-4,2-6,2-14-3-22,4-5,11-11,16-19,6-8,1-18,17-25,7-8,14-8,23-2ZM957,1937c6-12,16-27,28-3,5-1,1,0,16,4-8,7-15,21-21,3-5,8-1,13-14,18-3-4-8-8-13-11,1-3,3-7,5-1ZM892,1953c-2,0-4,0-6,0,0,0,0,0-1-1,0-2,3-8,4-1,3-4,5-6,7-8,2-1,3-1,4-1,0,0,0,0,0,0,1,0,2,2,2,3,0,6-4,14-11,17ZM931,1992c-12-4-26-8-33-18-3-5-3-11-1-17,6-3,11-1,13-17,9-4,21,2,32,8,5,3,13,6,2,15,6,8,8,18,1,26,0,0,0,0,0,0,0,0,0,0-1,1,0,0,0,0,0,0,0,0-2,2-4,3-8,4-17,0-25-2ZM948,202c0,0,0,1,0,2-1,0-2,0-3,1-17,7-5,6-59,25,0-3-1-5-1-8,3-19,33-21,58-2,2,0,3,0,5,0Z"/><path class="cls-2" d="M82,955l-53-4c-8,0-15-5-2-11l-3-44c-2-3-5-4-9-3-3,0-6,4-6,7l-4,53c0,8-5,15-11,2l-44,3c-3,2-4,5-3,9,0,3,4,6,7,6l53,4c8,0,15,5,2,11l3,44c2,2,4,4,7,4s1,0,2,0c3,0,6-4,6-7l4-53c0-8,5-15,11-2l44-3c3-2,4-5,3-9,0-3-4-6-7-6ZM82,964l-44,3c-8,6-14,15-15,25l-4,53c0,0,0,0,0,0,0,0,0,0-1,0l-3-44c-6-8-15-14-25-15l-53-4c0,0,0,0,0,0,0,0,0,0,0-1l44-3c8-6,14-15,15-25l4-53c0,0,0,0,0,0,0,0,0,0,0,0s0,0,0,0l3,44c6,8,15,14,25,15l53,4c0,0,0,0,0,0,0,0,0,0,0,1Z"/><path class="cls-2" d="M2096,1003l-44-3c-7-5-11-12-11-2l-4-53c0-3-3-6-6-7-3,0-7,0-9,3l-3,44c-5,7-12,11-2,11l-53,4c-3,0-6,3-7,6,0,3,0,7,3,9l44,3c7,5,11,12,11,2l4,53c0,3,3,6,6,7,0,0,1,0,2,0,3,0,5-1,7-4l3-44c5-7,12-11,2-11l53-4c3,0,6-3,7-6,0-3,0-7-3-9ZM2092,101s0,0,0,0l-53,4c-1,0-19,6-25,15l-3,44s0,0-1,0c0,0,0,0,0,0l-4-53c0-1-6-19-15-25l-44-3s0,0,0-1c0,0,0,0,0,0l53-4c1,0,19-6,25-15l3-44s0,0,0,0,0,0,0,0c0,0,0,0,0,0l4,53c0,1,6,19,15,25l44,3s0,0,0,1Z"/><path class="cls-2" d="M281,29l13,13,113,113c0,0,2,0,3,0l19-19c1-1,1-3,0-3l-113-113-13-13-113-113c0,0-2,0-3,0l-19,19c-1,1-1,3,0,3l113,113ZM457,454l11-11c1-1,3-1,3,0l67,67c0,0,0,2,0,3l-11,11c-1,1-3,1-3,0l-67-67c0,0,0-2,0-3ZM176,173l11-11c1-1,3-1,3,0l67,67c0,0,0,2,0,3l-11,11c-1,1-3,1-3,0l-67-67c0,0,0-2,0-3Z"/><path class="cls-2" d="M1719,1682l-13-13-113-113c0,0-2,0-3,0l-19,19c-1,1-1,3,0,3l113,113,13,13,113,113c0,0,2,0,3,0l19-19c1-1,1-3,0-3l-113-113ZM1543,1518l-11,11c-1,1-3,1-3,0l-67-67c0,0,0-2,0-3l11-11c1-1,3-1,3,0l67,67c0,0,0,2,0,3ZM1824,1799l-11,11c-1,1-3,1-3,0l-67-67c0,0,0-2,0-3l11-11c1-1,3-1,3,0l67,67c0,0,0,2,0,3Z"/><path class="cls-2" d="M527,1441c-1-1-3-1-3,0l-113,113-13,13-113,113c0,0,0,2,0,3l19,19c1,1,3,1,3,0l113-113,13-13,113-113c0,0,0-2,0-3l-19-19ZM258,1743l-67,67c0,0-2,0-3,0l-11-11c-1-1-1-3,0-3l67-67c0,0,2,0,3,0l11,11c1,1,1,3,0,3ZM539,1462l-67,67c0,0-2,0-3,0l-11-11c-1-1-1-3,0-3l67-67c0,0,2,0,3,0l11,11c1,1,1,3,0,3Z"/><path class="cls-2" d="M1812,155c-1-1-3-1-3,0l-113,113-13,13-113,113c0,0,0,2,0,3l19,19c1,1,3,1,3,0l113-113,13-13,113-113c0,0,0-2,0-3l-19-19ZM1543,457l-67,67c0,0-2,0-3,0l-11-11c-1-1-1-3,0-3l67-67c0,0,2,0,3,0l11,11c1,1,1,3,0,3ZM1825,176l-67,67c0,0-2,0-3,0l-11-11c-1-1-1-3,0-3l67-67c0,0,2,0,3,0l11,11c1,1,1,3,0,3Z"/><path class="cls-2" d="M827,1096c32,29,81,57,139,7,58,14,114,1,155,0,41-9,68-24,72-36,4-13-15-21-49-32-13-4-28-8-45-13,1-68,71-14,111-195,14-2-5-49-35-58l-184-33c-3-9-59,5-61,3-5,59-16,118-31,177,8,3,16,7,23,11,3,15,59,34,9,49,1,5,2,9,3,13,3,1,5,4,4,8-1,3-4,5-7,4-43-14-82-4-122-59-1-5-2-9-3-13-9-3-17-5-25-7-2,0-3,0-5-1-5-1-9-2-14-3-2,0-4,0-6,0,0,0,0,0-1,0,0,0,0,0,0,0-3,0-6,0-9-1,0,0,0,0-1,0,0,0,0,0,0,0-2,0-4,0-6,0,0,0,0,0,0,0,0,0,0,0,0,0-3,0-5,0-8,0,0,0,0,0,0,0,0,0,0,0-1,0,0,0,0,0,0,0,0,0,0,0,0,0,0,0,0,0,0,0,0,0,0,0,0,0,0,0,0,0,0,0,0,0,0,0,0,0,0,0,0,0,0,0,0,0,0,0,0,0,0,0,0,0,0,0,0,0,0,0,0,0,0,0,0,0,0,0-1,0-3,0-4,2,0,0,0,0,0,0,0,0,0,0,0,0,0,0,0,0,0,0,0,0-2,1-3,2,0,0,0,0,0,0,0,0,0,0,0,0,0,0,0,0,0,0,0,0,0,0,0,0,0,0,0,0,0,0,0,0,0,0,0,0,0,0,0,0,0,0,0,0,0,0,0,0,0,0,0,0,0,0,0,1-2,2-2,4,0,0,0,0,0,0,0,0,0,0,0,0,0,0,0,0,0,0,0,0,0,0,0,0-7,17,8,48,39,77ZM855,1043c33-4,97,47,178,67,43,11,67,8,83,1,17,3,11,12,0,18-18,9-89,21-196-16-86-3-98-76-64-8Z"/><path class="cls-2" d="M82,2955l-53-4c-8,0-15-5-2-11l-3-44c-2-3-5-4-9-3-3,0-6,4-6,7l-4,53c0,8-5,15-11,2l-44,3c-3,2-4,5-3,9,0,3,4,6,7,6l53,4c8,0,15,5,2,11l3,44c2,2,4,4,7,4s1,0,2,0c3,0,6-4,6-7l4-53c0-8,5-15,11-2l44-3c3-2,4-5,3-9,0-3-4-6-7-6ZM82,2964l-44,3c-8,6-14,15-15,25l-4,53c0,0,0,0,0,0,0,0,0,0-1,0l-3-44c-6-8-15-14-25-15l-53-4c0,0,0,0,0,0,0,0,0,0,0-1l44-3c8-6,14-15,15-25l4-53c0,0,0,0,0,0,0,0,0,0,0,0s0,0,0,0l3,44c6,8,15,14,25,15l53,4c0,0,0,0,0,0,0,0,0,0,0,1Z"/><path class="cls-2" d="M2096,3003l-44-3c-7-5-11-12-11-2l-4-53c0-3-3-6-6-7-3,0-7,0-9,3l-3,44c-5,7-12,11-2,11l-53,4c-3,0-6,3-7,6,0,3,0,7,3,9l44,3c7,5,11,12,11,2l4,53c0,3,3,6,6,7,0,0,1,0,2,0,3,0,5-1,7-4l3-44c5-7,12-11,2-11l53-4c3,0,6-3,7-6,0-3,0-7-3-9ZM2092,301s0,0,0,0l-53,4c-1,0-19,6-25,15l-3,44s0,0-1,0c0,0,0,0,0,0l-4-53c0-1-6-19-15-25l-44-3s0,0,0-1c0,0,0,0,0,0l53-4c1,0,19-6,25-15l3-44s0,0,0,0,0,0,0,0c0,0,0,0,0,0l4,53c0,1,6,19,15,25l44,3s0,0,0,1Z"/><path class="cls-2" d="M281,229l13,13,113,113c0,0,2,0,3,0l19-19c1-1,1-3,0-3l-113-113-13-13-113-113c0,0-2,0-3,0l-19,19c-1,1-1,3,0,3l113,113ZM457,2454l11-11c1-1,3-1,3,0l67,67c0,0,0,2,0,3l-11,11c-1,1-3,1-3,0l-67-67c0,0,0-2,0-3ZM176,2173l11-11c1-1,3-1,3,0l67,67c0,0,0,2,0,3l-11,11c-1,1-3,1-3,0l-67-67c0,0,0-2,0-3Z"/><path class="cls-2" d="M1719,3682l-13-13-113-113c0,0-2,0-3,0l-19,19c-1,1-1,3,0,3l113,113,13,13,113,113c0,0,2,0,3,0l19-19c1-1,1-3,0-3l-113-113ZM1543,3518l-11,11c-1,1-3,1-3,0l-67-67c0,0,0-2,0-3l11-11c1-1,3-1,3,0l67,67c0,0,0,2,0,3ZM1824,3799l-11,11c-1,1-3,1-3,0l-67-67c0,0,0-2,0-3l11-11c1-1,3-1,3,0l67,67c0,0,0,2,0,3Z"/><path class="cls-2" d="M527,3441c-1-1-3-1-3,0l-113,113-13,13-113,113c0,0,0,2,0,3l19,19c1,1,3,1,3,0l113-113,13-13,113-113c0,0,0-2,0-3l-19-19ZM258,3743l-67,67c0,0-2,0-3,0l-11-11c-1-1-1-3,0-3l67-67c0,0,2,0,3,0l11,11c1,1,1,3,0,3ZM539,3462l-67,67c0,0-2,0-3,0l-11-11c-1-1-1-3,0-3l67-67c0,0,2,0,3,0l11,11c1,1,1,3,0,3Z"/><path class="cls-2" d="M1812,2155c-1-1-3-1-3,0l-113,113-13,13-113,113c0,0,0,2,0,3l19,19c1,1,3,1,3,0l113-113,13-13,113-113c0,0,0-2,0-3l-19-19ZM1543,2457l-67,67c0,0-2,0-3,0l-11-11c-1-1-1-3,0-3l67-67c0,0,2,0,3,0l11,11c1,1,1,3,0,3ZM1825,2176l-67,67c0,0-2,0-3,0l-11-11c-1-1-1-3,0-3l67-67c0,0,2,0,3,0l11,11c1,1,1,3,0,3Z"/><path class="cls-2" d="M2883-33h0c4,12,12,27,25,34-5,4-9,9-12,15-1,19-11,45-6,6,2,1,1,17,18,17,13,2,22-2,29-12,3,0,5,0,7,0,15-3,18-18,23-32,8,2,16,3,24,1,0,0,0,0,0,0,8,23,45,37,67,4,18,2,37-3,41-21,5-4,8-1,9-17h0c0-2-19-33-58-38-1,0-3,0-4,0,0-4,1-7,1-11,6,2,13,1,2,0,14-2,3-2,41-13,5-5,7-11,7-18,2,0,4,0,6,0,4-2,5-5,5-9,0-3-1-6-3-11-2-5-4-8-7-11-5-5-9-4-11-3-2,1-4,3-5,5-1-5-24-2-36,2-1,0-2,0-3,1,0-4-2-9-2-11-4-15-11-33-25-39-7-3-14-3-22,0,0,0-1,0-2,0-6-4-14-4-23-1-18,8-2,27-16,45,4,18,11,34,26,45-1,2-3,3-4,5,0,0,0,0,0,1-2-2-5-3-7-5-9-5-2-8-31-8,0,0-2,0-3,0,0-11-4-24-9-34-7-14-24-27-39-24-2-9-3-19-1-3,0-5-3-11-9-11-6,0-11,3-11,9-2,16-1,3,4,43-9,11-6,25-3,36ZM293,81c-4,5-11,8-2,7-5,0-9-3-11-7-9-15-6-44,3-61,4-7,8-12,13-15,2,0,3,0,5,1,0,12,11,25,21,31,2,1,3,2,5,3-2,6-2,4-6,17-2,8-5,18-11,25ZM294,75c4-9,7-2,1-29,0-1,0-2,1-4,3,2,7,4,1,5-6,15-8,27-22,28ZM3089,75c-12,15-45,7-61,0-11-5-25-12-3-24-9-21,18-35,38-26,2,0,5,3,7,4,16,11,49,18,5,35,0,4-2,8-4,11ZM305,2c24,3,53,12,52,31,0,3-1,6-3,8-5-2-38-26-53-36,0,0-2-1-3-2,0,0,0-1,0-2,2,0,4,0,5,0ZM3106-53c0-1,1-2,3-3,0,0,0,0,0,0,0,0,2,0,3,2,2,2,4,5,6,9,1,2,4,8,2,1,0,0,0,0-1,1-2,0-4,0-6,0-6-4-9-13-7-18ZM3067-49c11-4,24-7,33-1,0,7,3,15,9,19,0,6,0,12-5,16-9,8-24,9-36,11-8,0-18,2-25-4-2-2-3-3-4-4,0,0,0,0,0,0,0,0,0,0,0-1s0,0,0,0c-5-9-2-18,6-25,8-8,17-9,23-11ZM3032-98c11,5,17,22,21,35,0,4,2,7,2,11-5,2-1,5-15,8-3-6-7-11-1-2-4-1-8-26-15-34,6-2,11-2,16,0ZM2983-46c-6-16-11-42,8-51,1-4,17-2,22,7,5,9,8,19,12,28,4,9,9,17,12,22-6,7-8,15-7,21-9,5-18,4-27-1-9-6-16-17-19-27ZM2995,0c2-4,4-7,8-12,9,4,19,4,28,0,2,5,6,9,11,12,0,5,0,11-3,16h0c0,0,0,1,0,2-18-7-42,0-48,18-6-1-2-25,4-35ZM2982-8c2,2,5,3,7,5-5,8-8,19-8,28,0,0,0,3,0,6,1,5,4,1,7,13-15,4-33-6-46-14-8-5-18-16-18-25,0-2,0-5,2-7,0,0,2-2,3-3,12-12,37-12,52-3ZM2893-68c-6-14-6-28-4-43,0-2,1-3,3-3,3,0,5,2,5,4-2,13-1,25,3,37,0,0,1,1,2,0,14-5,3,7,37,2,5,1,1,22,8,33-6,1-12,4-16,7-3,3-7,7-8,11-2,0-5,0-7-2-12-5-21-2-25-31-3-13-6-24,3-33,0,0,0,0,0-2Z"/><path class="cls-2" d="M3036,1958c7-16,1-35-7-47-8-5-16-7-23-4,0,0,0,0-1-1-7-5-14-7-21-5-14,3-25,2-32,33,0,2-3,7-5,1,0,0-2-1-3-2-11-7-24-12-35-9,0-2-2-4-4-6-2-1-6-3-11,0-3,2-6,5-9,9-3,4-5,7-5,1,0,4,0,7,4,1,2,1,3,2,6,2-1,7,0,13,3,19,8,12,24,16,37,21,6,2,13,4,19,3,0,4,0,7,0,11-1,0-3,0-4,0-39-3-61,6-64,25h0c0,7,1,13,6,19,0,19,18,28,36,29,22,2,62-4,74-25,0,0,0,0,0,0,7,4,15,4,24,4,3,14,3,3,17,36,2,0,4,2,7,2,4,11,12,17,25,18,8,1,18-4,21-13,8-14,12-4,6-6-2-7-5-13-9-17,14-4,25-17,31-28h0c5-1,11-23,5-36,7-12,11-26,12-42,0-5-4-1-9-11-6,0-1,4-11,9,0,11-3,21-7,29-15-6-33,3-43,16-7,9-14,21-16,32-1,0-2,0-3,0-11-3-22-2-32,1-3,1-6,2-8,3,0,0,0-1,0-1,0-2-2-4-3-5,17-7,27-22,34-38ZM2957,1937c6-12,16-27,28-3,5-1,1,0,16,4-8,7-15,21-21,3-5,8-1,13-14,18-3-4-8-8-13-11,1-3,3-7,5-1ZM2892,1953c-2,0-4,0-6,0,0,0,0,0-1-1,0-2,3-8,4-1,3-4,5-6,7-8,2-1,3-1,4-1,0,0,0,0,0,0,1,0,2,2,2,3,0,6-4,14-11,17ZM2931,1992c-12-4-26-8-33-18-3-5-3-11-1-17,6-3,11-1,13-17,9-4,21,2,32,8,5,3,13,6,2,15,6,8,8,18,1,26,0,0,0,0,0,0,0,0,0,0-1,1,0,0,0,0,0,0,0,0-2,2-4,3-8,4-17,0-25-2ZM2886,2047c0-3-1-5-1-8,3-19,33-21,58-2,2,0,3,0,5,0,0,0,0,1,0,2-1,0-2,0-3,1-17,7-5,6-59,25ZM2987,206c-7,1-23,15-34,17-17,4-51,5-6-12-2-4-2-8-2-12,4-17,38-17,56-24,2-1,5-2,7-3,22-4,46,15,32,33ZM3024,2064c4,0,8-2,11-3,0,1,0,3,0,4,1,1,2,21,4,31-13-4-13-16-15-32ZM3089,2049c5,19,2,48-1,61-3,3-8,5-12,5-1,0-15-5-18-11-4-7-5-18-5-27-1-13-1-11-2-18,2,0,4-1,6-2,11-4,24-15,27-26,2,0,3,0,5,0,4,4,8,1,1,18ZM3068,1971c9-11,27-2,4-12,0,0,2,0,2,0,7-11,1-23,1-36,0-3,3-4,5-3,1,0,2,2,2,4,0,15-5,29-13,41,0,0,0,1,0,2,7,11,2,21-3,33-6,1-17,23-31,26-3,0-5,0-7,0,0-4-3-9-6-12-4-4-9-8-14-11,0-11,8-22,15-31ZM3007,2044c1-2,2-6,2-6,2-9,1-2-2-29,3-1,5-2,8-3,16-6,41-1,5,13,0,1,2,3,2,4,0,2,1,4,0,7-2,9-14,18-23,21-15,6-34,12-48,4,4-3,7-7,1-11ZM2998,2047c-1-18-24-3-43-27,0,0,0-1,0-2h0c0-5,0-11,0-16,5-2,1-5,13-9,8,6,18,8,27,6,3,6,4,8,6,13,3,11,4,26-4,35ZM2998,1991c-1,4-19,2-27-4,2-6,2-14-3-22,4-5,11-11,16-19,6-8,1-18,17-25,7-8,14-8,23-2,17,13,6,37-3,51-5,9-14,18-24,22Z"/><path class="cls-2" d="M2281,29l13,13,113,113c0,0,2,0,3,0l19-19c1-1,1-3,0-3l-113-113-13-13-113-113c0,0-2,0-3,0l-19,19c-1,1-1,3,0,3l113,113ZM2457,454l11-11c1-1,3-1,3,0l67,67c0,0,0,2,0,3l-11,11c-1,1-3,1-3,0l-67-67c0,0,0-2,0-3ZM2176,173l11-11c1-1,3-1,3,0l67,67c0,0,0,2,0,3l-11,11c-1,1-3,1-3,0l-67-67c0,0,0-2,0-3Z"/><path class="cls-2" d="M3719,1682l-13-13-113-113c0,0-2,0-3,0l-19,19c-1,1-1,3,0,3l113,113,13,13,113,113c0,0,2,0,3,0l19-19c1-1,1-3,0-3l-113-113ZM3543,1518l-11,11c-1,1-3,1-3,0l-67-67c0,0,0-2,0-3l11-11c1-1,3-1,3,0l67,67c0,0,0,2,0,3ZM3824,1799l-11,11c-1,1-3,1-3,0l-67-67c0,0,0-2,0-3l11-11c1-1,3-1,3,0l67,67c0,0,0,2,0,3Z"/><path class="cls-2" d="M2527,1441c-1-1-3-1-3,0l-113,113-13,13-113,113c0,0,0,2,0,3l19,19c1,1,3,1,3,0l113-113,13-13,113-113c0,0,0-2,0-3l-19-19ZM2258,1743l-67,67c0,0-2,0-3,0l-11-11c-1-1-1-3,0-3l67-67c0,0,2,0,3,0l11,11c1,1,1,3,0,3ZM2539,1462l-67,67c0,0-2,0-3,0l-11-11c-1-1-1-3,0-3l67-67c0,0,2,0,3,0l11,11c1,1,1,3,0,3Z"/><path class="cls-2" d="M3812,155c-1-1-3-1-3,0l-113,113-13,13-113,113c0,0,0,2,0,3l19,19c1,1,3,1,3,0l113-113,13-13,113-113c0,0,0-2,0-3l-19-19ZM3543,457l-67,67c0,0-2,0-3,0l-11-11c-1-1-1-3,0-3l67-67c0,0,2,0,3,0l11,11c1,1,1,3,0,3ZM3825,176l-67,67c0,0-2,0-3,0l-11-11c-1-1-1-3,0-3l67-67c0,0,2,0,3,0l11,11c1,1,1,3,0,3Z"/><path class="cls-2" d="M2281,2276l13,13,113,113c0,0,2,0,3,0l19-19c1-1,1-3,0-3l-113-113-13-13-113-113c0,0-2,0-3,0l-19,19c-1,1-1,3,0,3l113,113ZM2457,244l11-11c1-1,3-1,3,0l67,67c0,0,0,2,0,3l-11,11c-1,1-3,1-3,0l-67-67c0,0,0-2,0-3ZM2176,2159l11-11c1-1,3-1,3,0l67,67c0,0,0,2,0,3l-11,11c-1,1-3,1-3,0l-67-67c0,0,0-2,0-3Z"/><path class="cls-2" d="M3719,3668l-13-13-113-113c0,0-2,0-3,0l-19,19c-1,1-1,3,0,3l113,113,13,13,113,113c0,0,2,0,3,0l19-19c1-1,1-3,0-3l-113-113ZM3543,3504l-11,11c-1,1-3,1-3,0l-67-67c0,0,0-2,0-3l11-11c1-1,3-1,3,0l67,67c0,0,0,2,0,3ZM3824,3786l-11,11c-1,1-3,1-3,0l-67-67c0,0,0-2,0-3l11-11c1-1,3-1,3,0l67,67c0,0,0,2,0,3Z"/><path class="cls-2" d="M2527,3427c-1-1-3-1-3,0l-113,113-13,13-113,113c0,0,0,2,0,3l19,19c1,1,3,1,3,0l113-113,13-13,113-113c0,0,0-2,0-3l-19-19ZM2258,373l-67,67c0,0-2,0-3,0l-11-11c-1-1-1-3,0-3l67-67c0,0,2,0,3,0l11,11c1,1,1,3,0,3ZM2539,3448l-67,67c0,0-2,0-3,0l-11-11c-1-1-1-3,0-3l67-67c0,0,2,0,3,0l11,11c1,1,1,3,0,3Z"/><path class="cls-2" d="M3812,2141c-1-1-3-1-3,0l-113,113-13,13-113,113c0,0,0,2,0,3l19,19c1,1,3,1,3,0l113-113,13-13,113-113c0,0,0-2,0-3l-19-19ZM3543,2444l-67,67c0,0-2,0-3,0l-11-11c-1-1-1-3,0-3l67-67c0,0,2,0,3,0l11,11c1,1,1,3,0,3ZM3825,2162l-67,67c0,0-2,0-3,0l-11-11c-1-1-1-3,0-3l67-67c0,0,2,0,3,0l11,11c1,1,1,3,0,3Z"/><path class="cls-2" d="M3174,2819l-184-33c-3-9-59,5-61,3-5,59-16,118-31,177,8,3,16,7,23,11,3,15,59,34,9,49,1,5,2,9,3,13,3,1,5,4,4,8-1,3-4,5-7,4-43-14-82-4-122-59-1-5-2-9-3-13-9-3-17-5-25-7-2,0-3,0-5-1-5-1-9-2-14-3-2,0-4,0-6,0,0,0,0,0-1,0,0,0,0,0,0,0-3,0-6,0-9-1,0,0,0,0-1,0h0c-2,0-4,0-6,0,0,0,0,0,0,0,0,0,0,0,0,0-3,0-5,0-8,0,0,0,0,0,0,0,0,0,0,0-1,0,0,0,0,0,0,0,0,0,0,0,0,0,0,0,0,0,0,0,0,0,0,0,0,0,0,0,0,0,0,0,0,0,0,0,0,0,0,0,0,0,0,0,0,0,0,0,0,0,0,0,0,0,0,0,0,0,0,0,0,0,0,0,0,0,0,0-1,0-3,0-4,2,0,0,0,0,0,0,0,0,0,0,0,0,0,0,0,0,0,0,0,0-2,1-3,2,0,0,0,0,0,0,0,0,0,0,0,0,0,0,0,0,0,0,0,0,0,0,0,0,0,0,0,0,0,0,0,0,0,0,0,0,0,0,0,0,0,0,0,0,0,0,0,0,0,0,0,0,0,0,0,1-2,2-2,4,0,0,0,0,0,0,0,0,0,0,0,0,0,0,0,0,0,0,0,0,0,0,0,0-7,17,8,48,39,77,32,29,81,57,139,7,58,14,114,1,155,0,41-9,68-24,72-36,4-13-15-21-49-32-13-4-28-8-45-13,1-68,71-14,111-195,14-2-5-49-35-58ZM3115,3107c17,3,11,12,0,18-18,9-89,21-196-16-86-3-98-76-64-8,33-4,97,47,178,67,43,11,67,8,83,1Z"/><path class="cls-2" d="M2807,1007c5,3,11,6,16,7,5-1,15-18,24-23,12-7,27-11,42-12,8-26,0-59-8-84-12-34-47-69-82-62-2,0-4,0-4-3-6-3-3-61,6-91,2-6-3-13-1-12-4,0-7,3-8,7-1,35-13,71-5,106,0,1,0,3-1,4-25,19-23,47-2,78,5,28,21,68,49,85Z"/><path class="cls-2" d="M312,963c-6-14-15-35-21-59-6-24-9-51-18-73-1-24-27-3-52-25-5,15-45,79-37,121,4,25,17,54,38,72,19,17,42,22,66,13,0-15,7-34,25-5Z"/><path class="cls-2" d="M2851,116c14-29,13-25,19-39-4-3-8-7-11-1-21-18-43-54-4-83-4-1-8-2-12-4-14,7-26,17-38,33-28,39-45,111-29,149,4,1,13,18,24,21,23,7,39,2,52-1,15-14,26-38,35-57Z"/><path class="cls-2" d="M3133,1112c-4-1-8-2-13-3,0,1-1,2-2,4,2,2,4,4,6,6,33,3,112,57,116,107,4-5,8-11,1-18,9-48-59-78-117-95Z"/><path class="cls-2" d="M3312,952c-4-5-6-6-8-6,0,0,0,0-1,0-3,0-5,3-7,6-7,13-2,37,11,48,4,3,9,6,13,4,2,0,3-1,4-2,4-5,0-2-2-26-3-11-7-19-1-24Z"/><path class="cls-2" d="M3278,959c-18-17-51-13-8-9-14,2-36,3-59,18-21,14-34,35-24,59,0,0,0,0,0,0,0,1,1,3,2,4,0,0,0,0,0,0,1,2,3,6,7,11,14,15,38,16,59,17,31,0,67,4,93-13,12-9,17-23,17-38-12-13-18-33-15-5Z"/><path class="cls-2" d="M2907,1147c-8-5-16-1-24-16-2,3-3,6-4,9-12,22-21,47-35,69,34,2,43-27,63-61Z"/><path class="cls-2" d="M3113,113c-4-4-9-9-15-12-47-29-118-4-103,51,8,29,4,53,64,68,35,22,114,55,148,22,7-7,12-16,14-26,4-42-75-71-109-103Z"/><path class="cls-2" d="M2993,1034c-5-5-11-1-16-14-33-28-94-38-127-12-3,2-6,5-8,7-3,3-6,9-7,16-2,22,17,54,35,69,29,25,68,56,107,51-7-1-12-22-13-35,0-7,0-14,0-14,2-24,14-48,29-67Z"/><path class="cls-2" d="M3098,1028c-24,8-48,5-69-9-12,1-18,16-25,26-18,24-32,57-21,85,19-42,82-5,123-26,0-1,2-3,2-4h0c6-12,11-26,12-39-11-8-18-19-22-33Z"/><path class="cls-2" d="M3091,812c14,23,18,62,24,88,5,23,12,39,18,53,12-7,25-13,39-15,0-9-1-19-2-28-5-32-14-77-39-93-11-7-24-9-39-5Z"/></g></svg>