<?xml version="1.0" encoding="UTF-8"?>
<svg id="Layer_1" data-name="Layer 1" xmlns="http://www.w3.org/2000/svg" xmlns:xlink="http://www.w3.org/1999/xlink" viewBox="0 0 4000 4000">
  <defs>
    <style>
      .cls-1 {
        fill: none;
      }

      .cls-2 {
        fill: #00806a;
      }

      .cls-3 {
        clip-path: url(#clippath);
      }
    </style>
    <clipPath id="clippath">
      <rect class="cls-1" x=".07" y="-.16" width="4000" height="4000"/>
    </clipPath>
  </defs>
  <g class="cls-3">
    <g>
      <path class="cls-1" d="M242.72,2243.54c.79.79,2.34.52,3.47-.6l10.83-10.83c1.12-1.12,1.39-2.68.6-3.47l-67.42-67.42c-.79-.79-2.34-.52-3.47.6l-10.83,10.83c-1.12,1.12-1.39,2.68-.6,3.47l67.42,67.42Z"/>
      <path class="cls-1" d="M2960.51,1990.62s.01-.02.02-.02c.43-.4.83-.8,1.2-1.22,0,0,0,0,0,0,7.01-7.67,5.15-17.49-1.04-25.72-6.77-9.14-15.15-12.43-19.98-15.22-10.48-5.81-22.34-11.73-31.69-7.76-1.25,6.8-6.25,13.64-12.55,16.87-1.77,5.65-2.05,11.61,1.41,16.68,7.36,10.04,21.74,13.54,33.41,17.96,8.1,2.39,17.31,5.23,24.89,1.57,2.58-1.34,3.69-2.56,4.34-3.12Z"/>
      <path class="cls-1" d="M2948.57,2021.61c-.12-.55-.23-1.13-.32-1.7-1.78-.28-3.55-.49-5.28-.63-24.47-1.61-54.31.54-57.67,19.89-.22,3,.14,5.76,1.11,8.32,8.62-18.55,42.55-17.72,59.06-24.57,1-.43,2.05-.89,3.1-1.31Z"/>
      <path class="cls-1" d="M242.72,243.54c.79.79,2.34.52,3.47-.6l10.83-10.83c1.12-1.12,1.39-2.68.6-3.47l-67.42-67.42c-.79-.79-2.34-.52-3.47.6l-10.83,10.83c-1.12,1.12-1.39,2.68-.6,3.47l67.42,67.42Z"/>
      <path class="cls-1" d="M2902.95,1935.98c-.21-1.49-.82-2.71-1.84-3.45-.08-.06-.2-.15-.36-.22-.55-.25-1.63-.34-3.76,1.15-2.15,1.5-4.69,4.21-7.35,7.84-1.54,2.09-5.14,7.23-4.23,9.67.19.51.57.94,1.18,1.38,1.58,1.15,3.79.92,5.62.25,6.39-2.32,11.61-10.61,10.74-16.61Z"/>
      <path class="cls-1" d="M524.06,2524.89c.79.79,2.34.52,3.47-.6l10.83-10.83c1.12-1.12,1.39-2.68.6-3.47l-67.42-67.42c-.79-.79-2.34-.52-3.47.6l-10.83,10.83c-1.12,1.12-1.39,2.68-.6,3.47l67.42,67.42Z"/>
      <path class="cls-1" d="M81.06,961.69l-52.9-4.09c-10.23-.79-19.45-6.08-25.3-14.5l-30.27-43.58c-.24-.34-.53-.44-.79-.44-.11,0-.21.02-.31.04-.31.09-.69.31-.74.9l-4.09,52.9c-.79,10.23-6.08,19.45-14.5,25.3l-43.58,30.27c-.48.33-.48.78-.4,1.09.09.31.31.7.89.74l52.9,4.09c10.23.79,19.45,6.08,25.3,14.5l30.27,43.58c.34.48.78.48,1.09.4.31-.09.7-.31.74-.89l4.09-52.9c.79-10.23,6.08-19.45,14.5-25.3l43.58-30.27c.48-.33.48-.78.4-1.09-.08-.31-.31-.69-.89-.74Z"/>
      <path class="cls-1" d="M81.06,2961.69l-52.9-4.09c-10.23-.79-19.45-6.08-25.3-14.5l-30.27-43.58c-.24-.34-.53-.44-.79-.44-.11,0-.21.02-.31.04-.31.09-.69.31-.74.9l-4.09,52.9c-.79,10.23-6.08,19.45-14.5,25.3l-43.58,30.27c-.48.33-.48.78-.4,1.09.09.31.31.7.89.74l52.9,4.09c10.23.79,19.45,6.08,25.3,14.5l30.27,43.58c.34.48.78.48,1.09.4.31-.09.7-.31.74-.89l4.09-52.9c.79-10.23,6.08-19.45,14.5-25.3l43.58-30.27c.48-.34.48-.78.4-1.09-.08-.31-.31-.69-.89-.74Z"/>
      <path class="cls-1" d="M960.51,1990.62s.01-.02.02-.02c.43-.4.83-.8,1.2-1.22,0,0,0,0,0,0,7.01-7.67,5.15-17.49-1.04-25.72-6.77-9.14-15.15-12.43-19.98-15.22-10.48-5.81-22.34-11.73-31.69-7.76-1.25,6.8-6.25,13.64-12.55,16.87-1.77,5.65-2.05,11.61,1.41,16.68,7.36,10.04,21.74,13.54,33.41,17.96,8.1,2.39,17.31,5.23,24.89,1.57,2.58-1.34,3.69-2.56,4.34-3.12Z"/>
      <path class="cls-1" d="M902.95,1935.98c-.21-1.49-.82-2.71-1.84-3.45-.08-.06-.2-.15-.36-.22-.55-.25-1.63-.34-3.76,1.15-2.15,1.5-4.69,4.21-7.35,7.84-1.54,2.09-5.14,7.23-4.23,9.67.19.51.57.94,1.18,1.38,1.58,1.15,3.79.92,5.62.25,6.39-2.32,11.61-10.61,10.74-16.61Z"/>
      <path class="cls-1" d="M885.31,2039.17c-.22,3,.14,5.76,1.11,8.32,8.62-18.55,42.55-17.72,59.06-24.57,1-.43,2.05-.89,3.1-1.31-.12-.55-.23-1.13-.32-1.7-1.78-.28-3.55-.49-5.28-.63-24.47-1.61-54.31.54-57.67,19.89Z"/>
      <path class="cls-1" d="M2955.25,2026.19c-2.39.47-5.04,1.56-7.25,2.59-17.39,7.44-51.63,7.4-55.77,24.09-.42,4.02,0,8.16,1.8,11.81,8.55,17.39,42.97,15.78,59.54,12.15,11.26-2.43,26.57-7.13,33.81-17.14,13.48-18.71-10.47-37.94-32.14-33.5Z"/>
      <path class="cls-1" d="M3035.47,2060.83c-3.62,1.12-7.39,2.12-11.21,2.85,2.96,15.54,2.36,28.1,15.48,31.91-2.24-9.87-2.31-21.03-3.8-30.9-.15-1.12-.31-2.42-.47-3.86Z"/>
      <path class="cls-1" d="M964.81,1958.74c4.28-4.75,9.09-9.74,14.29-17.72,6.04-9.13,12.83-23.57,21.28-30.27-5.46-3.57-10.59-4.72-15.65-3.51-11.92,2.85-21.61,18.49-27.88,30.05-1.59,3.33-3.25,6.78-4.66,10.27,4.72,2.91,9.14,6.86,12.61,11.19Z"/>
      <path class="cls-1" d="M3068.2,2012.28c2.81,3.33,5.47,7.95,6.03,12.28,2.16.23,4.62.13,7.14-.39,13.31-2.73,24.8-15.47,30.61-25.59,5.78-11.62,10.43-22.03,3.42-32.55-.32-.47-.32-1.08,0-1.56,8.18-12.28,11.94-26.3,12.86-41.06.1-1.63-.84-3.1-2.26-3.73-2.4-1.07-5.2.56-5.37,3.25-.79,12.6-3.83,24.82-10.45,35.51-.4.65-1.27.84-1.92.42-12.42-7.88-30.34.6-39.79,12.03-6.76,8.54-14.07,20.03-14.64,30.88,5.61,2.53,10.6,6.03,14.35,10.51Z"/>
      <path class="cls-1" d="M3073.85,2030.82c-2.7,11.19-16.12,21.94-26.64,25.89-1.81.69-3.7,1.4-5.68,2.1.6,6.28.82,4.64,1.97,17.65.75,8.51,1.52,19.21,5.32,26.55,3.2,6.17,8.61,10.27,18.22,10.95,4.54.33,9.06-1.33,12.17-4.66,11.59-12.43,14.95-42.07,9.81-60.77-2.41-7.4-5.71-13.23-10.08-17.7-1.72.15-3.41.15-5.09,0Z"/>
      <path class="cls-1" d="M2964.81,1958.74c4.28-4.75,9.09-9.74,14.29-17.72,6.04-9.13,12.83-23.57,21.28-30.27-5.46-3.57-10.59-4.72-15.65-3.51-11.92,2.85-21.61,18.49-27.88,30.05-1.59,3.33-3.25,6.78-4.66,10.27,4.72,2.91,9.14,6.86,12.61,11.19Z"/>
      <path class="cls-1" d="M920.64,3998.83c1.43-4.13,4.97-8.11,8.4-10.8,4.59-3.62,10.18-6.05,16.18-7.38,1.64-10.73-3.19-23.47-8.08-33.2-6.93-13.1-22.76-25.05-36.52-19.84-.72.27-1.53-.08-1.79-.8-4.32-11.81-4.82-24.39-3.04-36.89.38-2.67-2.03-4.83-4.6-4.27-1.51.33-2.73,1.58-2.96,3.2-2.09,14.64-1.25,29.13,4.27,42.82.21.53.08,1.12-.32,1.52-9,8.89-6.55,20.02-3.25,32.57,3.64,11.09,12.31,25.89,24.79,31.26,2.37,1.02,4.76,1.62,6.92,1.83Z"/>
      <path class="cls-1" d="M981.84,4025.59c-.43-9.59,2.98-19.9,7.68-28.37-2.36-1.62-4.83-3.21-7.32-4.77-14.78-9.27-39.77-9.67-51.75,2.69-1.09,1.11-2.17,2.49-2.71,3.33-1.13,1.58-1.88,4.1-1.73,6.6.36,9.05,10.11,20.49,17.94,25.44,13.13,8.44,30.65,18.26,45.71,14.05-3.53-3.63-5.89-8.03-7.06-13.16-.59-2.61-.83-5.8-.76-5.81Z"/>
      <path class="cls-1" d="M1029.27,3982.4c-1.07-5.88.72-14.07,7.15-21.36-3.1-5.34-8.14-13.25-11.77-22.3-3.92-9.43-6.47-19.73-11.56-28.32-5.4-9.15-12.62-10.49-22.4-6.77-19.2,8.99-13.5,34.49-7.76,50.79,3.15,9.95,10.12,20.73,19.28,26.69,8.64,5.66,17.91,6.19,27.07,1.28Z"/>
      <path class="cls-1" d="M1038.75,4018.5c.25-.61.51-1.23.74-1.89h0c1.85-5.1,2.83-10.86,2.56-16.25-4.88-2.58-8.46-6.65-10.8-11.78-9.18,4.67-19.15,4.64-28.12.57-4.32,4.83-6.13,7.41-8.49,11.72-5.74,10.54-9.6,24.91-3.55,35.27,5.17-17.81,29.82-24.95,47.67-17.64Z"/>
      <path class="cls-1" d="M527.53,3447.72c-1.12-1.12-2.68-1.39-3.47-.6l-67.42,67.42c-.79.79-.52,2.34.6,3.47l10.83,10.83c1.12,1.12,2.68,1.39,3.47.6l67.42-67.42c.79-.79.52-2.34-.6-3.47l-10.83-10.83Z"/>
      <path class="cls-1" d="M246.18,3729.06c-1.12-1.12-2.68-1.39-3.47-.6l-67.42,67.42c-.79.79-.52,2.34.6,3.47l10.83,10.83c1.12,1.12,2.68,1.39,3.47.6l67.42-67.42c.79-.79.52-2.34-.6-3.47l-10.83-10.83Z"/>
      <path class="cls-1" d="M3909.08,1010.32l52.9,4.09c10.23.79,19.45,6.08,25.3,14.5l30.27,43.58c.33.48.78.48,1.09.4.31-.09.7-.31.74-.89l4.09-52.9c.79-10.23,6.08-19.45,14.5-25.3l43.58-30.27c.48-.33.48-.78.4-1.09-.08-.31-.31-.69-.89-.74l-52.9-4.09c-10.23-.79-19.45-6.08-25.3-14.5l-30.27-43.58c-.24-.34-.53-.44-.79-.44-.11,0-.21.02-.31.04-.31.09-.69.31-.74.9l-4.09,52.9c-.79,10.23-6.08,19.45-14.5,25.3l-43.58,30.27c-.48.33-.48.78-.4,1.09.09.31.31.7.89.74Z"/>
      <path class="cls-1" d="M1041.13,3956.56c4.28-3.53,9.41-6.5,14.62-8.4-.67-3.71-1.59-7.42-2.48-11-3.8-12.58-10.12-29.87-21.21-35.07-4.72-2.21-9.97-2.13-16.04.26,6.92,8.28,10.64,23.79,14.7,33.96,3.48,8.87,7.18,14.73,10.41,20.25Z"/>
      <path class="cls-1" d="M246.18,1729.06c-1.12-1.12-2.68-1.39-3.47-.6l-67.42,67.42c-.79.79-.52,2.34.6,3.47l10.83,10.83c1.12,1.12,2.68,1.39,3.47.6l67.42-67.42c.79-.79.52-2.34-.6-3.47l-10.83-10.83Z"/>
      <path class="cls-1" d="M527.53,1447.72c-1.12-1.12-2.68-1.39-3.47-.6l-67.42,67.42c-.79.79-.52,2.34.6,3.47l10.83,10.83c1.12,1.12,2.68,1.39,3.47.6l67.42-67.42c.79-.79.52-2.34-.6-3.47l-10.83-10.83Z"/>
      <path class="cls-1" d="M524.06,524.89c.79.79,2.34.52,3.47-.6l10.83-10.83c1.12-1.12,1.39-2.68.6-3.47l-67.42-67.42c-.79-.79-2.34-.52-3.47.6l-10.83,10.83c-1.12,1.12-1.39,2.68-.6,3.47l67.42,67.42Z"/>
      <path class="cls-1" d="M945.72,38.99c-1.79-1.08-3.5-2.16-5.13-3.2-9.51-6-20.47-19.25-20.84-30.75-1.67-.18-3.34-.53-4.99-1.03-5.18,3.49-9.59,8.53-13.45,15.29-8.81,17.27-11.54,46.97-2.71,61.5,2.37,3.89,6.45,6.43,10.97,7.03,9.55,1.28,15.68-1.64,20.06-7.03,5.21-6.42,8.13-16.74,10.59-24.92,3.76-12.51,3.64-10.85,5.5-16.88Z"/>
      <path class="cls-1" d="M2950.02,45.88c-3.46,9.36-5.79,20.27-9.99,29.49,13.62-1.07,15.58-13.5,21.62-28.11-3.59-1.49-7.08-3.23-10.4-5.06-.44,1.38-.86,2.61-1.24,3.68Z"/>
      <path class="cls-1" d="M1043.4,28.55c-1.95-1.46-4.33-3.06-6.57-4.01-20.32-8.74-47.67,5.24-38.27,26.29,5.06,11.27,19.1,18.98,29.64,23.64,15.49,6.91,48.87,15.46,60.77.17,2.51-3.21,3.75-7.18,4.16-11.2-.67-17.18-34.2-24.08-49.73-34.89Z"/>
      <path class="cls-1" d="M2242.72,243.54c.79.79,2.34.52,3.47-.6l10.83-10.83c1.12-1.12,1.39-2.68.6-3.47l-67.42-67.42c-.79-.79-2.34-.52-3.47.6l-10.83,10.83c-1.12,1.12-1.39,2.68-.6,3.47l67.42,67.42Z"/>
      <path class="cls-1" d="M1044.29,21.41c.94.62,1.88,1.28,2.77,1.91,14.78,10.05,48.17,16.12,52.85,36.03,1.47-2.3,2.39-4.93,2.78-7.92.63-19.63-28.16-27.78-52.44-31.17-1.72-.22-3.49-.36-5.29-.45-.21.54-.43,1.08-.66,1.6Z"/>
      <path class="cls-1" d="M950.02,45.88c-3.46,9.36-5.79,20.27-9.99,29.49,13.62-1.07,15.58-13.5,21.62-28.11-3.59-1.49-7.08-3.23-10.4-5.06-.44,1.38-.86,2.61-1.24,3.68Z"/>
      <path class="cls-1" d="M2991.08,36.15c5.17-17.81,29.82-24.95,47.67-17.64.25-.61.51-1.23.74-1.89h0c1.85-5.1,2.83-10.86,2.56-16.25-4.88-2.58-8.46-6.65-10.8-11.78-9.18,4.67-19.15,4.64-28.12.57-4.32,4.83-6.13,7.41-8.49,11.72-5.74,10.54-9.6,24.91-3.55,35.27Z"/>
      <path class="cls-1" d="M2524.06,524.89c.79.79,2.34.52,3.47-.6l10.83-10.83c1.12-1.12,1.39-2.68.6-3.47l-67.42-67.42c-.79-.79-2.34-.52-3.47.6l-10.83,10.83c-1.12,1.12-1.39,2.68-.6,3.47l67.42,67.42Z"/>
      <path class="cls-1" d="M2927.74-1.52c-1.13,1.58-1.88,4.1-1.73,6.6.36,9.05,10.11,20.49,17.94,25.44,13.13,8.44,30.65,18.26,45.71,14.05-3.53-3.63-5.89-8.03-7.06-13.16-.59-2.61-.83-5.8-.76-5.81-.43-9.59,2.98-19.9,7.68-28.37-2.36-1.62-4.83-3.21-7.32-4.77-14.78-9.27-39.77-9.67-51.75,2.69-1.09,1.11-2.17,2.49-2.71,3.33Z"/>
      <path class="cls-1" d="M3043.4,28.55c-1.95-1.46-4.33-3.06-6.57-4.01-20.32-8.74-47.67,5.24-38.27,26.29,5.06,11.27,19.1,18.98,29.64,23.64,15.49,6.91,48.87,15.46,60.77.17,2.51-3.21,3.75-7.18,4.16-11.2-.67-17.18-34.2-24.08-49.73-34.89Z"/>
      <path class="cls-1" d="M3044.29,21.41c.94.62,1.88,1.28,2.77,1.91,14.78,10.05,48.17,16.12,52.85,36.03,1.47-2.3,2.39-4.93,2.78-7.92.63-19.63-28.16-27.78-52.44-31.17-1.72-.22-3.49-.36-5.29-.45-.21.54-.43,1.08-.66,1.6Z"/>
      <path class="cls-1" d="M995.43,1998.37c-9.61,2.17-19.38.18-27.42-6.26-3.34,4.54-7.66,7.81-12.96,9.35-1.36,5.22-1.57,11.06-.79,16.42h0c.1.7.22,1.36.34,2.01,18.95-3.54,41.65,8.45,43.1,26.94,8.03-8.92,7.16-23.78,3.68-35.26-1.44-4.7-2.69-7.59-5.94-13.2Z"/>
      <path class="cls-1" d="M1035.47,2060.83c-3.62,1.12-7.39,2.12-11.21,2.85,2.96,15.54,2.36,28.1,15.48,31.91-2.24-9.87-2.31-21.03-3.8-30.9-.15-1.12-.31-2.42-.47-3.86Z"/>
      <path class="cls-1" d="M1073.85,2030.82c-2.7,11.19-16.12,21.94-26.64,25.89-1.81.69-3.7,1.4-5.68,2.1.6,6.28.82,4.64,1.97,17.65.75,8.51,1.52,19.21,5.32,26.55,3.2,6.17,8.61,10.27,18.22,10.95,4.54.33,9.06-1.33,12.17-4.66,11.59-12.43,14.95-42.07,9.81-60.77-2.41-7.4-5.71-13.23-10.08-17.7-1.72.15-3.41.15-5.09,0Z"/>
      <path class="cls-1" d="M2997.38,2055.36c13.89,7.18,33.04,1.11,47.61-4.49,8.67-3.26,20.54-12.48,22.72-21.27.66-2.41.43-5.04-.35-6.81-.35-.93-1.14-2.5-1.98-3.81-9.22-14.54-33.79-19.21-50.13-13.13-2.76,1.02-5.49,2.08-8.14,3.19,2.88,9.24,4.14,20.03,1.77,29.33.06.03-.82,3.1-1.92,5.54-2.18,4.79-5.39,8.62-9.58,11.46Z"/>
      <path class="cls-1" d="M955.25,2026.19c-2.39.47-5.04,1.56-7.25,2.59-17.39,7.44-51.63,7.4-55.77,24.09-.42,4.02,0,8.16,1.8,11.81,8.55,17.39,42.97,15.78,59.54,12.15,11.26-2.43,26.57-7.13,33.81-17.14,13.48-18.71-10.47-37.94-32.14-33.5Z"/>
      <path class="cls-1" d="M968.52,1964.09c4.82,8.45,4.91,16.83,2.67,22.37,7.97,6.66,17.16,8.03,26.77,4.23,10.18-3.98,19.19-13.12,24.29-22.23,8.92-14.79,19.68-38.61,2.69-51.31-8.83-5.62-16.16-5.77-23.31,2.09-6.73,7.38-11.31,16.95-17.07,25.39-5.39,8.13-11.93,14.84-16.05,19.45Z"/>
      <path class="cls-1" d="M997.38,2055.36c13.89,7.18,33.04,1.11,47.61-4.49,8.67-3.26,20.54-12.48,22.72-21.27.66-2.41.43-5.04-.35-6.81-.35-.93-1.14-2.5-1.98-3.81-9.22-14.54-33.79-19.21-50.13-13.13-2.76,1.02-5.49,2.08-8.14,3.19,2.88,9.24,4.14,20.03,1.77,29.33.06.03-.82,3.1-1.92,5.54-2.18,4.79-5.39,8.62-9.58,11.46Z"/>
      <path class="cls-1" d="M1068.2,2012.28c2.81,3.33,5.47,7.95,6.03,12.28,2.16.23,4.62.13,7.14-.39,13.31-2.73,24.8-15.47,30.61-25.59,5.78-11.62,10.43-22.03,3.42-32.55-.32-.47-.32-1.08,0-1.56,8.18-12.28,11.94-26.3,12.86-41.06.1-1.63-.84-3.1-2.26-3.73-2.4-1.07-5.2.56-5.37,3.25-.79,12.6-3.83,24.82-10.45,35.51-.4.65-1.27.84-1.92.42-12.42-7.88-30.34.6-39.79,12.03-6.76,8.54-14.07,20.03-14.64,30.88,5.61,2.53,10.6,6.03,14.35,10.51Z"/>
      <path class="cls-1" d="M927.74-1.52c-1.13,1.58-1.88,4.1-1.73,6.6.36,9.05,10.11,20.49,17.94,25.44,13.13,8.44,30.65,18.26,45.71,14.05-3.53-3.63-5.89-8.03-7.06-13.16-.59-2.61-.83-5.8-.76-5.81-.43-9.59,2.98-19.9,7.68-28.37-2.36-1.62-4.83-3.21-7.32-4.77-14.78-9.27-39.77-9.67-51.75,2.69-1.09,1.11-2.17,2.49-2.71,3.33Z"/>
      <path class="cls-1" d="M991.08,36.15c5.17-17.81,29.82-24.95,47.67-17.64.25-.61.51-1.23.74-1.89h0c1.85-5.1,2.83-10.86,2.56-16.25-4.88-2.58-8.46-6.65-10.8-11.78-9.18,4.67-19.15,4.64-28.12.57-4.32,4.83-6.13,7.41-8.49,11.72-5.74,10.54-9.6,24.91-3.55,35.27Z"/>
      <path class="cls-1" d="M2995.43,1998.37c-9.61,2.17-19.38.18-27.42-6.26-3.34,4.54-7.66,7.81-12.96,9.35-1.36,5.22-1.57,11.06-.79,16.42h0c.1.7.22,1.36.34,2.01,18.95-3.54,41.65,8.45,43.1,26.94,8.03-8.92,7.16-23.78,3.68-35.26-1.44-4.7-2.69-7.59-5.94-13.2Z"/>
      <path class="cls-1" d="M3024.94,1917.15c-8.83-5.62-16.16-5.77-23.31,2.09-6.73,7.38-11.31,16.95-17.07,25.39-5.39,8.13-11.93,14.84-16.05,19.45,4.82,8.45,4.91,16.83,2.67,22.37,7.97,6.66,17.16,8.03,26.77,4.23,10.18-3.98,19.19-13.12,24.29-22.23,8.92-14.79,19.68-38.61,2.69-51.31Z"/>
      <path class="cls-1" d="M2945.72,38.99c-1.79-1.08-3.5-2.16-5.13-3.2-9.51-6-20.47-19.25-20.84-30.75-1.67-.18-3.34-.53-4.99-1.03-5.18,3.49-9.59,8.53-13.45,15.29-8.81,17.27-11.54,46.97-2.71,61.5,2.37,3.89,6.45,6.43,10.97,7.03,9.55,1.28,15.68-1.64,20.06-7.03,5.21-6.42,8.13-16.74,10.59-24.92,3.76-12.51,3.64-10.85,5.5-16.88Z"/>
      <path class="cls-1" d="M918.54,1122.87c107.47,37.32,178.06,24.81,196.5,15.95,11.39-5.47,17.77-15.34.35-17.92-15.21-2.26-39.91.16-82.59-10.43-81.38-20.19-144.69-71.48-177.96-67.4-33.91,4.15-22.01,50.03,63.71,79.8Z"/>
      <path class="cls-1" d="M1112.67,3945.54c-1.79-1.89-2.86-2.01-3.45-1.89-.17.04-.3.1-.4.14-1.15.53-1.99,1.6-2.5,3.01-2.07,5.7,1.36,14.88,7.15,18.44,1.66,1.03,3.77,1.7,5.55.9.69-.31,1.14-.65,1.43-1.12,1.39-2.21-1.1-7.97-2.18-10.33-1.86-4.09-3.8-7.26-5.6-9.16Z"/>
      <path class="cls-1" d="M2981.84,4025.59c-.43-9.59,2.98-19.9,7.68-28.37-2.36-1.62-4.83-3.21-7.32-4.77-14.78-9.27-39.77-9.67-51.75,2.69-1.09,1.11-2.17,2.49-2.71,3.33-1.13,1.58-1.88,4.1-1.73,6.6.36,9.05,10.11,20.49,17.94,25.44,13.13,8.44,30.65,18.26,45.71,14.05-3.53-3.63-5.89-8.03-7.06-13.16-.59-2.61-.83-5.8-.76-5.81Z"/>
      <path class="cls-1" d="M3112.67,3945.54c-1.79-1.89-2.86-2.01-3.45-1.89-.17.04-.3.1-.4.14-1.15.53-1.99,1.6-2.5,3.01-2.07,5.7,1.36,14.88,7.15,18.44,1.66,1.03,3.77,1.7,5.55.9.69-.31,1.14-.65,1.43-1.12,1.39-2.21-1.1-7.97-2.18-10.33-1.86-4.09-3.8-7.26-5.6-9.16Z"/>
      <path class="cls-1" d="M3038.75,4018.5c.25-.61.51-1.23.74-1.89h0c1.85-5.1,2.83-10.86,2.56-16.25-4.88-2.58-8.46-6.65-10.8-11.78-9.18,4.67-19.15,4.64-28.12.57-4.32,4.83-6.13,7.41-8.49,11.72-5.74,10.54-9.6,24.91-3.55,35.27,5.17-17.81,29.82-24.95,47.67-17.64Z"/>
      <path class="cls-1" d="M3099.45,3950.17c-8.36-5.78-21.17-2.39-32.61,1.18-5.3,1.76-14.16,3.28-22.65,10.86-7.74,6.81-11.55,16.05-6.24,24.97,0,0,0,0,0,0,.28.49.59.96.92,1.44,0,0,.01.02.01.03.52.68,1.36,2.1,3.61,3.93,6.67,5.13,16.28,4.21,24.69,3.51,12.33-1.96,27.12-2.47,36.36-10.81,4.42-4.26,5.35-10.16,4.77-16.05-5.52-4.44-9.02-12.15-8.87-19.07Z"/>
      <path class="cls-1" d="M2920.64,3998.83c1.43-4.13,4.97-8.11,8.4-10.8,4.59-3.62,10.18-6.05,16.18-7.38,1.64-10.73-3.19-23.47-8.08-33.2-6.93-13.1-22.76-25.05-36.52-19.84-.72.27-1.53-.08-1.79-.8-4.32-11.81-4.82-24.39-3.04-36.89.38-2.67-2.03-4.83-4.6-4.27-1.51.33-2.73,1.58-2.96,3.2-2.09,14.64-1.25,29.13,4.27,42.82.21.53.08,1.12-.32,1.52-9,8.89-6.55,20.02-3.25,32.57,3.64,11.09,12.31,25.89,24.79,31.26,2.37,1.02,4.76,1.62,6.92,1.83Z"/>
      <path class="cls-1" d="M2246.18,1729.06c-1.12-1.12-2.68-1.39-3.47-.6l-67.42,67.42c-.79.79-.52,2.34.6,3.47l10.83,10.83c1.12,1.12,2.68,1.39,3.47.6l67.42-67.42c.79-.79.52-2.34-.6-3.47l-10.83-10.83Z"/>
      <path class="cls-1" d="M2527.53,3433.88c-1.12-1.12-2.68-1.39-3.47-.6l-67.42,67.42c-.79.79-.52,2.34.6,3.47l10.83,10.83c1.12,1.12,2.68,1.39,3.47.6l67.42-67.42c.79-.79.52-2.34-.6-3.47l-10.83-10.83Z"/>
      <path class="cls-1" d="M1099.45,3950.17c-8.36-5.78-21.17-2.39-32.61,1.18-5.3,1.76-14.16,3.28-22.65,10.86-7.74,6.81-11.55,16.05-6.24,24.97,0,0,0,0,0,0,.28.49.59.96.92,1.44,0,0,.01.02.01.03.52.68,1.36,2.1,3.61,3.93,6.67,5.13,16.28,4.21,24.69,3.51,12.33-1.96,27.12-2.47,36.36-10.81,4.42-4.26,5.35-10.16,4.77-16.05-5.52-4.44-9.02-12.15-8.87-19.07Z"/>
      <path class="cls-1" d="M3029.27,3982.4c-1.07-5.88.72-14.07,7.15-21.36-3.1-5.34-8.14-13.25-11.78-22.3-3.92-9.43-6.47-19.73-11.56-28.32-5.4-9.15-12.62-10.49-22.4-6.77-19.2,8.99-13.5,34.49-7.76,50.79,3.15,9.95,10.12,20.73,19.28,26.69,8.64,5.66,17.91,6.19,27.07,1.28Z"/>
      <path class="cls-1" d="M3041.13,3956.56c4.28-3.53,9.41-6.5,14.62-8.4-.67-3.71-1.59-7.42-2.48-11-3.8-12.58-10.12-29.87-21.21-35.07-4.72-2.21-9.97-2.13-16.04.26,6.92,8.28,10.64,23.79,14.7,33.96,3.48,8.87,7.18,14.73,10.41,20.25Z"/>
      <path class="cls-1" d="M2246.18,3715.22c-1.12-1.12-2.68-1.39-3.47-.6l-67.42,67.42c-.79.79-.52,2.34.6,3.47l10.83,10.83c1.12,1.12,2.68,1.39,3.47.6l67.42-67.42c.79-.79.52-2.34-.6-3.47l-10.83-10.83Z"/>
      <path class="cls-1" d="M4081.06,2961.69l-52.9-4.09c-10.23-.79-19.45-6.08-25.3-14.5l-30.27-43.58c-.24-.34-.53-.44-.79-.44-.11,0-.21.02-.31.04-.31.09-.69.31-.74.9l-4.09,52.9c-.79,10.23-6.08,19.45-14.5,25.3l-43.58,30.27c-.48.33-.48.78-.4,1.09.09.31.31.7.89.74l52.9,4.09c10.23.79,19.45,6.08,25.3,14.5l30.27,43.58c.33.48.78.48,1.09.4.31-.09.7-.31.74-.89l4.09-52.9c.79-10.23,6.08-19.45,14.5-25.3l43.58-30.27c.48-.34.48-.78.4-1.09-.08-.31-.31-.69-.89-.74Z"/>
      <path class="cls-1" d="M3813.41,161.83c-1.12-1.12-2.68-1.39-3.47-.6l-67.42,67.42c-.79.79-.52,2.34.6,3.47l10.83,10.83c1.12,1.12,2.68,1.39,3.47.6l67.42-67.42c.79-.79.52-2.34-.6-3.47l-10.83-10.83Z"/>
      <path class="cls-1" d="M3532.07,443.18c-1.12-1.12-2.68-1.39-3.47-.6l-67.42,67.42c-.79.79-.52,2.34.6,3.47l10.83,10.83c1.12,1.12,2.68,1.39,3.47.6l67.42-67.42c.79-.79.52-2.34-.6-3.47l-10.83-10.83Z"/>
      <path class="cls-1" d="M3757.42,1728.46c-.79-.79-2.34-.52-3.47.6l-10.83,10.83c-1.12,1.12-1.39,2.68-.6,3.47l67.42,67.42c.79.79,2.34.52,3.47-.6l10.83-10.83c1.12-1.12,1.39-2.68.6-3.47l-67.42-67.42Z"/>
      <path class="cls-1" d="M3476.08,1447.11c-.79-.79-2.34-.52-3.47.6l-10.83,10.83c-1.12,1.12-1.39,2.68-.6,3.47l67.42,67.42c.79.79,2.34.52,3.47-.6l10.83-10.83c1.12-1.12,1.39-2.68.6-3.47l-67.42-67.42Z"/>
      <path class="cls-1" d="M3757.42,3714.62c-.79-.79-2.34-.52-3.47.6l-10.83,10.83c-1.12,1.12-1.39,2.68-.6,3.47l67.42,67.42c.79.79,2.34.52,3.47-.6l10.83-10.83c1.12-1.12,1.39-2.68.6-3.47l-67.42-67.42Z"/>
      <path class="cls-1" d="M2854.84,3029.23c-33.91,4.15-22.01,50.03,63.71,79.8,107.47,37.32,178.06,24.81,196.5,15.95,11.39-5.47,17.77-15.34.35-17.92-15.21-2.26-39.91.16-82.59-10.43-81.38-20.19-144.69-71.48-177.96-67.4Z"/>
      <path class="cls-1" d="M3476.08,3433.27c-.79-.79-2.34-.52-3.47.6l-10.83,10.83c-1.12,1.12-1.39,2.68-.6,3.47l67.42,67.42c.79.79,2.34.52,3.47-.6l10.83-10.83c1.12-1.12,1.39-2.68.6-3.47l-67.42-67.42Z"/>
      <path class="cls-1" d="M3532.07,2429.34c-1.12-1.12-2.68-1.39-3.47-.6l-67.42,67.42c-.79.79-.52,2.34.6,3.47l10.83,10.83c1.12,1.12,2.68,1.39,3.47.6l67.42-67.42c.79-.79.52-2.34-.6-3.47l-10.83-10.83Z"/>
      <path class="cls-1" d="M3813.41,2147.99c-1.12-1.12-2.68-1.39-3.47-.6l-67.42,67.42c-.79.79-.52,2.34.6,3.47l10.83,10.83c1.12,1.12,2.68,1.39,3.47.6l67.42-67.42c.79-.79.52-2.34-.6-3.47l-10.83-10.83Z"/>
      <path class="cls-1" d="M2527.53,1447.72c-1.12-1.12-2.68-1.39-3.47-.6l-67.42,67.42c-.79.79-.52,2.34.6,3.47l10.83,10.83c1.12,1.12,2.68,1.39,3.47.6l67.42-67.42c.79-.79.52-2.34-.6-3.47l-10.83-10.83Z"/>
      <path class="cls-1" d="M1476.08,3447.11c-.79-.79-2.34-.52-3.47.6l-10.83,10.83c-1.12,1.12-1.39,2.68-.6,3.47l67.42,67.42c.79.79,2.34.52,3.47-.6l10.83-10.83c1.12-1.12,1.39-2.68.6-3.47l-67.42-67.42Z"/>
      <path class="cls-1" d="M1813.41,161.83c-1.12-1.12-2.68-1.39-3.47-.6l-67.42,67.42c-.79.79-.52,2.34.6,3.47l10.83,10.83c1.12,1.12,2.68,1.39,3.47.6l67.42-67.42c.79-.79.52-2.34-.6-3.47l-10.83-10.83Z"/>
      <path class="cls-1" d="M2091.55,3008.49l-43.58-30.27c-8.43-5.85-13.71-15.08-14.5-25.3l-4.09-52.9c-.05-.59-.43-.81-.74-.9-.09-.02-.2-.04-.31-.04-.26,0-.55.1-.79.44l-30.27,43.58c-5.85,8.43-15.07,13.71-25.3,14.5l-52.9,4.09c-.58.05-.81.43-.89.74-.09.31-.09.76.4,1.09l43.58,30.27c8.43,5.85,13.71,15.07,14.5,25.3l4.09,52.9c.05.59.43.81.74.89.31.08.76.09,1.09-.4l30.27-43.58c5.85-8.43,15.07-13.71,25.3-14.5l52.9-4.09c.59-.05.81-.43.89-.74.08-.31.08-.76-.4-1.09Z"/>
      <path class="cls-1" d="M2091.55,1008.49l-43.58-30.27c-8.43-5.85-13.71-15.08-14.5-25.3l-4.09-52.9c-.05-.59-.43-.81-.74-.9-.09-.02-.2-.04-.31-.04-.26,0-.55.1-.79.44l-30.27,43.58c-5.85,8.43-15.07,13.71-25.3,14.5l-52.9,4.09c-.58.05-.81.43-.89.74-.09.31-.09.76.4,1.09l43.58,30.27c8.43,5.85,13.71,15.07,14.5,25.3l4.09,52.9c.05.59.43.81.74.89.31.08.76.09,1.09-.4l30.27-43.58c5.85-8.43,15.07-13.71,25.3-14.5l52.9-4.09c.59-.05.81-.43.89-.74.08-.31.08-.76-.4-1.09Z"/>
      <path class="cls-1" d="M1476.08,1447.11c-.79-.79-2.34-.52-3.47.6l-10.83,10.83c-1.12,1.12-1.39,2.68-.6,3.47l67.42,67.42c.79.79,2.34.52,3.47-.6l10.83-10.83c1.12-1.12,1.39-2.68.6-3.47l-67.42-67.42Z"/>
      <path class="cls-1" d="M1532.07,443.18c-1.12-1.12-2.68-1.39-3.47-.6l-67.42,67.42c-.79.79-.52,2.34.6,3.47l10.83,10.83c1.12,1.12,2.68,1.39,3.47.6l67.42-67.42c.79-.79.52-2.34-.6-3.47l-10.83-10.83Z"/>
      <path class="cls-1" d="M2242.72,2229.7c.79.79,2.34.52,3.47-.6l10.83-10.83c1.12-1.12,1.39-2.68.6-3.47l-67.42-67.42c-.79-.79-2.34-.52-3.47.6l-10.83,10.83c-1.12,1.12-1.39,2.68-.6,3.47l67.42,67.42Z"/>
      <path class="cls-1" d="M1757.42,3728.46c-.79-.79-2.34-.52-3.47.6l-10.83,10.83c-1.12,1.12-1.39,2.68-.6,3.47l67.42,67.42c.79.79,2.34.52,3.47-.6l10.83-10.83c1.12-1.12,1.39-2.68.6-3.47l-67.42-67.42Z"/>
      <path class="cls-1" d="M1757.42,1728.46c-.79-.79-2.34-.52-3.47.6l-10.83,10.83c-1.12,1.12-1.39,2.68-.6,3.47l67.42,67.42c.79.79,2.34.52,3.47-.6l10.83-10.83c1.12-1.12,1.39-2.68.6-3.47l-67.42-67.42Z"/>
      <path class="cls-1" d="M2524.06,2511.05c.79.79,2.34.52,3.47-.6l10.83-10.83c1.12-1.12,1.39-2.68.6-3.47l-67.42-67.42c-.79-.79-2.34-.52-3.47.6l-10.83,10.83c-1.12,1.12-1.39,2.68-.6,3.47l67.42,67.42Z"/>
      <path class="cls-1" d="M1813.41,2161.83c-1.12-1.12-2.68-1.39-3.47-.6l-67.42,67.42c-.79.79-.52,2.34.6,3.47l10.83,10.83c1.12,1.12,2.68,1.39,3.47.6l67.42-67.42c.79-.79.52-2.34-.6-3.47l-10.83-10.83Z"/>
      <path class="cls-1" d="M1532.07,2443.18c-1.12-1.12-2.68-1.39-3.47-.6l-67.42,67.42c-.79.79-.52,2.34.6,3.47l10.83,10.83c1.12,1.12,2.68,1.39,3.47.6l67.42-67.42c.79-.79.52-2.34-.6-3.47l-10.83-10.83Z"/>
      <path class="cls-2" d="M1117.21,3941.24c-4.69-4.95-8.9-4.08-10.98-3.13-2.24,1.03-3.96,2.77-5.1,4.99-10.18-5.16-23.8-1.95-36.2,2.15-1.05.35-2.12.68-3.18,1-.67-3.54-1.9-8.67-2.47-10.82-4.48-14.89-11.33-32.79-24.56-39-6.55-3.07-13.95-2.89-21.99.51-.58.28-1.19.63-1.64.9-6.43-4.32-14.4-4.45-23.21-1.15-18.39,8.12-20.15,27.31-16.22,44.73,4.01,17.51,10.97,34.4,25.88,44.6-1.35,1.55-2.62,3.11-3.84,4.62-.25.32-.67.93-.9,1.27-2.29-1.56-4.73-3.14-7.29-4.74-8.59-5.39-19.9-8.14-30.83-7.72-.97-.23-1.95-.41-2.95-.56.86-11.32-3.91-24.12-9.04-34.31-7.47-14.14-23.54-26.77-39.33-24.13-2.49-8.95-2.93-18.74-1.38-29.66.78-5.49-3.05-10.6-8.55-11.39-5.63-.79-10.62,3.19-11.39,8.55-2.26,15.88-1.1,30.07,3.57,43.13-9.27,11.38-5.63,25.19-2.7,36.34l.05.17c3.74,11.43,12.44,26.51,25.17,33.6-4.66,3.83-8.74,8.84-12.29,15.06-9.68,19.16-11.17,44.71-5.92,60.45,1.85,9.85,10.43,16.78,18.2,17.23,12.86,1.92,22.06-2.31,28.52-12.3,2.77.11,5.23-.11,7.43-.59,14.83-3.23,17.88-18.25,23.44-31.63,7.86,2.48,16.02,3.45,23.88,1.21,0,0,0,0,0,0,7.61,23.04,44.77,37.24,67.08,39.65,18.14,2.19,37.04-2.65,41.27-21.49,5.21-4.26,8.29-9.86,9.16-16.68l.03-.37c.7-19.26-19.29-32.29-57.86-37.67-1.35-.17-2.74-.3-4.16-.4.87-3.51,1.4-7.23,1.44-10.95,6.32,1.52,13.21,1.11,19.61.67,13.81-1.88,30.2-2.41,40.93-12.74,4.99-4.85,6.91-11.34,6.93-18,2.04.28,4.02,0,5.81-.81,3.6-1.64,5.5-4.63,5.49-8.62,0-2.89-1-6.41-3.15-11.11-2.18-4.78-4.46-8.43-6.76-10.87ZM1032.07,3902.09c11.09,5.21,17.41,22.49,21.21,35.07.89,3.58,1.81,7.3,2.48,11-5.21,1.89-10.34,4.87-14.62,8.4-3.23-5.52-6.93-11.38-10.41-20.25-4.07-10.17-7.78-25.68-14.7-33.96,6.07-2.39,11.32-2.48,16.04-.26ZM982.92,3954.43c-5.74-16.29-11.44-41.8,7.76-50.79,9.78-3.71,17-2.38,22.4,6.77,5.1,8.59,7.64,18.89,11.56,28.32,3.63,9.05,8.67,16.95,11.77,22.3-6.43,7.3-8.22,15.48-7.15,21.36-9.16,4.91-18.44,4.38-27.07-1.28-9.16-5.96-16.13-16.74-19.28-26.69ZM888.94,3965.74c-3.31-12.55-5.75-23.69,3.25-32.57.4-.4.54-1,.32-1.52-5.52-13.68-6.36-28.17-4.27-42.82.23-1.62,1.45-2.87,2.96-3.2,2.57-.56,4.98,1.6,4.6,4.27-1.79,12.5-1.28,25.08,3.04,36.89.26.72,1.07,1.07,1.79.8,13.76-5.2,29.59,6.74,36.52,19.84,4.89,9.73,9.72,22.47,8.08,33.2-6.01,1.34-11.6,3.76-16.18,7.38-3.43,2.69-6.97,6.68-8.4,10.8-2.16-.21-4.55-.81-6.92-1.83-12.48-5.37-21.15-20.17-24.79-31.26ZM929.63,4080.8c-4.39,5.39-10.51,8.32-20.06,7.03-4.52-.6-8.6-3.14-10.97-7.03-8.83-14.52-6.11-44.23,2.71-61.5,3.86-6.75,8.28-11.8,13.45-15.29,1.65.49,3.31.84,4.99,1.03.37,11.5,11.33,24.75,20.84,30.75,1.63,1.05,3.34,2.12,5.13,3.2-1.86,6.03-1.74,4.37-5.5,16.88-2.46,8.18-5.38,18.5-10.59,24.92ZM940.03,4075.37c4.19-9.21,6.52-20.13,9.99-29.49.38-1.07.8-2.31,1.24-3.68,3.32,1.83,6.81,3.57,10.4,5.06-6.05,14.61-8,27.04-21.62,28.11ZM943.95,4030.52c-7.83-4.95-17.58-16.39-17.94-25.44-.15-2.5.6-5.02,1.73-6.6.53-.84,1.62-2.22,2.71-3.33,11.98-12.36,36.98-11.96,51.75-2.69,2.49,1.56,4.96,3.15,7.32,4.77-4.7,8.46-8.11,18.77-7.68,28.37-.07.01.17,3.2.76,5.81,1.17,5.13,3.53,9.54,7.06,13.16-15.06,4.22-32.58-5.61-45.71-14.05ZM991.08,4036.15c-6.06-10.36-2.19-24.73,3.55-35.27,2.37-4.31,4.17-6.89,8.49-11.72,8.97,4.07,18.94,4.1,28.12-.57,2.34,5.13,5.92,9.2,10.8,11.78.28,5.39-.71,11.15-2.56,16.24h0c-.23.66-.49,1.29-.74,1.9-17.84-7.3-42.49-.16-47.67,17.64ZM1088.96,4074.64c-11.9,15.3-45.28,6.75-60.77-.17-10.53-4.67-24.58-12.37-29.64-23.64-9.41-21.05,17.94-35.03,38.27-26.29,2.25.95,4.62,2.55,6.57,4.01,15.52,10.82,49.06,17.71,49.73,34.89-.4,4.02-1.64,7.99-4.16,11.2ZM1050.25,4020.26c24.28,3.39,53.07,11.54,52.44,31.17-.39,2.98-1.31,5.61-2.78,7.92-4.68-19.91-38.07-25.98-52.85-36.03-.89-.62-1.82-1.29-2.77-1.91.23-.52.45-1.06.66-1.6,1.8.09,3.58.24,5.29.45ZM1103.55,3985.28c-9.24,8.34-24.03,8.85-36.36,10.81-8.41.7-18.01,1.62-24.69-3.51-2.25-1.83-3.1-3.26-3.61-3.93,0,0-.01-.02-.01-.03-.34-.48-.65-.95-.92-1.44,0,0,0,0,0,0-5.31-8.93-1.5-18.17,6.24-24.97,8.49-7.58,17.35-9.1,22.65-10.86,11.44-3.57,24.25-6.95,32.61-1.18-.15,6.91,3.35,14.62,8.87,19.07.58,5.89-.34,11.79-4.77,16.05ZM1120.46,3965.03c-.29.46-.75.8-1.43,1.12-1.78.81-3.9.13-5.55-.9-5.79-3.57-9.22-12.74-7.15-18.44.51-1.41,1.35-2.48,2.5-3.01.09-.04.23-.11.4-.14.59-.13,1.66,0,3.45,1.89,1.8,1.9,3.74,5.07,5.6,9.16,1.08,2.36,3.57,8.12,2.18,10.33Z"/>
      <path class="cls-2" d="M3117.21,3941.24c-4.69-4.95-8.9-4.08-10.98-3.13-2.24,1.03-3.96,2.77-5.1,4.99-10.18-5.16-23.8-1.95-36.2,2.15-1.05.35-2.12.68-3.18,1-.67-3.54-1.9-8.67-2.47-10.82-4.48-14.89-11.33-32.79-24.56-39-6.55-3.07-13.95-2.89-21.99.51-.58.28-1.19.63-1.64.9-6.43-4.32-14.4-4.45-23.21-1.15-18.39,8.12-20.15,27.31-16.22,44.73,4.01,17.51,10.97,34.4,25.88,44.6-1.35,1.55-2.62,3.11-3.84,4.62-.25.32-.67.93-.9,1.27-2.29-1.56-4.73-3.14-7.29-4.74-8.59-5.39-19.9-8.14-30.83-7.72-.97-.23-1.95-.41-2.95-.56.86-11.32-3.91-24.12-9.04-34.31-7.47-14.14-23.54-26.77-39.33-24.13-2.49-8.95-2.93-18.74-1.38-29.66.78-5.49-3.05-10.6-8.55-11.39-5.63-.79-10.62,3.19-11.39,8.55-2.26,15.88-1.1,30.07,3.57,43.13-9.27,11.38-5.63,25.19-2.7,36.34l.05.17c3.74,11.43,12.44,26.51,25.17,33.6-4.66,3.83-8.74,8.84-12.29,15.06-9.68,19.16-11.17,44.71-5.92,60.45,1.85,9.85,10.43,16.78,18.2,17.23,12.86,1.92,22.06-2.31,28.52-12.3,2.77.11,5.23-.11,7.43-.59,14.83-3.23,17.88-18.25,23.44-31.63,7.86,2.48,16.02,3.45,23.88,1.21,0,0,0,0,0,0,7.61,23.04,44.77,37.24,67.08,39.65,18.14,2.19,37.04-2.65,41.27-21.49,5.21-4.26,8.29-9.86,9.16-16.68l.03-.37c.7-19.26-19.29-32.29-57.86-37.67-1.35-.17-2.74-.3-4.16-.4.87-3.51,1.4-7.23,1.44-10.95,6.32,1.52,13.21,1.11,19.61.67,13.81-1.88,30.2-2.41,40.93-12.74,4.99-4.85,6.91-11.34,6.93-18,2.04.28,4.02,0,5.81-.81,3.6-1.64,5.5-4.63,5.49-8.62,0-2.89-1-6.41-3.15-11.11-2.18-4.78-4.46-8.43-6.76-10.87ZM3032.07,3902.09c11.09,5.21,17.41,22.49,21.21,35.07.89,3.58,1.81,7.3,2.48,11-5.21,1.89-10.34,4.87-14.62,8.4-3.23-5.52-6.93-11.38-10.41-20.25-4.07-10.17-7.78-25.68-14.7-33.96,6.07-2.39,11.32-2.48,16.04-.26ZM2982.92,3954.43c-5.74-16.29-11.44-41.8,7.76-50.79,9.78-3.71,17-2.38,22.4,6.77,5.1,8.59,7.64,18.89,11.56,28.32,3.63,9.05,8.67,16.95,11.78,22.3-6.43,7.3-8.22,15.48-7.15,21.36-9.16,4.91-18.44,4.38-27.07-1.28-9.16-5.96-16.13-16.74-19.28-26.69ZM2888.94,3965.74c-3.31-12.55-5.75-23.69,3.25-32.57.41-.4.54-1,.32-1.52-5.52-13.68-6.36-28.17-4.27-42.82.23-1.62,1.45-2.87,2.96-3.2,2.57-.56,4.98,1.6,4.6,4.27-1.79,12.5-1.28,25.08,3.04,36.89.26.72,1.07,1.07,1.79.8,13.76-5.2,29.59,6.74,36.52,19.84,4.89,9.73,9.72,22.47,8.08,33.2-6.01,1.34-11.6,3.76-16.18,7.38-3.43,2.69-6.97,6.68-8.4,10.8-2.16-.21-4.55-.81-6.92-1.83-12.48-5.37-21.15-20.17-24.79-31.26ZM2929.63,4080.8c-4.39,5.39-10.51,8.32-20.06,7.03-4.52-.6-8.6-3.14-10.97-7.03-8.83-14.52-6.11-44.23,2.71-61.5,3.86-6.75,8.28-11.8,13.45-15.29,1.65.49,3.31.84,4.99,1.03.37,11.5,11.33,24.75,20.84,30.75,1.63,1.05,3.34,2.12,5.13,3.2-1.86,6.03-1.74,4.37-5.5,16.88-2.46,8.18-5.38,18.5-10.59,24.92ZM2940.03,4075.37c4.19-9.21,6.52-20.13,9.99-29.49.38-1.07.8-2.31,1.24-3.68,3.32,1.83,6.81,3.57,10.4,5.06-6.05,14.61-8,27.04-21.62,28.11ZM2943.95,4030.52c-7.83-4.95-17.58-16.39-17.94-25.44-.15-2.5.6-5.02,1.73-6.6.53-.84,1.62-2.22,2.71-3.33,11.98-12.36,36.98-11.96,51.75-2.69,2.49,1.56,4.96,3.15,7.32,4.77-4.7,8.46-8.11,18.77-7.68,28.37-.07.01.17,3.2.76,5.81,1.17,5.13,3.53,9.54,7.06,13.16-15.06,4.22-32.58-5.61-45.71-14.05ZM2991.08,4036.15c-6.06-10.36-2.19-24.73,3.55-35.27,2.37-4.31,4.17-6.89,8.49-11.72,8.97,4.07,18.94,4.1,28.12-.57,2.34,5.13,5.92,9.2,10.8,11.78.28,5.39-.71,11.15-2.56,16.24h0c-.23.66-.49,1.29-.74,1.9-17.84-7.3-42.49-.16-47.67,17.64ZM3088.96,4074.64c-11.9,15.3-45.28,6.75-60.77-.17-10.53-4.67-24.58-12.37-29.64-23.64-9.41-21.05,17.94-35.03,38.27-26.29,2.25.95,4.62,2.55,6.57,4.01,15.52,10.82,49.06,17.71,49.73,34.89-.41,4.02-1.64,7.99-4.16,11.2ZM3050.25,4020.26c24.28,3.39,53.07,11.54,52.44,31.17-.39,2.98-1.31,5.61-2.78,7.92-4.68-19.91-38.07-25.98-52.85-36.03-.89-.62-1.82-1.29-2.77-1.91.23-.52.45-1.06.66-1.6,1.8.09,3.58.24,5.29.45ZM3103.55,3985.28c-9.24,8.34-24.03,8.85-36.36,10.81-8.41.7-18.01,1.62-24.69-3.51-2.25-1.83-3.1-3.26-3.61-3.93,0,0-.01-.02-.01-.03-.34-.48-.65-.95-.92-1.44,0,0,0,0,0,0-5.31-8.93-1.5-18.17,6.24-24.97,8.49-7.58,17.35-9.1,22.65-10.86,11.44-3.57,24.25-6.95,32.61-1.18-.15,6.91,3.35,14.62,8.87,19.07.58,5.89-.34,11.79-4.77,16.05ZM3120.46,3965.03c-.29.46-.75.8-1.43,1.12-1.78.81-3.9.13-5.55-.9-5.79-3.57-9.22-12.74-7.15-18.44.51-1.41,1.35-2.48,2.5-3.01.09-.04.23-.11.4-.14.59-.13,1.66,0,3.45,1.89,1.8,1.9,3.74,5.07,5.6,9.16,1.08,2.36,3.57,8.12,2.18,10.33Z"/>
      <path class="cls-2" d="M3908.53,1017.46l52.9,4.09c8.07.62,15.35,4.8,19.97,11.45l30.27,43.58c1.56,2.25,4.04,3.52,6.66,3.52.72,0,1.46-.1,2.19-.29,3.38-.92,5.73-3.76,6-7.25l4.09-52.9c.62-8.07,4.8-15.35,11.45-19.97l43.58-30.27c2.87-2,4.14-5.47,3.22-8.85-.92-3.38-3.76-5.73-7.25-6l-52.9-4.09c-8.07-.62-15.35-4.8-19.97-11.45l-30.27-43.58c-2-2.87-5.47-4.14-8.85-3.22-3.38.92-5.74,3.76-6.01,7.25l-4.09,52.9c-.62,8.07-4.8,15.35-11.45,19.97l-43.58,30.27c-2.87,2-4.14,5.47-3.22,8.85.92,3.38,3.76,5.74,7.25,6ZM3908.59,1008.49l43.58-30.27c8.43-5.85,13.71-15.08,14.5-25.3l4.09-52.9c.05-.59.43-.81.74-.9.09-.02.2-.04.31-.04.26,0,.55.1.79.44l30.27,43.58c5.85,8.43,15.07,13.71,25.3,14.5l52.9,4.09c.58.05.81.43.89.74.09.31.09.76-.4,1.09l-43.58,30.27c-8.43,5.85-13.71,15.07-14.5,25.3l-4.09,52.9c-.05.59-.43.81-.74.89-.31.08-.76.09-1.09-.4l-30.27-43.58c-5.85-8.43-15.07-13.71-25.3-14.5l-52.9-4.09c-.59-.05-.81-.43-.89-.74-.08-.31-.08-.76.4-1.09Z"/>
      <path class="cls-2" d="M4081.61,2954.55l-52.9-4.09c-8.07-.62-15.35-4.8-19.97-11.45l-30.27-43.58c-2-2.87-5.47-4.14-8.85-3.22-3.38.92-5.74,3.76-6.01,7.25l-4.09,52.9c-.62,8.07-4.8,15.35-11.45,19.97l-43.58,30.27c-2.87,2-4.14,5.47-3.22,8.85.92,3.38,3.76,5.74,7.25,6l52.9,4.09c8.07.62,15.35,4.8,19.97,11.45l30.27,43.58c1.56,2.25,4.04,3.52,6.66,3.52.72,0,1.46-.1,2.19-.29,3.38-.92,5.73-3.76,6-7.25l4.09-52.9c.62-8.07,4.8-15.35,11.45-19.97l43.58-30.27c2.87-2,4.14-5.47,3.22-8.85-.92-3.38-3.76-5.73-7.25-6ZM4081.55,2963.52l-43.58,30.27c-8.43,5.85-13.71,15.07-14.5,25.3l-4.09,52.9c-.05.59-.43.81-.74.89-.31.08-.76.09-1.09-.4l-30.27-43.58c-5.85-8.43-15.07-13.71-25.3-14.5l-52.9-4.09c-.59-.05-.81-.43-.89-.74-.08-.31-.08-.76.4-1.09l43.58-30.27c8.43-5.85,13.71-15.08,14.5-25.3l4.09-52.9c.05-.59.43-.81.74-.9.09-.02.2-.04.31-.04.26,0,.55.1.79.44l30.27,43.58c5.85,8.43,15.07,13.71,25.3,14.5l52.9,4.09c.58.05.81.43.89.74.09.31.09.76-.4,1.09Z"/>
      <path class="cls-2" d="M935.71,3103.67c-8.23-4.91-16.15-10.42-23.61-16.07-1.57,3.2-3.03,6.07-4.34,8.55-11.81,21.64-21.4,47.48-34.93,68.51,33.67,2.24,42.89-27.43,62.88-60.99Z"/>
      <path class="cls-2" d="M1341.11,2908.92c-3.7-5.25-6.28-5.94-7.76-5.84-.43.03-.78.14-1.02.21-3,.88-5.44,3.2-7.19,6.47-7.1,13.2-1.98,36.85,10.89,47.63,3.69,3.1,8.62,5.51,13.25,4.17,1.79-.52,3.03-1.19,3.9-2.21,4.18-4.9.15-19.87-1.65-26.02-3.1-10.67-6.71-19.1-10.43-24.4Z"/>
      <path class="cls-2" d="M899.73,3077.78c-3.99-3.28-7.8-6.53-11.4-9.66-21.1-18.07-43.17-54.35-39.97-82.6-4.03-1.04-7.96-2.49-11.82-4.29-13.89,6.67-26.49,17.44-38.34,32.56-27.71,39.06-44.97,110.69-28.56,149.34,4.4,10.36,13.48,18.01,24.3,21.1,22.88,6.54,38.9,1.58,51.54-10.03,15.01-13.84,25.85-38.01,34.77-57.13,13.65-29.23,12.78-25.22,19.47-39.3Z"/>
      <path class="cls-2" d="M1142.17,3087.1c-4.25-4.26-9.48-9.02-14.63-12.14-46.56-28.61-118.39-4.21-102.91,50.6,8.35,29.36,39.92,53.2,64,68.36,35.4,22.42,113.93,55.23,148.46,22.09,7.29-6.94,11.74-16.2,14.16-25.88,4.5-42.23-75-71.05-109.08-103.02Z"/>
      <path class="cls-2" d="M1307.13,2915.53c-18.37-17.11-50.88-13.4-80.12-8.76-13.57,2.4-35.78,2.97-59.23,18.45-21.34,13.88-33.95,35.1-24.15,58.82-.02,0-.02.02-.02.02.5,1.29,1.09,2.56,1.75,3.85,0,.02.02.05.02.07,1.02,1.84,2.57,5.62,7.43,10.9,14.48,14.92,38.28,16.1,59.09,17.39,30.84-.39,67.16,3.64,92.73-13.45,12.33-8.83,16.7-22.93,17.38-37.52-11.9-12.83-17.71-32.92-14.87-49.76Z"/>
      <path class="cls-2" d="M1161.88,3069.29c-4.12-1.14-8.4-2.13-12.78-3-.7,1.25-1.44,2.49-2.19,3.68,2.09,1.85,4.13,3.81,6.08,5.65,32.54,29.84,111.98,56.59,116.32,106.92,4.41-5.1,7.6-11.21,9.61-18.36,8.55-47.74-58.91-77.95-117.05-94.89Z"/>
      <path class="cls-2" d="M1149.22,2919.61c-5.68-14.17-15.17-35.28-20.82-58.7-6.22-24.45-8.77-50.53-18.16-73.35-9.94-24.29-27.09-30.14-52.33-24.55-50.14,15.12-45.31,79.49-37.09,121.36,4.14,25.45,17.34,54.28,37.59,72.12,19.09,16.92,41.58,21.51,65.71,12.79-.51-14.75,6.78-34.12,25.1-49.66Z"/>
      <path class="cls-2" d="M1201.06,2895.04c-.32-9.3-1.25-18.71-2.13-27.78-4.79-32.11-14.07-76.61-39.32-93.29-10.74-7.1-23.62-8.76-39.3-5.08,13.96,22.71,17.51,61.94,23.82,88.24,5.34,22.93,12.29,38.57,18.21,53.21,11.71-7.11,25.32-12.54,38.73-15.31Z"/>
      <path class="cls-2" d="M1126.73,2985.09c-24.11,8.14-48.45,4.52-68.93-8.64-12.29,10.26-17.62,15.93-24.94,25.62-17.78,23.71-32.36,57.46-21.25,84.94,19-41.68,81.79-50.33,122.8-26.12.83-1.4,1.68-2.83,2.48-4.35v-.02c6.33-11.79,10.8-25.51,12.04-38.79-11.01-8.06-18.29-19.28-22.2-32.64Z"/>
      <path class="cls-2" d="M1021.68,2991.32c-5.2-4.8-10.65-9.56-16.19-14.27-32.8-27.93-93.76-37.84-127.45-11.89-3.05,2.33-6.2,5.31-7.81,7.18-3.32,3.46-6.06,9.36-6.57,15.52-2.36,22.24,17.4,53.68,34.77,68.57,29.08,25.3,68.39,55.57,106.7,50.64-7.32-10.12-11.53-21.72-12.55-34.69-.51-6.58.04-14.46.22-14.48,2.37-23.6,14.39-47.58,28.89-66.59Z"/>
      <path class="cls-2" d="M836.51,2963.73c5.42,3.34,11.05,5.65,16.25,6.94,4.96-9.58,15.03-18.05,24.37-23.41,12.5-7.21,27.03-11.14,42.19-12.27,7.83-25.65.58-58.5-7.9-84.03-12.27-34.5-46.7-69.34-82.19-61.53-1.85.41-3.7-.75-4.09-2.6-6.34-30.41-3.08-61.33,5.74-91.25,1.88-6.39-3.24-12.53-9.71-12.08-3.82.26-7.25,2.88-8.39,6.76-10.33,35.05-13.44,70.76-4.83,106.17.33,1.37-.2,2.78-1.34,3.61-25.16,18.51-23.16,46.59-19.55,78.45,4.95,28.41,20.84,67.68,49.44,85.26Z"/>
      <path class="cls-2" d="M882.92-32.58l.05.17c3.74,11.43,12.44,26.51,25.17,33.6-4.66,3.83-8.74,8.84-12.29,15.06-9.68,19.16-11.17,44.71-5.92,60.45,1.85,9.85,10.43,16.78,18.2,17.23,12.86,1.92,22.06-2.31,28.52-12.3,2.77.11,5.23-.11,7.43-.59,14.83-3.23,17.88-18.25,23.44-31.63,7.86,2.48,16.02,3.45,23.88,1.21,0,0,0,0,0,0,7.61,23.04,44.77,37.24,67.08,39.65,18.14,2.19,37.04-2.65,41.27-21.49,5.21-4.25,8.29-9.86,9.16-16.68l.03-.37c.7-19.27-19.29-32.29-57.86-37.67-1.35-.17-2.74-.3-4.16-.4.87-3.51,1.4-7.23,1.44-10.95,6.32,1.52,13.21,1.11,19.61.66,13.81-1.88,30.2-2.41,40.93-12.74,4.99-4.85,6.91-11.34,6.93-18,2.04.28,4.02,0,5.81-.81,3.6-1.64,5.5-4.63,5.49-8.62,0-2.89-1-6.41-3.15-11.11-2.18-4.78-4.46-8.43-6.76-10.87-4.69-4.95-8.9-4.08-10.98-3.13-2.24,1.03-3.96,2.77-5.1,4.99-10.18-5.16-23.8-1.95-36.2,2.15-1.05.35-2.12.68-3.18,1-.67-3.54-1.9-8.67-2.47-10.82-4.48-14.89-11.33-32.79-24.56-39-6.55-3.07-13.95-2.89-21.99.51-.58.28-1.19.63-1.64.9-6.43-4.32-14.4-4.45-23.21-1.15-18.39,8.12-20.15,27.31-16.22,44.73,4.01,17.51,10.97,34.4,25.88,44.6-1.35,1.55-2.62,3.11-3.84,4.62-.25.32-.67.93-.9,1.27-2.29-1.56-4.73-3.13-7.29-4.74-8.59-5.39-19.9-8.14-30.83-7.72-.97-.23-1.95-.41-2.95-.56.86-11.32-3.91-24.12-9.04-34.31-7.47-14.14-23.54-26.77-39.33-24.13-2.49-8.95-2.93-18.74-1.38-29.66.78-5.49-3.05-10.6-8.55-11.39-5.63-.79-10.62,3.19-11.39,8.55-2.26,15.88-1.1,30.07,3.57,43.13-9.27,11.38-5.63,25.19-2.7,36.34ZM929.63,80.8c-4.39,5.39-10.51,8.32-20.06,7.03-4.52-.6-8.6-3.14-10.97-7.03-8.83-14.52-6.11-44.23,2.71-61.5,3.86-6.75,8.28-11.8,13.45-15.29,1.65.49,3.31.84,4.99,1.03.37,11.5,11.33,24.75,20.84,30.75,1.63,1.05,3.34,2.12,5.13,3.2-1.86,6.03-1.74,4.37-5.5,16.88-2.46,8.18-5.38,18.5-10.59,24.92ZM940.03,75.37c4.19-9.21,6.52-20.13,9.99-29.49.38-1.07.8-2.31,1.24-3.68,3.32,1.83,6.81,3.57,10.4,5.06-6.05,14.61-8,27.04-21.62,28.11ZM1088.96,74.64c-11.9,15.3-45.28,6.75-60.77-.17-10.53-4.67-24.58-12.37-29.64-23.64-9.41-21.05,17.94-35.03,38.27-26.29,2.25.95,4.62,2.55,6.57,4.01,15.52,10.82,49.06,17.71,49.73,34.89-.4,4.02-1.64,7.99-4.16,11.2ZM1050.25,20.26c24.28,3.39,53.07,11.54,52.44,31.17-.39,2.98-1.31,5.62-2.78,7.92-4.68-19.91-38.07-25.98-52.85-36.03-.89-.62-1.82-1.29-2.77-1.91.23-.52.45-1.06.66-1.6,1.8.09,3.58.24,5.29.45ZM1106.32-53.2c.51-1.41,1.35-2.48,2.5-3.01.09-.04.23-.11.4-.14.59-.13,1.66,0,3.45,1.89,1.8,1.9,3.74,5.07,5.6,9.16,1.08,2.36,3.57,8.12,2.18,10.33-.29.46-.75.8-1.43,1.12-1.78.81-3.9.13-5.55-.9-5.79-3.57-9.22-12.74-7.15-18.44ZM1066.84-48.65c11.44-3.57,24.25-6.95,32.61-1.18-.15,6.91,3.35,14.62,8.87,19.07.58,5.89-.34,11.79-4.77,16.05-9.24,8.34-24.03,8.85-36.36,10.81-8.41.7-18.01,1.62-24.69-3.51-2.25-1.83-3.1-3.26-3.61-3.93,0,0-.01-.02-.01-.03-.34-.48-.65-.95-.92-1.44,0,0,0,0,0,0-5.31-8.93-1.5-18.17,6.24-24.97,8.49-7.58,17.35-9.1,22.65-10.86ZM1032.07-97.91c11.09,5.21,17.41,22.49,21.21,35.07.89,3.58,1.81,7.3,2.48,11-5.21,1.89-10.34,4.87-14.62,8.4-3.23-5.52-6.93-11.38-10.41-20.25-4.07-10.17-7.78-25.68-14.7-33.96,6.07-2.39,11.32-2.48,16.04-.26ZM982.92-45.57c-5.74-16.29-11.44-41.8,7.76-50.79,9.78-3.71,17-2.38,22.4,6.77,5.1,8.59,7.64,18.89,11.56,28.32,3.63,9.05,8.67,16.95,11.77,22.3-6.43,7.3-8.22,15.48-7.15,21.36-9.16,4.91-18.44,4.38-27.07-1.28-9.16-5.96-16.13-16.74-19.28-26.69ZM994.63.87c2.37-4.31,4.17-6.89,8.49-11.72,8.97,4.07,18.94,4.1,28.12-.57,2.34,5.13,5.92,9.2,10.8,11.78.28,5.39-.71,11.15-2.56,16.24h0c-.23.66-.49,1.29-.74,1.9-17.84-7.3-42.49-.16-47.67,17.64-6.06-10.36-2.19-24.73,3.55-35.27ZM982.2-7.54c2.49,1.56,4.96,3.15,7.32,4.77-4.7,8.46-8.11,18.77-7.68,28.37-.07.01.17,3.2.76,5.81,1.17,5.13,3.53,9.54,7.06,13.16-15.06,4.22-32.58-5.61-45.71-14.05-7.83-4.95-17.58-16.39-17.94-25.44-.15-2.5.6-5.02,1.73-6.6.53-.84,1.62-2.22,2.71-3.33,11.98-12.36,36.98-11.96,51.75-2.69ZM892.51-68.36c-5.52-13.68-6.36-28.17-4.27-42.82.23-1.62,1.45-2.87,2.96-3.2,2.57-.56,4.98,1.6,4.6,4.27-1.79,12.5-1.28,25.08,3.04,36.89.26.72,1.07,1.07,1.79.8,13.76-5.2,29.59,6.74,36.52,19.84,4.89,9.73,9.72,22.47,8.08,33.2-6.01,1.34-11.6,3.76-16.18,7.38-3.43,2.69-6.97,6.68-8.4,10.8-2.16-.21-4.55-.81-6.92-1.83-12.48-5.37-21.15-20.17-24.79-31.26-3.31-12.55-5.75-23.69,3.25-32.57.4-.4.54-1,.32-1.52Z"/>
      <path class="cls-2" d="M879.13,2038.2l-.05.37c-.53,6.86,1.34,12.97,5.58,18.19.32,19.3,17.85,27.87,36.05,29.41,22.34,2.17,61.61-4.2,73.73-25.22,0,0,0,0,0,0,7.24,3.79,15.43,4.49,23.63,3.66,2.73,14.23,2.67,29.56,16.54,35.73,2.06.92,4.43,1.63,7.16,2.08,4.3,11.08,12.45,17.1,25.43,17.82,7.7,1.13,17.5-3.91,21.31-13.19,8.33-14.35,12.05-39.67,6.45-60.4-2.21-6.81-5.2-12.55-8.99-17.24,13.9-4.36,25.48-17.37,31.46-27.8l.09-.16c5.13-10.33,11.49-23.12,4.73-36.14,7.21-11.84,11.23-25.51,12.23-41.52.34-5.41-3.74-10.32-9.42-10.69-5.55-.35-10.34,3.88-10.69,9.42-.69,11.02-3.12,20.51-7.36,28.77-14.93-5.78-33.23,3.33-43.41,15.66-7.08,8.94-14.35,20.5-15.8,31.77-1.01-.06-2.01-.08-3-.05-10.62-2.62-22.25-2.23-31.76,1.31-2.82,1.05-5.53,2.1-8.1,3.16-.16-.38-.45-1.06-.63-1.43-.89-1.72-1.82-3.51-2.83-5.3,16.67-6.96,26.91-22.09,34.38-38.42,7.38-16.26,9.55-35.41-6.81-47.09-7.95-5.02-15.79-6.5-22.96-3.58-.39-.36-.91-.82-1.42-1.21-7.19-4.97-14.4-6.64-21.43-4.96-14.21,3.4-24.54,19.54-31.95,33.21-.99,1.99-3.24,6.77-4.61,10.1-.97-.53-1.95-1.07-2.91-1.63-11.31-6.53-24-12.43-35.01-9.44-.67-2.4-2-4.46-3.99-5.92-1.85-1.35-5.79-3.05-11.39.84-2.75,1.92-5.71,5.04-8.82,9.27-3.05,4.16-4.75,7.41-5.33,10.24-.82,3.91.43,7.22,3.63,9.55,1.58,1.16,3.47,1.83,5.52,1.97-1.33,6.52-.77,13.26,3.14,19.03,8.41,12.29,24.36,16.14,37.5,20.78,6.18,1.73,12.84,3.53,19.34,3.32-.71,3.66-.95,7.41-.81,11.02-1.4-.19-2.8-.35-4.15-.46-38.86-2.55-61.08,6.15-64.3,25.16ZM987.4,2059.69c-7.24,10.01-22.55,14.71-33.81,17.14-16.57,3.63-50.99,5.24-59.54-12.15-1.81-3.65-2.22-7.79-1.8-11.81,4.14-16.69,38.37-16.65,55.77-24.09,2.21-1.03,4.86-2.12,7.25-2.59,21.67-4.44,45.62,14.79,32.14,33.5ZM1024.26,2063.67c3.81-.73,7.59-1.73,11.21-2.85.15,1.44.31,2.73.47,3.86,1.49,9.87,1.56,21.03,3.8,30.9-13.12-3.81-12.52-16.37-15.48-31.91ZM1089.02,2048.52c5.13,18.7,1.78,48.34-9.81,60.77-3.11,3.33-7.62,4.99-12.17,4.66-9.61-.68-15.02-4.79-18.22-10.95-3.8-7.34-4.57-18.04-5.32-26.55-1.15-13.01-1.37-11.36-1.97-17.65,1.97-.7,3.87-1.4,5.68-2.1,10.53-3.95,23.95-14.7,26.64-25.89,1.68.16,3.37.15,5.09,0,4.36,4.46,7.66,10.3,10.08,17.7ZM1068.49,1970.89c9.44-11.43,27.37-19.91,39.79-12.03.65.41,1.51.23,1.92-.42,6.62-10.69,9.66-22.91,10.45-35.51.17-2.69,2.97-4.32,5.37-3.25,1.42.63,2.36,2.1,2.26,3.73-.92,14.76-4.69,28.78-12.86,41.06-.32.47-.31,1.08,0,1.56,7.01,10.53,2.36,20.93-3.42,32.55-5.82,10.12-17.3,22.86-30.61,25.59-2.53.52-4.99.62-7.14.39-.56-4.33-3.22-8.95-6.03-12.28-3.76-4.47-8.74-7.98-14.35-10.51.57-10.84,7.88-22.34,14.64-30.88ZM1006.96,2043.9c1.11-2.43,1.99-5.51,1.92-5.54,2.37-9.31,1.11-20.09-1.77-29.33,2.64-1.11,5.38-2.16,8.14-3.19,16.35-6.08,40.91-1.41,50.13,13.13.84,1.31,1.62,2.88,1.98,3.81.78,1.78,1.01,4.4.35,6.81-2.18,8.79-14.05,18.01-22.72,21.27-14.57,5.6-33.71,11.67-47.61,4.49,4.19-2.84,7.4-6.67,9.58-11.46ZM997.69,2046.82c-1.46-18.49-24.15-30.48-43.1-26.94-.12-.65-.25-1.31-.34-2h0c-.78-5.37-.58-11.21.79-16.43,5.31-1.54,9.63-4.8,12.96-9.35,8.05,6.43,17.81,8.43,27.42,6.26,3.25,5.6,4.5,8.5,5.94,13.2,3.48,11.48,4.35,26.34-3.68,35.26ZM1024.94,1917.15c16.98,12.7,6.23,36.52-2.69,51.31-5.1,9.11-14.11,18.25-24.29,22.23-9.61,3.79-18.8,2.43-26.77-4.23,2.24-5.54,2.15-13.92-2.67-22.37,4.12-4.6,10.66-11.32,16.05-19.45,5.75-8.44,10.33-18.01,17.07-25.39,7.15-7.87,14.48-7.71,23.31-2.09ZM956.86,1937.29c6.27-11.55,15.96-27.2,27.88-30.05,5.07-1.21,10.2-.06,15.65,3.51-8.45,6.71-15.24,21.14-21.28,30.27-5.21,7.98-10.02,12.97-14.29,17.72-3.47-4.33-7.9-8.28-12.61-11.19,1.41-3.49,3.06-6.94,4.66-10.27ZM892.22,1952.59c-1.83.67-4.04.9-5.62-.25-.61-.45-.99-.87-1.18-1.38-.91-2.44,2.69-7.58,4.23-9.67,2.66-3.63,5.2-6.34,7.35-7.84,2.13-1.48,3.21-1.39,3.76-1.15.16.07.28.16.36.22,1.02.75,1.63,1.97,1.84,3.45.87,6-4.35,14.29-10.74,16.61ZM931.29,1992.18c-11.68-4.42-26.05-7.91-33.41-17.96-3.47-5.07-3.18-11.04-1.41-16.68,6.3-3.23,11.3-10.07,12.55-16.87,9.36-3.96,21.21,1.95,31.69,7.76,4.83,2.79,13.2,6.08,19.98,15.22,6.2,8.23,8.06,18.05,1.04,25.72,0,0,0,0,0,0-.37.42-.77.82-1.2,1.22,0,0-.01.02-.02.02-.64.56-1.76,1.78-4.34,3.12-7.58,3.67-16.79.83-24.89-1.57ZM948.25,2019.91c.09.57.2,1.15.32,1.7-1.05.41-2.1.88-3.1,1.31-16.51,6.85-50.44,6.02-59.06,24.57-.97-2.55-1.34-5.31-1.11-8.32,3.36-19.35,33.2-21.5,57.67-19.89,1.73.14,3.49.35,5.28.63Z"/>
      <path class="cls-2" d="M81.61,954.55l-52.9-4.09c-8.07-.62-15.35-4.8-19.97-11.45l-30.27-43.58c-2-2.87-5.47-4.14-8.85-3.22-3.38.92-5.74,3.76-6.01,7.25l-4.09,52.9c-.62,8.07-4.8,15.35-11.45,19.97l-43.58,30.27c-2.87,2-4.14,5.47-3.22,8.85.92,3.38,3.76,5.74,7.25,6l52.9,4.09c8.07.62,15.35,4.8,19.97,11.45l30.27,43.58c1.57,2.25,4.04,3.52,6.66,3.52.72,0,1.46-.1,2.19-.29,3.38-.92,5.73-3.76,6-7.25l4.09-52.9c.62-8.07,4.8-15.35,11.45-19.97l43.58-30.27c2.87-2,4.14-5.47,3.22-8.85-.92-3.38-3.76-5.73-7.25-6ZM81.55,963.52l-43.58,30.27c-8.43,5.85-13.71,15.07-14.5,25.3l-4.09,52.9c-.05.59-.43.81-.74.89-.31.08-.76.09-1.09-.4l-30.27-43.58c-5.85-8.43-15.07-13.71-25.3-14.5l-52.9-4.09c-.59-.05-.81-.43-.89-.74-.08-.31-.08-.76.4-1.09l43.58-30.27c8.43-5.85,13.71-15.08,14.5-25.3l4.09-52.9c.05-.59.43-.81.74-.9.09-.02.2-.04.31-.04.26,0,.55.1.79.44l30.27,43.58c5.85,8.43,15.07,13.71,25.3,14.5l52.9,4.09c.58.05.81.43.89.74.09.31.09.76-.4,1.09Z"/>
      <path class="cls-2" d="M2095.64,1002.6l-43.58-30.27c-6.65-4.62-10.82-11.9-11.45-19.97l-4.09-52.9c-.27-3.49-2.63-6.34-6.01-7.25-3.38-.92-6.85.35-8.85,3.22l-30.27,43.58c-4.62,6.65-11.9,10.82-19.97,11.45l-52.9,4.09c-3.49.27-6.34,2.63-7.25,6-.92,3.38.35,6.85,3.22,8.85l43.58,30.27c6.65,4.62,10.82,11.9,11.45,19.97l4.09,52.9c.27,3.49,2.63,6.34,6,7.25.73.2,1.47.29,2.19.29,2.62,0,5.09-1.26,6.66-3.52l30.27-43.58c4.62-6.65,11.9-10.82,19.97-11.45l52.9-4.09c3.49-.27,6.34-2.63,7.25-6,.92-3.38-.35-6.85-3.22-8.85ZM2091.95,1009.58c-.09.31-.31.7-.89.74l-52.9,4.09c-10.23.79-19.45,6.08-25.3,14.5l-30.27,43.58c-.34.48-.78.48-1.09.4-.31-.09-.7-.31-.74-.89l-4.09-52.9c-.79-10.23-6.08-19.45-14.5-25.3l-43.58-30.27c-.48-.33-.48-.78-.4-1.09.08-.31.31-.69.89-.74l52.9-4.09c10.23-.79,19.45-6.08,25.3-14.5l30.27-43.58c.24-.34.53-.44.79-.44.11,0,.21.02.31.04.31.09.69.31.74.9l4.09,52.9c.79,10.23,6.08,19.45,14.5,25.3l43.58,30.27c.48.33.48.78.4,1.09Z"/>
      <path class="cls-2" d="M280.83,289.73l129.63,129.63,112.57,112.57c.79.79,2.34.52,3.47-.6l18.9-18.9c1.12-1.12,1.39-2.68.6-3.47l-112.57-112.57-129.63-129.63-112.57-112.57c-.79-.79-2.34-.52-3.47.6l-18.9,18.9c-1.12,1.12-1.39,2.68-.6,3.47l112.57,112.57ZM457.25,454l10.83-10.83c1.12-1.12,2.68-1.39,3.47-.6l67.42,67.42c.79.79.52,2.34-.6,3.47l-10.83,10.83c-1.12,1.12-2.68,1.39-3.47.6l-67.42-67.42c-.79-.79-.52-2.34.6-3.47ZM175.9,172.66l10.83-10.83c1.12-1.12,2.68-1.39,3.47-.6l67.42,67.42c.79.79.52,2.34-.6,3.47l-10.83,10.83c-1.12,1.12-2.68,1.39-3.47.6l-67.42-67.42c-.79-.79-.52-2.34.6-3.47Z"/>
      <path class="cls-2" d="M1719.31,1682.27l-129.63-129.63-112.57-112.57c-.79-.79-2.34-.52-3.47.6l-18.9,18.9c-1.12,1.12-1.39,2.68-.6,3.47l112.57,112.57,129.63,129.63,112.57,112.57c.79.79,2.34.52,3.47-.6l18.9-18.9c1.12-1.12,1.39-2.68.6-3.47l-112.57-112.57ZM1542.89,1518l-10.83,10.83c-1.12,1.12-2.68,1.39-3.47.6l-67.42-67.42c-.79-.79-.52-2.34.6-3.47l10.83-10.83c1.12-1.12,2.68-1.39,3.47-.6l67.42,67.42c.79.79.52,2.34-.6,3.47ZM1824.24,1799.35l-10.83,10.83c-1.12,1.12-2.68,1.39-3.47.6l-67.42-67.42c-.79-.79-.52-2.34.6-3.47l10.83-10.83c1.12-1.12,2.68-1.39,3.47-.6l67.42,67.42c.79.79.52,2.34-.6,3.47Z"/>
      <path class="cls-2" d="M526.5,1440.67c-1.12-1.12-2.68-1.39-3.47-.6l-112.57,112.57-129.63,129.63-112.57,112.57c-.79.79-.52,2.34.6,3.47l18.9,18.9c1.12,1.12,2.68,1.39,3.47.6l112.57-112.57,129.63-129.63,112.57-112.57c.79-.79.52-2.34-.6-3.47l-18.9-18.9ZM257.61,1743.36l-67.42,67.42c-.79.79-2.34.52-3.47-.6l-10.83-10.83c-1.12-1.12-1.39-2.68-.6-3.47l67.42-67.42c.79-.79,2.34-.52,3.47.6l10.83,10.83c1.12,1.12,1.39,2.68.6,3.47ZM538.96,1462.01l-67.42,67.42c-.79.79-2.34.52-3.47-.6l-10.83-10.83c-1.12-1.12-1.39-2.68-.6-3.47l67.42-67.42c.79-.79,2.34-.52,3.47.6l10.83,10.83c1.12,1.12,1.39,2.68.6,3.47Z"/>
      <path class="cls-2" d="M1812.38,154.79c-1.12-1.12-2.68-1.39-3.47-.6l-112.57,112.57-129.63,129.63-112.57,112.57c-.79.79-.52,2.34.6,3.47l18.9,18.9c1.12,1.12,2.68,1.39,3.47.6l112.57-112.57,129.63-129.63,112.57-112.57c.79-.79.52-2.34-.6-3.47l-18.9-18.9ZM1543.5,457.47l-67.42,67.42c-.79.79-2.34.52-3.47-.6l-10.83-10.83c-1.12-1.12-1.39-2.68-.6-3.47l67.42-67.42c.79-.79,2.34-.52,3.47.6l10.83,10.83c1.12,1.12,1.39,2.68.6,3.47ZM1824.84,176.13l-67.42,67.42c-.79.79-2.34.52-3.47-.6l-10.83-10.83c-1.12-1.12-1.39-2.68-.6-3.47l67.42-67.42c.79-.79,2.34-.52,3.47.6l10.83,10.83c1.12,1.12,1.39,2.68.6,3.47Z"/>
      <path class="cls-2" d="M827,1095.59c31.61,29.45,80.66,57.34,139,70.29,58.31,13.57,113.56,10.06,154.57.87,41.14-9.31,68.03-24.32,72.48-36.46,4.36-12.84-14.67-21.04-49.17-31.52-13.07-3.92-28.36-8.17-45.36-12.94,10.38-67.73,70.87-139.82,110.84-194.98,14.43-19.91-5.11-49.4-35.1-58.31l-184.34-32.74c-30.05-8.92-59.12,5.26-61.25,29.79-5.14,59.21-15.77,118.26-31.36,177.17,7.93,3.37,15.66,7.08,23.17,10.87,30.48,15.44,59.32,33.62,89.79,48.6,9.94,4.86,19.96,9.3,30.05,12.74,3.13,1.07,4.8,4.47,3.73,7.6-1.05,3.08-4.38,4.75-7.47,3.77-43.25-14.38-81.54-39.92-122.49-59.42-9.92-4.76-20-9.28-30.35-13.02-8.73-2.66-17.02-5.01-24.8-6.97-1.7-.43-3.37-.85-5.02-1.24-4.59-1.06-9.19-2.08-13.83-2.94-1.93-.35-3.83-.67-5.67-.95-.43-.06-.85-.13-1.28-.19,0,0,0,0,0,0-3.06-.43-6.15-.79-9.24-1.03-.41-.03-.82-.06-1.23-.09,0,0,0,0,0,0-2.12-.14-4.17-.2-6.13-.19-.19,0-.38,0-.56,0-.19,0-.39,0-.58,0-2.58.05-5.15.23-7.72.6,0,0,0,0,0,0-.34.05-.68.1-1.03.16-.01,0-.02,0-.04,0-.33.06-.66.12-.99.18-.03,0-.05.01-.08.02-.32.06-.63.13-.95.2-.04,0-.07.02-.11.02-.31.07-.61.14-.91.22-.04.01-.08.02-.13.03-.3.08-.6.16-.91.24-.04.01-.07.02-.11.03-.32.09-.64.19-.95.29-.01,0-.03,0-.04.01-1.34.43-2.65.94-3.91,1.56-.02.01-.05.02-.07.03-.29.14-.57.29-.86.45-.03.01-.05.03-.08.04-.91.5-1.79,1.06-2.62,1.69-.02.02-.04.03-.06.05-.25.19-.49.38-.73.58-.04.03-.07.06-.11.09-.26.22-.51.44-.75.67,0,0,0,0,0,0-.25.24-.5.49-.74.74-.03.03-.06.07-.1.1-.21.22-.41.45-.61.68-.03.03-.06.07-.09.1-.91,1.09-1.69,2.28-2.34,3.53,0,.01-.02.03-.02.04-.16.31-.31.63-.46.94,0,0,0,.01,0,.02-.13.3-.26.6-.38.9-6.63,16.86,7.73,47.73,39.5,77.05ZM854.84,1043.07c33.27-4.08,96.58,47.21,177.96,67.4,42.68,10.59,67.38,8.17,82.59,10.43,17.42,2.59,11.04,12.45-.35,17.92-18.43,8.85-89.03,21.37-196.5-15.95-85.72-29.77-97.61-75.65-63.71-79.8Z"/>
      <path class="cls-2" d="M81.61,2954.55l-52.9-4.09c-8.07-.62-15.35-4.8-19.97-11.45l-30.27-43.58c-2-2.87-5.47-4.14-8.85-3.22-3.38.92-5.74,3.76-6.01,7.25l-4.09,52.9c-.62,8.07-4.8,15.35-11.45,19.97l-43.58,30.27c-2.87,2-4.14,5.47-3.22,8.85.92,3.38,3.76,5.74,7.25,6l52.9,4.09c8.07.62,15.35,4.8,19.97,11.45l30.27,43.58c1.57,2.25,4.04,3.52,6.66,3.52.72,0,1.46-.1,2.19-.29,3.38-.92,5.73-3.76,6-7.25l4.09-52.9c.62-8.07,4.8-15.35,11.45-19.97l43.58-30.27c2.87-2,4.14-5.47,3.22-8.85-.92-3.38-3.76-5.73-7.25-6ZM81.55,2963.52l-43.58,30.27c-8.43,5.85-13.71,15.07-14.5,25.3l-4.09,52.9c-.05.59-.43.81-.74.89-.31.08-.76.09-1.09-.4l-30.27-43.58c-5.85-8.43-15.07-13.71-25.3-14.5l-52.9-4.09c-.59-.05-.81-.43-.89-.74-.08-.31-.08-.76.4-1.09l43.58-30.27c8.43-5.85,13.71-15.08,14.5-25.3l4.09-52.9c.05-.59.43-.81.74-.9.09-.02.2-.04.31-.04.26,0,.55.1.79.44l30.27,43.58c5.85,8.43,15.07,13.71,25.3,14.5l52.9,4.09c.58.05.81.43.89.74.09.31.09.76-.4,1.09Z"/>
      <path class="cls-2" d="M2095.64,3002.6l-43.58-30.27c-6.65-4.62-10.82-11.9-11.45-19.97l-4.09-52.9c-.27-3.49-2.63-6.34-6.01-7.25-3.38-.92-6.85.35-8.85,3.22l-30.27,43.58c-4.62,6.65-11.9,10.82-19.97,11.45l-52.9,4.09c-3.49.27-6.34,2.63-7.25,6-.92,3.38.35,6.85,3.22,8.85l43.58,30.27c6.65,4.62,10.82,11.9,11.45,19.97l4.09,52.9c.27,3.49,2.63,6.34,6,7.25.73.2,1.47.29,2.19.29,2.62,0,5.09-1.26,6.66-3.52l30.27-43.58c4.62-6.65,11.9-10.82,19.97-11.45l52.9-4.09c3.49-.27,6.34-2.63,7.25-6,.92-3.38-.35-6.85-3.22-8.85ZM2091.95,3009.58c-.09.31-.31.7-.89.74l-52.9,4.09c-10.23.79-19.45,6.08-25.3,14.5l-30.27,43.58c-.34.48-.78.48-1.09.4-.31-.09-.7-.31-.74-.89l-4.09-52.9c-.79-10.23-6.08-19.45-14.5-25.3l-43.58-30.27c-.48-.34-.48-.78-.4-1.09.08-.31.31-.69.89-.74l52.9-4.09c10.23-.79,19.45-6.08,25.3-14.5l30.27-43.58c.24-.34.53-.44.79-.44.11,0,.21.02.31.04.31.09.69.31.74.9l4.09,52.9c.79,10.23,6.08,19.45,14.5,25.3l43.58,30.27c.48.33.48.78.4,1.09Z"/>
      <path class="cls-2" d="M280.83,2289.73l129.63,129.63,112.57,112.57c.79.79,2.34.52,3.47-.6l18.9-18.9c1.12-1.12,1.39-2.68.6-3.47l-112.57-112.57-129.63-129.63-112.57-112.57c-.79-.79-2.34-.52-3.47.6l-18.9,18.9c-1.12,1.12-1.39,2.68-.6,3.47l112.57,112.57ZM457.25,2454l10.83-10.83c1.12-1.12,2.68-1.39,3.47-.6l67.42,67.42c.79.79.52,2.34-.6,3.47l-10.83,10.83c-1.12,1.12-2.68,1.39-3.47.6l-67.42-67.42c-.79-.79-.52-2.34.6-3.47ZM175.9,2172.66l10.83-10.83c1.12-1.12,2.68-1.39,3.47-.6l67.42,67.42c.79.79.52,2.34-.6,3.47l-10.83,10.83c-1.12,1.12-2.68,1.39-3.47.6l-67.42-67.42c-.79-.79-.52-2.34.6-3.47Z"/>
      <path class="cls-2" d="M1719.31,3682.27l-129.63-129.63-112.57-112.57c-.79-.79-2.34-.52-3.47.6l-18.9,18.9c-1.12,1.12-1.39,2.68-.6,3.47l112.57,112.57,129.63,129.63,112.57,112.57c.79.79,2.34.52,3.47-.6l18.9-18.9c1.12-1.12,1.39-2.68.6-3.47l-112.57-112.57ZM1542.89,3518l-10.83,10.83c-1.12,1.12-2.68,1.39-3.47.6l-67.42-67.42c-.79-.79-.52-2.34.6-3.47l10.83-10.83c1.12-1.12,2.68-1.39,3.47-.6l67.42,67.42c.79.79.52,2.34-.6,3.47ZM1824.24,3799.35l-10.83,10.83c-1.12,1.12-2.68,1.39-3.47.6l-67.42-67.42c-.79-.79-.52-2.34.6-3.47l10.83-10.83c1.12-1.12,2.68-1.39,3.47-.6l67.42,67.42c.79.79.52,2.34-.6,3.47Z"/>
      <path class="cls-2" d="M526.5,3440.67c-1.12-1.12-2.68-1.39-3.47-.6l-112.57,112.57-129.63,129.63-112.57,112.57c-.79.79-.52,2.34.6,3.47l18.9,18.9c1.12,1.12,2.68,1.39,3.47.6l112.57-112.57,129.63-129.63,112.57-112.57c.79-.79.52-2.34-.6-3.47l-18.9-18.9ZM257.61,3743.36l-67.42,67.42c-.79.79-2.34.52-3.47-.6l-10.83-10.83c-1.12-1.12-1.39-2.68-.6-3.47l67.42-67.42c.79-.79,2.34-.52,3.47.6l10.83,10.83c1.12,1.12,1.39,2.68.6,3.47ZM538.96,3462.01l-67.42,67.42c-.79.79-2.34.52-3.47-.6l-10.83-10.83c-1.12-1.12-1.39-2.68-.6-3.47l67.42-67.42c.79-.79,2.34-.52,3.47.6l10.83,10.83c1.12,1.12,1.39,2.68.6,3.47Z"/>
      <path class="cls-2" d="M1812.38,2154.79c-1.12-1.12-2.68-1.39-3.47-.6l-112.57,112.57-129.63,129.63-112.57,112.57c-.79.79-.52,2.34.6,3.47l18.9,18.9c1.12,1.12,2.68,1.39,3.47.6l112.57-112.57,129.63-129.63,112.57-112.57c.79-.79.52-2.34-.6-3.47l-18.9-18.9ZM1543.5,2457.47l-67.42,67.42c-.79.79-2.34.52-3.47-.6l-10.83-10.83c-1.12-1.12-1.39-2.68-.6-3.47l67.42-67.42c.79-.79,2.34-.52,3.47.6l10.83,10.83c1.12,1.12,1.39,2.68.6,3.47ZM1824.84,2176.13l-67.42,67.42c-.79.79-2.34.52-3.47-.6l-10.83-10.83c-1.12-1.12-1.39-2.68-.6-3.47l67.42-67.42c.79-.79,2.34-.52,3.47.6l10.83,10.83c1.12,1.12,1.39,2.68.6,3.47Z"/>
      <path class="cls-2" d="M2882.92-32.58l.05.17c3.74,11.43,12.44,26.51,25.17,33.6-4.66,3.83-8.74,8.84-12.29,15.06-9.68,19.16-11.17,44.71-5.92,60.45,1.85,9.85,10.43,16.78,18.2,17.23,12.86,1.92,22.06-2.31,28.52-12.3,2.77.11,5.23-.11,7.43-.59,14.83-3.23,17.88-18.25,23.44-31.63,7.86,2.48,16.02,3.45,23.88,1.21,0,0,0,0,0,0,7.61,23.04,44.77,37.24,67.08,39.65,18.14,2.19,37.04-2.65,41.27-21.49,5.21-4.25,8.29-9.86,9.16-16.68l.03-.37c.7-19.27-19.29-32.29-57.86-37.67-1.35-.17-2.74-.3-4.16-.4.87-3.51,1.4-7.23,1.44-10.95,6.32,1.52,13.21,1.11,19.61.66,13.81-1.88,30.2-2.41,40.93-12.74,4.99-4.85,6.91-11.34,6.93-18,2.04.28,4.02,0,5.81-.81,3.6-1.64,5.5-4.63,5.49-8.62,0-2.89-1-6.41-3.15-11.11-2.18-4.78-4.46-8.43-6.76-10.87-4.69-4.95-8.9-4.08-10.98-3.13-2.24,1.03-3.96,2.77-5.1,4.99-10.18-5.16-23.8-1.95-36.2,2.15-1.05.35-2.12.68-3.18,1-.67-3.54-1.9-8.67-2.47-10.82-4.48-14.89-11.33-32.79-24.56-39-6.55-3.07-13.95-2.89-21.99.51-.58.28-1.19.63-1.64.9-6.43-4.32-14.4-4.45-23.21-1.15-18.39,8.12-20.15,27.31-16.22,44.73,4.01,17.51,10.97,34.4,25.88,44.6-1.35,1.55-2.62,3.11-3.84,4.62-.25.32-.67.93-.9,1.27-2.29-1.56-4.73-3.13-7.29-4.74-8.59-5.39-19.9-8.14-30.83-7.72-.97-.23-1.95-.41-2.95-.56.86-11.32-3.91-24.12-9.04-34.31-7.47-14.14-23.54-26.77-39.33-24.13-2.49-8.95-2.93-18.74-1.38-29.66.78-5.49-3.05-10.6-8.55-11.39-5.63-.79-10.62,3.19-11.39,8.55-2.26,15.88-1.1,30.07,3.57,43.13-9.27,11.38-5.63,25.19-2.7,36.34ZM2929.63,80.8c-4.39,5.39-10.51,8.32-20.06,7.03-4.52-.6-8.6-3.14-10.97-7.03-8.83-14.52-6.11-44.23,2.71-61.5,3.86-6.75,8.28-11.8,13.45-15.29,1.65.49,3.31.84,4.99,1.03.37,11.5,11.33,24.75,20.84,30.75,1.63,1.05,3.34,2.12,5.13,3.2-1.86,6.03-1.74,4.37-5.5,16.88-2.46,8.18-5.38,18.5-10.59,24.92ZM2940.03,75.37c4.19-9.21,6.52-20.13,9.99-29.49.38-1.07.8-2.31,1.24-3.68,3.32,1.83,6.81,3.57,10.4,5.06-6.05,14.61-8,27.04-21.62,28.11ZM3088.96,74.64c-11.9,15.3-45.28,6.75-60.77-.17-10.53-4.67-24.58-12.37-29.64-23.64-9.41-21.05,17.94-35.03,38.27-26.29,2.25.95,4.62,2.55,6.57,4.01,15.52,10.82,49.06,17.71,49.73,34.89-.41,4.02-1.64,7.99-4.16,11.2ZM3050.25,20.26c24.28,3.39,53.07,11.54,52.44,31.17-.39,2.98-1.31,5.62-2.78,7.92-4.68-19.91-38.07-25.98-52.85-36.03-.89-.62-1.82-1.29-2.77-1.91.23-.52.45-1.06.66-1.6,1.8.09,3.58.24,5.29.45ZM3106.32-53.2c.51-1.41,1.35-2.48,2.5-3.01.09-.04.23-.11.4-.14.59-.13,1.66,0,3.45,1.89,1.8,1.9,3.74,5.07,5.6,9.16,1.08,2.36,3.57,8.12,2.18,10.33-.29.46-.75.8-1.43,1.12-1.78.81-3.9.13-5.55-.9-5.79-3.57-9.22-12.74-7.15-18.44ZM3066.84-48.65c11.44-3.57,24.25-6.95,32.61-1.18-.15,6.91,3.35,14.62,8.87,19.07.58,5.89-.34,11.79-4.77,16.05-9.24,8.34-24.03,8.85-36.36,10.81-8.41.7-18.01,1.62-24.69-3.51-2.25-1.83-3.1-3.26-3.61-3.93,0,0-.01-.02-.01-.03-.34-.48-.65-.95-.92-1.44,0,0,0,0,0,0-5.31-8.93-1.5-18.17,6.24-24.97,8.49-7.58,17.35-9.1,22.65-10.86ZM3032.07-97.91c11.09,5.21,17.41,22.49,21.21,35.07.89,3.58,1.81,7.3,2.48,11-5.21,1.89-10.34,4.87-14.62,8.4-3.23-5.52-6.93-11.38-10.41-20.25-4.07-10.17-7.78-25.68-14.7-33.96,6.07-2.39,11.32-2.48,16.04-.26ZM2982.92-45.57c-5.74-16.29-11.44-41.8,7.76-50.79,9.78-3.71,17-2.38,22.4,6.77,5.1,8.59,7.64,18.89,11.56,28.32,3.63,9.05,8.67,16.95,11.78,22.3-6.43,7.3-8.22,15.48-7.15,21.36-9.16,4.91-18.44,4.38-27.07-1.28-9.16-5.96-16.13-16.74-19.28-26.69ZM2994.63.87c2.37-4.31,4.17-6.89,8.49-11.72,8.97,4.07,18.94,4.1,28.12-.57,2.34,5.13,5.92,9.2,10.8,11.78.28,5.39-.71,11.15-2.56,16.24h0c-.23.66-.49,1.29-.74,1.9-17.84-7.3-42.49-.16-47.67,17.64-6.06-10.36-2.19-24.73,3.55-35.27ZM2982.2-7.54c2.49,1.56,4.96,3.15,7.32,4.77-4.7,8.46-8.11,18.77-7.68,28.37-.07.01.17,3.2.76,5.81,1.17,5.13,3.53,9.54,7.06,13.16-15.06,4.22-32.58-5.61-45.71-14.05-7.83-4.95-17.58-16.39-17.94-25.44-.15-2.5.6-5.02,1.73-6.6.53-.84,1.62-2.22,2.71-3.33,11.98-12.36,36.98-11.96,51.75-2.69ZM2892.51-68.36c-5.52-13.68-6.36-28.17-4.27-42.82.23-1.62,1.45-2.87,2.96-3.2,2.57-.56,4.98,1.6,4.6,4.27-1.79,12.5-1.28,25.08,3.04,36.89.26.72,1.07,1.07,1.79.8,13.76-5.2,29.59,6.74,36.52,19.84,4.89,9.73,9.72,22.47,8.08,33.2-6.01,1.34-11.6,3.76-16.18,7.38-3.43,2.69-6.97,6.68-8.4,10.8-2.16-.21-4.55-.81-6.92-1.83-12.48-5.37-21.15-20.17-24.79-31.26-3.31-12.55-5.75-23.69,3.25-32.57.41-.4.54-1,.32-1.52Z"/>
      <path class="cls-2" d="M3035.9,1958c7.38-16.26,9.55-35.41-6.81-47.09-7.95-5.02-15.79-6.5-22.96-3.58-.39-.36-.91-.82-1.42-1.21-7.19-4.97-14.4-6.64-21.43-4.96-14.21,3.4-24.54,19.54-31.95,33.21-.99,1.99-3.24,6.77-4.61,10.1-.97-.53-1.95-1.07-2.91-1.63-11.31-6.53-24-12.43-35.01-9.44-.67-2.4-2-4.46-3.99-5.92-1.85-1.35-5.79-3.05-11.39.84-2.75,1.92-5.71,5.04-8.82,9.27-3.05,4.16-4.75,7.41-5.33,10.24-.82,3.91.43,7.22,3.63,9.55,1.58,1.16,3.47,1.83,5.52,1.97-1.33,6.52-.77,13.26,3.14,19.03,8.41,12.29,24.36,16.14,37.5,20.78,6.18,1.73,12.84,3.53,19.34,3.32-.71,3.66-.95,7.41-.81,11.02-1.4-.19-2.8-.35-4.15-.46-38.86-2.55-61.08,6.15-64.3,25.16l-.05.37c-.53,6.86,1.34,12.97,5.58,18.19.32,19.3,17.85,27.87,36.05,29.41,22.34,2.17,61.61-4.2,73.73-25.22,0,0,0,0,0,0,7.24,3.79,15.43,4.49,23.63,3.66,2.73,14.23,2.67,29.56,16.54,35.73,2.06.92,4.43,1.63,7.16,2.08,4.3,11.08,12.45,17.1,25.43,17.82,7.7,1.13,17.5-3.91,21.31-13.19,8.33-14.35,12.05-39.67,6.45-60.4-2.21-6.81-5.2-12.55-8.99-17.24,13.9-4.36,25.48-17.37,31.46-27.8l.09-.16c5.13-10.33,11.49-23.12,4.73-36.14,7.21-11.84,11.23-25.51,12.23-41.52.34-5.41-3.74-10.32-9.42-10.69-5.55-.35-10.34,3.88-10.69,9.42-.7,11.02-3.12,20.51-7.36,28.77-14.93-5.78-33.23,3.33-43.41,15.66-7.08,8.94-14.35,20.5-15.8,31.77-1.01-.06-2.01-.08-3-.05-10.62-2.62-22.25-2.23-31.76,1.31-2.82,1.05-5.53,2.1-8.1,3.16-.16-.38-.45-1.06-.63-1.43-.89-1.72-1.82-3.51-2.83-5.3,16.67-6.96,26.91-22.09,34.38-38.42ZM2956.86,1937.29c6.27-11.55,15.96-27.2,27.88-30.05,5.07-1.21,10.2-.06,15.65,3.51-8.45,6.71-15.24,21.14-21.28,30.27-5.21,7.98-10.02,12.97-14.29,17.72-3.47-4.33-7.9-8.28-12.61-11.19,1.41-3.49,3.06-6.94,4.66-10.27ZM2892.22,1952.59c-1.83.67-4.04.9-5.62-.25-.61-.45-.99-.87-1.18-1.38-.91-2.44,2.69-7.58,4.23-9.67,2.66-3.63,5.2-6.34,7.35-7.84,2.13-1.48,3.21-1.39,3.76-1.15.16.07.28.16.36.22,1.02.75,1.63,1.97,1.84,3.45.87,6-4.35,14.29-10.74,16.61ZM2931.29,1992.18c-11.68-4.42-26.05-7.91-33.41-17.96-3.47-5.07-3.18-11.04-1.41-16.68,6.3-3.23,11.3-10.07,12.55-16.87,9.36-3.96,21.21,1.95,31.69,7.76,4.83,2.79,13.2,6.08,19.98,15.22,6.2,8.23,8.06,18.05,1.04,25.72,0,0,0,0,0,0-.37.42-.77.82-1.2,1.22,0,0-.01.02-.02.02-.64.56-1.76,1.78-4.34,3.12-7.58,3.67-16.79.83-24.89-1.57ZM2886.42,2047.49c-.97-2.55-1.34-5.31-1.11-8.32,3.36-19.35,33.2-21.5,57.67-19.89,1.73.14,3.49.35,5.28.63.09.57.2,1.15.32,1.7-1.05.41-2.1.88-3.1,1.31-16.51,6.85-50.44,6.02-59.06,24.57ZM2987.4,2059.69c-7.24,10.01-22.55,14.71-33.81,17.14-16.57,3.63-50.99,5.24-59.54-12.15-1.81-3.65-2.22-7.79-1.8-11.81,4.14-16.69,38.37-16.65,55.77-24.09,2.21-1.03,4.86-2.12,7.25-2.59,21.67-4.44,45.62,14.79,32.14,33.5ZM3024.26,2063.67c3.81-.73,7.59-1.73,11.21-2.85.15,1.44.31,2.73.47,3.86,1.49,9.87,1.56,21.03,3.8,30.9-13.12-3.81-12.52-16.37-15.48-31.91ZM3089.02,2048.52c5.13,18.7,1.78,48.34-9.81,60.77-3.11,3.33-7.62,4.99-12.17,4.66-9.61-.68-15.02-4.79-18.22-10.95-3.8-7.34-4.57-18.04-5.32-26.55-1.15-13.01-1.37-11.36-1.97-17.65,1.97-.7,3.87-1.4,5.68-2.1,10.53-3.95,23.95-14.7,26.64-25.89,1.68.16,3.37.15,5.09,0,4.36,4.46,7.66,10.3,10.08,17.7ZM3068.49,1970.89c9.44-11.43,27.37-19.91,39.79-12.03.65.41,1.51.23,1.92-.42,6.62-10.69,9.67-22.91,10.45-35.51.17-2.69,2.97-4.32,5.37-3.25,1.42.63,2.36,2.1,2.26,3.73-.92,14.76-4.69,28.78-12.86,41.06-.32.47-.31,1.08,0,1.56,7.01,10.53,2.36,20.93-3.42,32.55-5.82,10.12-17.3,22.86-30.61,25.59-2.53.52-4.99.62-7.14.39-.56-4.33-3.22-8.95-6.03-12.28-3.76-4.47-8.74-7.98-14.35-10.51.57-10.84,7.88-22.34,14.64-30.88ZM3006.96,2043.9c1.11-2.43,1.99-5.51,1.92-5.54,2.37-9.31,1.11-20.09-1.77-29.33,2.64-1.11,5.38-2.16,8.14-3.19,16.35-6.08,40.91-1.41,50.13,13.13.84,1.31,1.62,2.88,1.98,3.81.78,1.78,1.01,4.4.35,6.81-2.18,8.79-14.05,18.01-22.72,21.27-14.57,5.6-33.71,11.67-47.61,4.49,4.19-2.84,7.4-6.67,9.58-11.46ZM2997.69,2046.82c-1.46-18.49-24.15-30.48-43.1-26.94-.12-.65-.25-1.31-.34-2h0c-.78-5.37-.58-11.21.79-16.43,5.31-1.54,9.63-4.8,12.96-9.35,8.05,6.43,17.81,8.43,27.42,6.26,3.25,5.6,4.5,8.5,5.94,13.2,3.48,11.48,4.35,26.34-3.68,35.26ZM2997.96,1990.69c-9.61,3.79-18.8,2.43-26.77-4.23,2.24-5.54,2.15-13.92-2.67-22.37,4.12-4.6,10.66-11.32,16.05-19.45,5.75-8.44,10.33-18.01,17.07-25.39,7.15-7.87,14.48-7.71,23.31-2.09,16.98,12.7,6.23,36.52-2.69,51.31-5.1,9.11-14.11,18.25-24.29,22.23Z"/>
      <path class="cls-2" d="M2280.83,289.73l129.63,129.63,112.57,112.57c.79.79,2.34.52,3.47-.6l18.9-18.9c1.12-1.12,1.39-2.68.6-3.47l-112.57-112.57-129.63-129.63-112.57-112.57c-.79-.79-2.34-.52-3.47.6l-18.9,18.9c-1.12,1.12-1.39,2.68-.6,3.47l112.57,112.57ZM2457.25,454l10.83-10.83c1.12-1.12,2.68-1.39,3.47-.6l67.42,67.42c.79.79.52,2.34-.6,3.47l-10.83,10.83c-1.12,1.12-2.68,1.39-3.47.6l-67.42-67.42c-.79-.79-.52-2.34.6-3.47ZM2175.9,172.66l10.83-10.83c1.12-1.12,2.68-1.39,3.47-.6l67.42,67.42c.79.79.52,2.34-.6,3.47l-10.83,10.83c-1.12,1.12-2.68,1.39-3.47.6l-67.42-67.42c-.79-.79-.52-2.34.6-3.47Z"/>
      <path class="cls-2" d="M3719.31,1682.27l-129.63-129.63-112.57-112.57c-.79-.79-2.34-.52-3.47.6l-18.9,18.9c-1.12,1.12-1.39,2.68-.6,3.47l112.57,112.57,129.63,129.63,112.57,112.57c.79.79,2.34.52,3.47-.6l18.9-18.9c1.12-1.12,1.39-2.68.6-3.47l-112.57-112.57ZM3542.89,1518l-10.83,10.83c-1.12,1.12-2.68,1.39-3.47.6l-67.42-67.42c-.79-.79-.52-2.34.6-3.47l10.83-10.83c1.12-1.12,2.68-1.39,3.47-.6l67.42,67.42c.79.79.52,2.34-.6,3.47ZM3824.24,1799.35l-10.83,10.83c-1.12,1.12-2.68,1.39-3.47.6l-67.42-67.42c-.79-.79-.52-2.34.6-3.47l10.83-10.83c1.12-1.12,2.68-1.39,3.47-.6l67.42,67.42c.79.79.52,2.34-.6,3.47Z"/>
      <path class="cls-2" d="M2526.5,1440.67c-1.12-1.12-2.68-1.39-3.47-.6l-112.57,112.57-129.63,129.63-112.57,112.57c-.79.79-.52,2.34.6,3.47l18.9,18.9c1.12,1.12,2.68,1.39,3.47.6l112.57-112.57,129.63-129.63,112.57-112.57c.79-.79.52-2.34-.6-3.47l-18.9-18.9ZM2257.61,1743.36l-67.42,67.42c-.79.79-2.34.52-3.47-.6l-10.83-10.83c-1.12-1.12-1.39-2.68-.6-3.47l67.42-67.42c.79-.79,2.34-.52,3.47.6l10.83,10.83c1.12,1.12,1.39,2.68.6,3.47ZM2538.96,1462.01l-67.42,67.42c-.79.79-2.34.52-3.47-.6l-10.83-10.83c-1.12-1.12-1.39-2.68-.6-3.47l67.42-67.42c.79-.79,2.34-.52,3.47.6l10.83,10.83c1.12,1.12,1.39,2.68.6,3.47Z"/>
      <path class="cls-2" d="M3812.38,154.79c-1.12-1.12-2.68-1.39-3.47-.6l-112.57,112.57-129.63,129.63-112.57,112.57c-.79.79-.52,2.34.6,3.47l18.9,18.9c1.12,1.12,2.68,1.39,3.47.6l112.57-112.57,129.63-129.63,112.57-112.57c.79-.79.52-2.34-.6-3.47l-18.9-18.9ZM3543.5,457.47l-67.42,67.42c-.79.79-2.34.52-3.47-.6l-10.83-10.83c-1.12-1.12-1.39-2.68-.6-3.47l67.42-67.42c.79-.79,2.34-.52,3.47.6l10.83,10.83c1.12,1.12,1.39,2.68.6,3.47ZM3824.84,176.13l-67.42,67.42c-.79.79-2.34.52-3.47-.6l-10.83-10.83c-1.12-1.12-1.39-2.68-.6-3.47l67.42-67.42c.79-.79,2.34-.52,3.47.6l10.83,10.83c1.12,1.12,1.39,2.68.6,3.47Z"/>
      <path class="cls-2" d="M2280.83,2275.89l129.63,129.63,112.57,112.57c.79.79,2.34.52,3.47-.6l18.9-18.9c1.12-1.12,1.39-2.68.6-3.47l-112.57-112.57-129.63-129.63-112.57-112.57c-.79-.79-2.34-.52-3.47.6l-18.9,18.9c-1.12,1.12-1.39,2.68-.6,3.47l112.57,112.57ZM2457.25,2440.16l10.83-10.83c1.12-1.12,2.68-1.39,3.47-.6l67.42,67.42c.79.79.52,2.34-.6,3.47l-10.83,10.83c-1.12,1.12-2.68,1.39-3.47.6l-67.42-67.42c-.79-.79-.52-2.34.6-3.47ZM2175.9,2158.82l10.83-10.83c1.12-1.12,2.68-1.39,3.47-.6l67.42,67.42c.79.79.52,2.34-.6,3.47l-10.83,10.83c-1.12,1.12-2.68,1.39-3.47.6l-67.42-67.42c-.79-.79-.52-2.34.6-3.47Z"/>
      <path class="cls-2" d="M3719.31,3668.43l-129.63-129.63-112.57-112.57c-.79-.79-2.34-.52-3.47.6l-18.9,18.9c-1.12,1.12-1.39,2.68-.6,3.47l112.57,112.57,129.63,129.63,112.57,112.57c.79.79,2.34.52,3.47-.6l18.9-18.9c1.12-1.12,1.39-2.68.6-3.47l-112.57-112.57ZM3542.89,3504.16l-10.83,10.83c-1.12,1.12-2.68,1.39-3.47.6l-67.42-67.42c-.79-.79-.52-2.34.6-3.47l10.83-10.83c1.12-1.12,2.68-1.39,3.47-.6l67.42,67.42c.79.79.52,2.34-.6,3.47ZM3824.24,3785.51l-10.83,10.83c-1.12,1.12-2.68,1.39-3.47.6l-67.42-67.42c-.79-.79-.52-2.34.6-3.47l10.83-10.83c1.12-1.12,2.68-1.39,3.47-.6l67.42,67.42c.79.79.52,2.34-.6,3.47Z"/>
      <path class="cls-2" d="M2526.5,3426.83c-1.12-1.12-2.68-1.39-3.47-.6l-112.57,112.57-129.63,129.63-112.57,112.57c-.79.79-.52,2.34.6,3.47l18.9,18.9c1.12,1.12,2.68,1.39,3.47.6l112.57-112.57,129.63-129.63,112.57-112.57c.79-.79.52-2.34-.6-3.47l-18.9-18.9ZM2257.61,3729.52l-67.42,67.42c-.79.79-2.34.52-3.47-.6l-10.83-10.83c-1.12-1.12-1.39-2.68-.6-3.47l67.42-67.42c.79-.79,2.34-.52,3.47.6l10.83,10.83c1.12,1.12,1.39,2.68.6,3.47ZM2538.96,3448.17l-67.42,67.42c-.79.79-2.34.52-3.47-.6l-10.83-10.83c-1.12-1.12-1.39-2.68-.6-3.47l67.42-67.42c.79-.79,2.34-.52,3.47.6l10.83,10.83c1.12,1.12,1.39,2.68.6,3.47Z"/>
      <path class="cls-2" d="M3812.38,2140.95c-1.12-1.12-2.68-1.39-3.47-.6l-112.57,112.57-129.63,129.63-112.57,112.57c-.79.79-.52,2.34.6,3.47l18.9,18.9c1.12,1.12,2.68,1.39,3.47.6l112.57-112.57,129.63-129.63,112.57-112.57c.79-.79.52-2.34-.6-3.47l-18.9-18.9ZM3543.5,2443.63l-67.42,67.42c-.79.79-2.34.52-3.47-.6l-10.83-10.83c-1.12-1.12-1.39-2.68-.6-3.47l67.42-67.42c.79-.79,2.34-.52,3.47.6l10.83,10.83c1.12,1.12,1.39,2.68.6,3.47ZM3824.84,2162.29l-67.42,67.42c-.79.79-2.34.52-3.47-.6l-10.83-10.83c-1.12-1.12-1.39-2.68-.6-3.47l67.42-67.42c.79-.79,2.34-.52,3.47.6l10.83,10.83c1.12,1.12,1.39,2.68.6,3.47Z"/>
      <path class="cls-2" d="M3174.27,2818.71l-184.34-32.74c-30.05-8.93-59.12,5.26-61.25,29.79-5.14,59.21-15.77,118.26-31.36,177.17,7.93,3.37,15.66,7.08,23.17,10.87,30.48,15.44,59.32,33.62,89.79,48.6,9.94,4.86,19.96,9.3,30.05,12.74,3.13,1.07,4.8,4.47,3.73,7.6-1.05,3.08-4.38,4.75-7.47,3.77-43.25-14.38-81.54-39.92-122.49-59.42-9.92-4.76-20-9.28-30.35-13.02-8.73-2.66-17.02-5.01-24.81-6.97-1.7-.43-3.37-.85-5.02-1.24-4.59-1.06-9.19-2.08-13.83-2.94-1.94-.35-3.83-.67-5.67-.95-.43-.06-.85-.13-1.28-.19,0,0,0,0,0,0-3.06-.43-6.15-.79-9.24-1.03-.41-.03-.82-.06-1.23-.09h0c-2.12-.14-4.17-.2-6.13-.2-.19,0-.38,0-.56,0-.19,0-.39,0-.58,0-2.58.05-5.15.23-7.72.6,0,0,0,0,0,0-.34.05-.68.1-1.03.16-.01,0-.02,0-.04,0-.33.06-.66.12-.99.18-.03,0-.05.01-.08.02-.32.06-.63.13-.95.2-.04,0-.07.02-.11.02-.31.07-.61.14-.91.22-.04.01-.08.02-.13.03-.3.08-.6.16-.91.24-.04.01-.07.02-.11.03-.32.09-.64.19-.95.29-.01,0-.03,0-.04.01-1.34.43-2.65.94-3.91,1.56-.02.01-.05.02-.07.04-.29.14-.57.29-.86.45-.03.01-.05.03-.08.04-.91.5-1.79,1.06-2.62,1.69-.02.02-.04.03-.06.05-.25.19-.49.38-.73.58-.04.03-.07.06-.11.09-.26.22-.51.44-.75.67,0,0,0,0,0,0-.26.24-.5.49-.74.74-.03.03-.06.07-.1.1-.21.22-.41.45-.61.68-.03.03-.06.07-.09.1-.91,1.09-1.69,2.28-2.34,3.53,0,.01-.02.03-.02.04-.16.31-.31.63-.46.94,0,0,0,.01,0,.02-.13.3-.26.6-.38.9-6.63,16.86,7.73,47.73,39.5,77.05,31.61,29.45,80.67,57.34,139,70.29,58.31,13.57,113.56,10.06,154.57.87,41.14-9.31,68.03-24.32,72.48-36.46,4.36-12.84-14.67-21.04-49.17-31.52-13.07-3.92-28.36-8.17-45.36-12.94,10.38-67.73,70.87-139.82,110.84-194.98,14.43-19.91-5.11-49.4-35.1-58.31ZM3115.39,3107.06c17.42,2.59,11.04,12.45-.35,17.92-18.43,8.85-89.03,21.37-196.5-15.95-85.72-29.77-97.61-75.65-63.71-79.8,33.27-4.08,96.58,47.21,177.96,67.4,42.68,10.59,67.38,8.17,82.59,10.43Z"/>
      <path class="cls-2" d="M2807.44,1006.8c5.42,3.34,11.05,5.65,16.25,6.94,4.96-9.58,15.03-18.05,24.37-23.41,12.5-7.21,27.03-11.14,42.19-12.27,7.83-25.65.58-58.5-7.9-84.03-12.27-34.5-46.7-69.34-82.19-61.53-1.85.41-3.7-.75-4.09-2.6-6.34-30.41-3.08-61.33,5.74-91.25,1.88-6.39-3.24-12.53-9.71-12.08-3.82.26-7.25,2.88-8.39,6.76-10.33,35.05-13.44,70.76-4.83,106.17.33,1.37-.2,2.78-1.34,3.61-25.16,18.51-23.16,46.59-19.55,78.45,4.95,28.41,20.84,67.68,49.44,85.26Z"/>
      <path class="cls-2" d="M3120.14,962.68c-5.68-14.17-15.17-35.28-20.82-58.7-6.22-24.45-8.77-50.53-18.16-73.35-9.94-24.29-27.09-30.14-52.33-24.55-50.14,15.12-45.31,79.49-37.09,121.36,4.14,25.45,17.34,54.28,37.59,72.12,19.09,16.92,41.58,21.51,65.71,12.79-.51-14.75,6.78-34.12,25.1-49.66Z"/>
      <path class="cls-2" d="M2851.19,1160.15c13.65-29.23,12.78-25.22,19.47-39.3-3.99-3.28-7.8-6.53-11.4-9.66-21.1-18.07-43.17-54.35-39.97-82.6-4.03-1.04-7.96-2.49-11.82-4.29-13.89,6.67-26.49,17.44-38.34,32.56-27.71,39.06-44.97,110.69-28.56,149.34,4.4,10.36,13.48,18.01,24.3,21.1,22.88,6.54,38.9,1.58,51.54-10.03,15.01-13.84,25.85-38.01,34.77-57.13Z"/>
      <path class="cls-2" d="M3132.81,1112.36c-4.12-1.14-8.4-2.13-12.78-3-.7,1.25-1.44,2.49-2.19,3.68,2.09,1.85,4.13,3.81,6.08,5.65,32.54,29.84,111.98,56.59,116.32,106.92,4.41-5.1,7.6-11.21,9.61-18.36,8.55-47.74-58.91-77.95-117.05-94.89Z"/>
      <path class="cls-2" d="M3312.04,951.99c-3.7-5.25-6.28-5.94-7.77-5.84-.43.03-.78.14-1.02.21-3,.88-5.44,3.2-7.19,6.47-7.1,13.2-1.98,36.85,10.89,47.63,3.69,3.1,8.62,5.51,13.25,4.17,1.79-.52,3.03-1.19,3.9-2.21,4.18-4.9.15-19.87-1.65-26.02-3.1-10.67-6.71-19.1-10.43-24.4Z"/>
      <path class="cls-2" d="M3278.05,958.59c-18.37-17.11-50.88-13.4-80.12-8.76-13.57,2.4-35.78,2.97-59.23,18.45-21.34,13.88-33.95,35.1-24.15,58.82-.02,0-.02.02-.02.02.5,1.29,1.09,2.56,1.75,3.85,0,.02.02.05.02.07,1.02,1.84,2.57,5.62,7.43,10.9,14.48,14.92,38.28,16.1,59.09,17.39,30.84-.39,67.16,3.64,92.73-13.45,12.33-8.83,16.7-22.93,17.38-37.52-11.9-12.83-17.71-32.92-14.87-49.76Z"/>
      <path class="cls-2" d="M2906.64,1146.74c-8.23-4.91-16.15-10.42-23.61-16.07-1.57,3.2-3.03,6.07-4.34,8.55-11.81,21.64-21.4,47.48-34.93,68.51,33.67,2.24,42.89-27.43,62.88-60.99Z"/>
      <path class="cls-2" d="M3113.1,1130.17c-4.25-4.26-9.48-9.02-14.63-12.14-46.56-28.61-118.39-4.21-102.91,50.6,8.35,29.36,39.92,53.2,64,68.36,35.4,22.42,113.93,55.23,148.46,22.09,7.29-6.94,11.74-16.2,14.16-25.88,4.5-42.23-75-71.05-109.08-103.02Z"/>
      <path class="cls-2" d="M2992.6,1034.38c-5.2-4.8-10.65-9.56-16.19-14.27-32.8-27.93-93.76-37.84-127.45-11.89-3.05,2.33-6.2,5.31-7.81,7.18-3.32,3.46-6.06,9.36-6.57,15.52-2.36,22.24,17.4,53.68,34.77,68.57,29.08,25.3,68.39,55.57,106.7,50.64-7.32-10.12-11.53-21.72-12.55-34.69-.51-6.58.04-14.46.22-14.48,2.37-23.6,14.39-47.58,28.89-66.59Z"/>
      <path class="cls-2" d="M3097.66,1028.15c-24.11,8.14-48.45,4.52-68.93-8.64-12.29,10.26-17.62,15.93-24.94,25.62-17.78,23.71-32.36,57.46-21.25,84.94,19-41.68,81.79-50.33,122.8-26.12.83-1.4,1.68-2.83,2.48-4.35v-.02c6.33-11.79,10.8-25.51,12.04-38.79-11.01-8.06-18.29-19.28-22.2-32.64Z"/>
      <path class="cls-2" d="M3091.23,811.96c13.96,22.71,17.51,61.94,23.82,88.24,5.34,22.93,12.29,38.57,18.21,53.21,11.71-7.11,25.32-12.54,38.73-15.31-.32-9.3-1.25-18.71-2.13-27.78-4.79-32.11-14.07-76.61-39.32-93.29-10.74-7.1-23.62-8.76-39.3-5.08Z"/>
    </g>
  </g>
</svg>