<svg width="491" height="491" viewBox="0 0 491 491" fill="none" xmlns="http://www.w3.org/2000/svg">
<path d="M196.598 104.327C200.415 102.519 204.158 101.863 208.223 103.365C209.446 103.817 210.408 104.662 211.617 105.027C206.475 93.9307 217.983 82.645 228.937 88.5795C235.58 92.1664 237.24 101.279 232.593 107.126C237.138 105.246 241.771 105.275 245.879 108.176C243.592 102.781 244.801 96.0741 249.608 92.4872C259.761 84.9342 273.396 94.6743 269.463 106.762C269.288 107.301 267.992 109.314 268.254 109.576C272.726 107.783 276.674 108.512 280.84 110.626C278.014 103.671 281.874 95.4763 289.216 93.6391C298.524 91.3207 306.755 99.5735 304.453 108.891C304.104 110.32 303.39 111.413 302.865 112.726C307.571 110.48 313.456 111.617 317.199 115.175C315.612 111.705 314.971 108.657 316.238 104.925C319.341 95.8116 332.422 94.8055 336.967 103.263C341.818 112.288 333.922 122.305 324.119 119.972L319.312 117.625C319.836 119.127 320.739 120.468 320.972 122.087C321.424 125.192 321.103 128.633 319.312 131.273C323.798 130.092 328.591 130.223 332.247 133.372C329.552 127.044 331.781 119.258 338.453 116.662C351.286 111.676 360.813 127.54 351.126 136.872C352.335 136.507 353.297 135.647 354.52 135.209C364.295 131.623 373.691 140.838 370.369 150.724C367.733 158.524 358.046 161.455 351.476 156.483C353.326 160.974 353.253 165.203 350.777 169.431C355.322 167.608 360.202 168.177 364.062 171.181C359.109 160.624 369.947 149.426 380.508 154.908C393.284 161.543 385.476 181.519 370.981 177.042C369.714 176.649 368.796 175.745 367.558 175.395C369.568 179.609 369.466 184.42 366.859 188.343C371.986 186.724 377.362 187.599 381.193 191.492C380.304 189.597 379.299 187.891 379.11 185.718C378.09 174.33 392.235 168.294 399.562 177.144C408.739 188.24 393.182 202.705 382.606 192.892C382.897 194.16 383.757 195.123 384.165 196.406C384.805 198.476 384.922 200.97 384.616 203.128C384.383 204.746 383.48 206.088 382.955 207.589C390.414 204.936 398.994 209.675 399.984 217.665C401.15 227.055 392.759 234.171 383.655 231.561C382.402 231.196 381.353 230.394 380.144 230C382.096 233.937 381.353 238.457 379.445 242.248C384.529 240.149 389.598 241.315 393.779 244.698C391.798 240.499 391.375 237.014 393.604 232.8C398.12 224.27 411.114 225.305 414.333 234.462C418.412 246.054 404.588 254.759 395.541 246.812C396.314 248.577 397.275 250.37 397.552 252.324C398.149 256.786 396.386 260.737 393.444 263.96C395.104 263.245 396.459 262.312 398.324 262.02C410.211 260.125 416.926 274.764 407.778 282.346C402.84 286.443 396.008 285.641 391.696 281.121C392.322 282.827 393.531 284.213 393.91 286.079C395.847 295.644 388.578 303.066 379.022 301.681C377.318 301.433 376.153 300.441 374.565 300.018C375.963 303.124 376.007 306.726 374.842 309.904C374.39 311.129 373.545 312.091 373.181 313.302C378.469 311.391 383.815 312.164 387.515 316.626C395.498 326.22 385.039 340.014 373.429 334.925C366.538 331.907 364.543 322.765 368.986 316.816C364.513 318.872 360.056 318.638 355.7 316.466C357.172 320.548 356.589 325.243 353.952 328.714C364.717 323.756 376.167 335.086 370.442 345.759C366.728 352.699 357.536 354.362 351.505 349.375C351.709 350.498 352.408 351.373 352.729 352.524C355.394 362.104 346.683 370.751 337.156 368.111C335.583 367.674 334.447 366.726 332.976 366.187C338.336 379.31 324.002 389.662 313.048 380.884C314.723 384.326 315.48 387.606 314.257 391.368C310.018 404.476 289.536 400.817 291.022 385.959C291.255 383.567 292.552 381.934 293.455 379.835C289.129 382.415 284.219 382.007 279.82 379.835C284.715 392.608 269.565 403.295 259.193 394.182C260.985 397.842 261.48 401.079 259.994 404.958C259.033 407.466 256.498 410.163 254.036 411.242C242.31 416.316 232.215 402.698 239.979 392.797C236.148 394.591 232.419 395.261 228.34 393.759C227.116 393.307 226.155 392.462 224.946 392.097C227.364 397.9 225.208 405.293 219.352 408.02C207.64 413.458 197.064 399.592 205.018 389.648C203.984 389.779 203.182 390.508 202.148 390.799C192.33 393.555 183.211 384.821 185.949 374.935C186.27 373.784 186.969 372.923 187.173 371.8C182.41 373.215 177.938 372.588 173.888 369.701C175.461 373.361 175.884 376.671 174.296 380.432C170.261 390.012 156.203 389.866 152.387 380.185C147.769 368.476 161.462 358.678 171.076 366.537C168.731 361.885 168.731 357.19 171.076 352.539C166.925 353.997 162.394 353.414 158.84 350.789C162.089 358.051 158.403 366.697 150.464 368.476C138.723 371.13 130.623 357.497 138.213 348.34C137.091 348.544 136.217 349.244 135.066 349.564C125.496 352.233 116.858 343.513 119.494 333.977C119.931 332.403 120.878 331.265 121.417 329.793C116.697 331.586 111.905 331.397 107.957 328.043C98.1679 319.746 105.51 304.422 118.373 306.419C120.091 306.682 121.592 307.834 123.18 308.432C121.941 305.428 121.65 301.768 122.67 298.648C122.845 298.108 124.141 296.081 123.879 295.834C118.678 297.408 113.507 296.49 109.545 292.684C109.909 293.967 110.637 294.9 111.031 296.256C114.731 308.84 98.401 317.107 90.4765 307.032C81.1972 295.265 98.0222 280.728 108.481 291.62C108.117 290.409 107.258 289.447 106.821 288.222C105.335 284.14 105.99 280.407 107.782 276.587C94.2348 281.078 84.402 265.724 94.1474 255.24C92.2536 256.13 90.5493 257.136 88.3788 257.325C78.2255 258.244 71.6994 246.652 78.0798 238.618C82.3917 233.194 90.1268 232.771 95.1962 237.378C94.4242 235.614 93.4627 233.821 93.1859 231.867C92.0788 223.716 98.7215 216.542 106.923 217.067C109.224 217.213 111.337 218.234 113.376 219.181C111.424 215.157 112.065 210.287 114.425 206.583C106.879 209.952 97.7163 205.111 96.6966 196.858C95.3419 186.039 106.442 178.938 115.823 184.187C112.225 173.747 121.169 163.686 131.978 166.792C133.085 167.113 133.974 167.798 135.052 168.09C133.45 164.692 133.755 160.974 135.227 157.591C135.474 157.037 137.062 155.069 136.8 154.792C126.268 160.624 114.439 149.134 120.31 138.461C126.603 127.03 144.477 132.235 142.7 146.524C142.452 148.536 141.389 149.863 140.646 151.642C145.118 149.849 149.808 149.543 153.931 152.342C152.052 147.705 153.028 142.937 156.029 139.044C145.686 144.148 134.396 134.32 138.839 123.413C142.204 115.146 153.042 113.615 159.175 119.797C158.418 118.018 157.296 116.371 157.077 114.373C155.009 95.972 182.92 95.972 180.851 114.373C180.632 116.371 179.511 118.018 178.753 119.797C182.905 117.785 187.29 117.989 191.339 120.147C189.708 115.306 190.786 110.32 194.136 106.499C189.999 108.497 185.848 108.891 181.783 106.427C174.558 102.052 174.66 91.0291 182.002 86.8297C191.281 81.5223 201.915 90.2125 198.696 100.39C198.215 101.921 197.166 102.985 196.583 104.385L196.598 104.327ZM228.398 110.64C223.955 112.638 219.002 112.244 215.113 109.241C216.657 112.842 217.109 116.429 215.725 120.191C215.273 121.416 214.428 122.378 214.064 123.588C218.216 121.358 223.241 121.882 227 124.638C224.917 119.739 225.368 115.029 228.398 110.64ZM262.66 114.125C258.727 116.079 254.211 115.336 250.424 113.425C252.157 118.281 251.516 122.991 248.326 127.073C251.982 125.499 255.289 125.076 259.047 126.665C260.504 127.277 261.305 128.24 262.66 128.823C260.883 125.032 259.892 121.897 261.16 117.698C261.538 116.429 262.427 115.408 262.66 114.125ZM297.272 117.289C294.46 118.237 292.129 118.543 289.216 117.829C287.788 117.479 286.696 116.779 285.385 116.24C287.177 120.789 286.506 125.105 283.986 129.187C288.196 127.584 292.377 127.861 296.223 130.237C294.489 126.009 294.693 121.124 297.272 117.289ZM174.558 123.238C169.124 125.411 163.516 124.463 159.525 120.089C160.122 121.503 161.127 122.553 161.637 124.099C162.54 126.84 162.54 129.435 161.637 132.191C161.127 133.737 160.122 134.772 159.525 136.201C163.88 133.81 168.542 134.087 172.81 136.551C170.989 132.002 171.557 127.117 174.558 123.253V123.238ZM209.869 127.088C205.644 128.969 200.983 129.144 196.933 126.738C198.39 131.418 197.53 136.055 194.486 139.861C195.753 139.89 196.962 138.986 198.244 138.723C211.704 135.953 217.779 154.063 206.824 160.26C196.802 165.932 185.731 156.162 190.014 145.533L191.849 142.121C187.479 144.833 182.002 145.022 177.69 142.121C182.118 153.888 170.348 164.371 159.161 158.568C160.18 162.126 160.122 165.29 158.636 168.717C158.403 169.241 156.786 171.268 157.063 171.516C165.803 167.929 174.966 173.441 174.208 183.254C172.956 199.22 146.793 195.648 151.571 178.442L153.916 173.966C149.779 176.751 144.637 176.649 140.282 174.316C140.966 176.605 141.228 179.054 140.937 181.446C140.689 183.502 139.539 185.047 138.883 186.914C148.264 183.02 158.316 191.696 155.417 201.553C153.013 209.762 142.787 212.941 136.086 207.56C138.563 212.649 137.892 218.234 134.338 222.608C138.49 220.625 142.335 220.246 146.458 222.55C153.771 226.661 154.484 237.131 147.74 242.146C142.452 246.069 136.028 245.004 131.541 240.455C131.993 241.636 132.809 242.496 133.348 243.721C135.474 248.577 134.324 253.52 131.192 257.602C132.27 257.325 133.158 256.625 134.265 256.305C144.448 253.374 153.159 263.493 148.57 273.073C145.336 279.824 136.363 281.821 130.492 277.199C132.546 281.734 132.43 286.589 129.793 290.847C141.957 286.677 151.979 299.143 145.176 310.094C154.528 306.201 164.448 313.608 162.846 323.756C162.555 325.622 161.651 327.299 160.909 328.991C172.693 324.033 183.648 335.946 177.34 347.188C180.632 346.342 183.619 346.08 186.882 347.275C188.105 347.727 189.067 348.573 190.276 348.938C186.022 339.052 195.083 328.787 205.411 332.578C211.194 334.692 214.516 341.589 212.403 347.465L209.854 352.087C211.238 351.766 212.301 350.906 213.7 350.512C222.528 348.019 230.918 355.382 229.695 364.422C229.462 366.143 228.529 367.616 228.034 369.234C232.404 367.995 236.891 368.199 240.62 370.984C235.23 356.972 252.419 346.648 262.296 358.036L259.761 353.414C256.513 343.63 266.579 334.429 276.076 338.833C282.981 342.041 285.079 350.891 280.49 356.986C284.962 354.93 289.42 355.164 293.775 357.336C289.464 345.03 303.419 334.881 313.703 342.988C309.158 333.452 316.253 322.561 327.003 324.252C328.868 324.544 330.543 325.448 332.233 326.191C327.178 314.628 339.575 303.751 350.412 310.094C348.912 305.049 349.684 300.077 353.209 296.096C352.131 296.373 351.243 297.073 350.136 297.394C339.953 300.325 331.257 290.205 335.831 280.626C339.356 273.262 348.999 271.95 354.957 277.199C355.103 277.01 353.428 273.627 353.297 272.737C352.568 268.057 353.996 264.207 357.055 260.752C355.526 261.379 354.185 262.312 352.525 262.691C343.814 264.703 336.326 257.209 338.336 248.489C340.463 239.245 352.029 236.795 358.454 243.255C357.929 241.724 356.807 240.455 356.385 238.866C355.759 236.518 355.788 233.354 356.545 231.021C356.735 230.452 358.614 227.318 358.454 227.157C351.782 230.54 343.318 226.938 341.221 219.735C338.555 210.622 347.193 201.961 356.298 204.644C357.55 205.009 358.585 205.927 359.852 206.146C358.861 203.755 358.541 201.218 358.803 198.622C358.993 196.727 359.881 195.254 360.551 193.548C348.752 197.456 338.497 184.945 345.168 174.301C335.335 178.194 324.862 169.723 327.513 159.253C327.819 158.043 328.445 156.964 328.737 155.754C323.988 157.27 319.355 156.352 315.451 153.304C317.17 157.241 317.666 161.003 315.757 164.984C311.606 173.659 298.073 173.28 294.562 164.24C289.944 152.342 303.098 143.229 313.004 150.505C310.877 146.131 310.469 141.173 313.004 136.857C310.717 137.542 308.27 137.805 305.881 137.513C303.812 137.265 302.283 136.113 300.418 135.457C303.463 142.135 299.529 150.359 292.45 152.153C281.044 155.025 272.668 142.471 279.441 133.008C276.004 134.466 272.507 134.962 268.953 133.518L264.408 130.893C264.86 132.439 265.734 133.766 265.996 135.428C266.841 140.779 264.233 146.101 259.28 148.347C247.612 153.64 237.109 139.627 245.179 129.858C241.552 131.331 239.018 132.06 235.114 130.996C233.511 130.558 232.317 129.785 230.845 129.144C233.759 135.997 230.234 144.323 222.877 146.189C211.471 149.061 203.095 136.507 209.869 127.044V127.088ZM350.412 137.586C349.422 137.819 348.723 138.505 347.703 138.898C345.445 139.759 342.925 139.977 340.536 139.598C338.802 139.336 337.317 138.184 335.729 137.586C337.943 141.756 337.346 146.422 335.379 150.534C338.54 149.047 341.454 149.368 344.644 150.534C345.766 150.942 346.538 151.613 347.616 151.934C345.503 146.801 346.654 141.567 350.412 137.586ZM133.653 191.128C131.264 192.119 128.744 192.44 126.137 192.177C124.243 191.988 122.772 191.098 121.067 190.428C121.883 193.286 122.058 195.925 121.228 198.812C120.864 200.066 120.062 201.115 119.669 202.326C122.437 200.882 126.457 200.882 129.342 201.903C129.924 202.107 132.779 203.886 132.94 203.711C131.687 200.693 131.192 197.879 132.138 194.685C132.503 193.431 133.42 192.396 133.639 191.128H133.653ZM376.633 212.824C374.346 213.509 371.899 213.772 369.51 213.48C367.456 213.232 365.912 212.08 364.047 211.424C365.766 215.857 365.067 220.217 362.299 224.022C366.757 221.879 371.768 222.039 375.934 224.722C374.288 220.756 374.579 216.557 376.633 212.824ZM131.905 224.722C128.497 226.428 124.738 227.157 120.995 226.02C120.397 225.845 118.154 224.489 117.921 224.722C119.538 228.819 119.349 233.267 116.872 236.97C122.145 235.293 127.157 236.372 131.206 240.12C130.755 238.749 129.779 237.641 129.356 236.212C128.118 231.998 129.269 228.134 131.92 224.737L131.905 224.722ZM110.929 241.855C106.238 244.071 101.3 242.628 97.2939 239.755C99.8577 245.165 98.9108 250.749 94.497 254.803C95.7643 254.292 96.6675 253.432 97.9931 252.893C102.116 251.216 105.976 251.886 109.865 253.753C108.554 249.583 108.977 245.733 110.914 241.855H110.929ZM373.836 246.754C368.84 249.131 363.057 247.702 359.153 243.954C359.779 245.485 360.711 246.827 361.09 248.489C362.11 252.951 360.609 257.223 357.405 260.402C358.672 259.891 359.575 259.031 360.901 258.492C365.023 256.815 368.884 257.486 372.773 259.352C371.316 255.59 371.418 252.499 372.846 248.752C373.137 247.979 373.778 247.541 373.807 246.754H373.836ZM128.759 259.716C125.831 261.029 123.471 261.787 120.179 261.481C118.139 261.291 116.639 260.329 114.774 259.716C116.085 263.887 115.663 267.736 113.726 271.615C116.828 270.215 120.426 270.171 123.602 271.337C124.826 271.79 125.787 272.635 126.996 273C124.986 268.378 125.802 263.668 128.744 259.702L128.759 259.716ZM393.065 264.266C391.914 264.528 391.142 265.447 390.021 265.928C387.646 266.963 385.126 267.299 382.562 266.905C380.698 266.613 379.022 265.709 377.333 264.966C379.27 269.005 378.512 273.321 376.633 277.214C381.834 275.522 387.02 276.572 390.967 280.363C390.254 278.701 389.321 277.345 389.03 275.478C388.302 270.915 389.86 267.401 393.065 264.266ZM370.69 282.113C365.577 283.731 360.755 282.798 356.705 279.313C357.23 280.815 358.118 282.157 358.366 283.775C358.949 287.756 357.9 290.803 355.657 294.011C360.304 291.663 364.994 291.663 369.641 294.011C368.782 291.124 368.534 287.814 369.481 284.927C369.656 284.387 370.952 282.361 370.69 282.113ZM139.946 314.293C135.824 316.276 130.638 315.635 127.011 312.893C128.803 317.428 128.497 322.196 125.612 326.191C130.055 324.179 134.906 324.296 138.898 327.241C138.359 324.835 137.63 322.983 137.863 320.417C138.067 318.245 139.087 316.232 139.946 314.293ZM349.364 332.505C345.066 334.284 340.347 333.977 336.428 331.455C338.249 336.004 337.681 340.889 334.68 344.753C339.502 342.507 344.382 343.091 348.664 346.153C347.033 342.464 346.625 338.789 348.155 334.954C348.519 334.036 349.218 333.423 349.364 332.505ZM156.043 333.205C153.64 333.73 151.79 334.473 149.226 334.24C147.055 334.05 145.045 333.015 143.108 332.14C144.943 336.835 144.229 341.37 141.359 345.438C145.904 343.207 150.712 343.411 154.994 346.138C153.246 341.764 153.538 337.214 156.043 333.19V333.205ZM330.485 348.252C325.721 349.9 320.899 349.696 316.85 346.502C318.496 350.206 318.889 353.866 317.36 357.701C317.127 358.269 315.641 360.661 315.801 360.85C320.025 358.459 325.59 358.998 329.436 361.9C328.023 358.532 327.557 355.455 328.722 351.912C329.159 350.585 330.077 349.55 330.485 348.252ZM209.519 352.452L205.673 354.712C201.653 356.388 197.268 355.659 193.801 353.137C195.855 357.613 195.622 362.075 193.452 366.435C197.676 364.466 201.726 365.56 205.688 367.484C203.153 362.017 205.324 356.286 209.534 352.437L209.519 352.452ZM276.295 360.5C272.872 361.754 269.681 362.06 266.273 360.573C264.918 359.975 264.015 358.867 262.675 358.415C262.995 359.8 263.855 360.865 264.248 362.264C265.34 366.158 264.685 369.351 262.675 372.763C266.943 371.261 270.483 371.626 274.561 373.463C273.716 370.167 273.454 367.178 274.649 363.927C275.1 362.702 275.945 361.74 276.309 360.529L276.295 360.5ZM311.955 364C307.76 365.924 303.055 366.099 299.02 363.65C300.433 368.418 299.806 372.894 296.922 376.948C301.875 374.454 307.017 375.271 311.256 378.697C310.848 377.108 309.843 375.941 309.595 374.236C309.056 370.503 309.683 367.033 311.955 364ZM221.756 374.498C217.662 375.737 213.86 375.344 210.218 373.098C212.068 377.852 211.369 382.809 208.121 386.746C212.768 384.778 217.181 384.909 221.406 387.796C219.352 383.319 219.585 378.858 221.756 374.498ZM257.416 377.298C254.182 378.464 251.458 378.785 248.137 377.662C247.51 377.443 245.078 376.044 244.83 376.248C246.957 381.001 245.893 386.25 242.732 390.245C243.825 389.881 244.713 389.341 245.879 389.021C249.914 387.927 253.41 388.904 256.717 391.295C254.532 386.586 254.328 381.672 257.416 377.298Z" fill="#FEE466"/>
<path d="M110.157 148.522C126.064 146.364 128.191 169.854 113.522 171.487C97.9931 173.222 95.8809 150.461 110.157 148.522Z" fill="#FEE466"/>
<path d="M88.8305 199.264C101.97 197.995 106.398 216.717 94.1475 221.383C77.8031 227.609 71.9472 200.897 88.8305 199.264Z" fill="#FEE466"/>
<path d="M274.474 75.7336C289.755 73.5173 292.144 96.2928 277.839 97.9988C263.534 99.7047 260.577 77.7604 274.474 75.7336Z" fill="#FEE466"/>
<path d="M240.212 72.5841C255.216 70.6157 257.489 93.7265 242.572 94.8784C227.655 96.0303 226.067 74.4359 240.212 72.5841Z" fill="#FEE466"/>
<path d="M281.102 392.768C298.626 389.808 299.122 416.783 281.393 414.348C270.162 412.802 269.915 394.649 281.102 392.768Z" fill="#FEE466"/>
<path d="M177.282 383.684C194.617 381.147 194.617 407.728 177.282 405.191C165.774 403.514 165.76 385.361 177.282 383.684Z" fill="#FEE466"/>
<path d="M396.139 297.248C411.128 295.804 412.002 318.667 397.435 318.871C383.859 319.061 382.635 298.546 396.139 297.248Z" fill="#FEE466"/>
<path d="M82.887 269.952C95.9829 268.567 99.4207 287.799 86.8784 291.095C71.816 295.046 67.81 271.556 82.887 269.952Z" fill="#FEE466"/>
<path d="M91.2631 165.655C105.524 163.395 108.074 184.77 94.6427 186.535C81.2118 188.299 78.2255 167.71 91.2631 165.655Z" fill="#FEE466"/>
<path d="M405.229 192.965C419.417 191.098 421.515 212.43 407.894 213.83C394.274 215.23 391.987 194.7 405.229 192.965Z" fill="#FEE466"/>
<path d="M204.537 70.4699C220.794 67.9182 221.013 92.8079 204.829 90.6499C193.961 89.2064 193.845 72.1321 204.537 70.4699Z" fill="#FEE466"/>
<path d="M309.071 79.5684C325.444 76.973 325.444 102.3 309.071 99.6902C298.51 98.0134 298.51 81.2453 309.071 79.5684Z" fill="#FEE466"/>
<path d="M355.598 364.772C366.728 363.898 370.632 379.718 360.449 384.005C345.795 390.173 340.39 365.983 355.598 364.772Z" fill="#FEE466"/>
<path d="M112.269 343.426C125.7 342.916 126.035 363.431 112.823 363.606C99.8578 363.766 99.3042 343.922 112.269 343.426Z" fill="#FEE466"/>
<path d="M227.961 406.766C238.901 404.914 244.524 418.518 235.725 424.686C226.927 430.853 215.943 419.932 221.828 411.125C223.023 409.317 225.805 407.145 227.976 406.78L227.961 406.766Z" fill="#FEE466"/>
<path d="M126.923 362.673C140.544 360.529 142.612 380.534 130.303 382.153C117.047 383.888 115.022 364.539 126.923 362.673Z" fill="#FEE466"/>
<path d="M335.642 380.87C349.262 378.726 351.33 398.732 339.021 400.35C325.765 402.085 323.74 382.736 335.642 380.87Z" fill="#FEE466"/>
<path d="M95.473 324.544C107.331 322.852 111.176 339.926 100.091 343.513C86.4414 347.931 81.9547 326.468 95.473 324.544Z" fill="#FEE466"/>
<path d="M374.113 349.039C387.253 347.173 389.438 367.105 376.779 368.505C364.12 369.905 361.833 350.789 374.113 349.039Z" fill="#FEE466"/>
<path d="M417.101 247.891C432.324 245.325 432.673 268.786 417.392 266.672C407.545 265.316 407.356 249.539 417.101 247.891Z" fill="#FEE466"/>
<path d="M69.2377 217.446C82.4646 215.361 84.4021 234.36 72.9086 236.168C59.6816 238.253 57.7442 219.254 69.2377 217.446Z" fill="#FEE466"/>
<path d="M262.922 409.915C275.989 407.816 278.116 426.8 266.593 428.637C253.527 430.737 251.4 411.752 262.922 409.915Z" fill="#FEE466"/>
<path d="M132.532 99.8798C145.395 98.0426 147.361 117.304 135.198 118.645C123.034 119.987 120.762 101.557 132.532 99.8798Z" fill="#FEE466"/>
<path d="M376.56 121.226C389.423 119.389 391.39 138.651 379.226 139.992C367.063 141.334 364.79 122.903 376.56 121.226Z" fill="#FEE466"/>
<path d="M193.714 403.981C206.577 402.143 208.543 421.405 196.38 422.746C184.216 424.088 181.944 405.657 193.714 403.981Z" fill="#FEE466"/>
<path d="M393.007 140.473C405.695 139.423 406.452 159.079 393.925 159.297C382.198 159.487 381.062 141.465 393.007 140.473Z" fill="#FEE466"/>
<path d="M114.716 115.962C127.215 115.467 127.506 134.582 115.27 134.743C103.252 134.903 102.713 116.444 114.716 115.962Z" fill="#FEE466"/>
<path d="M142.306 382.27C157.15 379.762 157.5 402.406 142.598 400.35C133.173 399.052 132.954 383.844 142.306 382.27Z" fill="#FEE466"/>
<path d="M359.765 102.665C374.609 100.157 374.958 122.801 360.056 120.745C350.631 119.447 350.413 104.239 359.765 102.665Z" fill="#FEE466"/>
<path d="M150.697 84.4676C165.541 81.9596 165.891 104.604 150.988 102.548C141.563 101.25 141.345 86.0423 150.697 84.4676Z" fill="#FEE466"/>
<path d="M316.413 397.667C331.257 395.159 331.606 417.803 316.704 415.748C307.279 414.45 307.061 399.242 316.413 397.667Z" fill="#FEE466"/>
<path d="M66.0912 252.79C74.1177 251.42 80.1776 260.227 75.4287 267.036C69.7912 275.114 57.2489 269.734 58.9242 259.964C59.4631 256.815 62.9447 253.33 66.0912 252.79Z" fill="#FEE466"/>
<path d="M258.727 58.5718C266.753 57.2012 272.813 66.0081 268.064 72.8175C262.427 80.8953 249.885 75.5149 251.56 65.7457C252.099 62.5962 255.58 59.1113 258.727 58.5718Z" fill="#FEE466"/>
<path d="M414.654 283.236C422.68 281.865 428.74 290.672 423.991 297.481C418.354 305.559 405.811 300.179 407.487 290.409C408.026 287.26 411.507 283.775 414.654 283.236Z" fill="#FEE466"/>
<path d="M79.3764 306.332C91.4817 304.422 93.8998 322.925 82.0567 324.412C70.2137 325.899 67.9266 308.14 79.3764 306.332Z" fill="#FEE466"/>
<path d="M392.978 333.977C405.083 332.067 407.501 350.571 395.658 352.058C383.917 353.545 381.528 335.785 392.978 333.977Z" fill="#FEE466"/>
<path d="M73.0979 182.816C85.4072 181.315 86.9221 200.226 74.744 200.926C63.3088 201.582 61.6627 184.202 73.0979 182.816Z" fill="#FEE466"/>
<path d="M421.311 213.611C433.62 212.11 435.135 231.021 422.957 231.721C411.522 232.377 409.876 214.997 421.311 213.611Z" fill="#FEE466"/>
<path d="M224.115 56.1222C235.959 54.2558 238.114 72.0738 226.796 73.5027C215.477 74.9317 213.19 57.8427 224.115 56.1222Z" fill="#FEE466"/>
<path d="M408.011 160.055C419.854 158.189 422.01 176.007 410.691 177.436C399.373 178.865 397.086 161.776 408.011 160.055Z" fill="#FEE466"/>
<path d="M294.038 62.0712C305.881 60.2048 308.037 78.0228 296.718 79.4517C285.399 80.8806 283.112 63.7917 294.038 62.0712Z" fill="#FEE466"/>
<path d="M95.1234 132.424C107.083 130.966 108.452 149.163 96.7695 149.834C85.0867 150.505 84.1835 133.751 95.1234 132.424Z" fill="#FEE466"/>
<path d="M169.926 69.0701C183.735 66.7225 184.318 87.3109 170.538 85.7799C161.608 84.7884 161.477 70.499 169.926 69.0701Z" fill="#FEE466"/>
<path d="M344.032 84.4676C357.842 82.1201 358.424 102.708 344.644 101.177C335.714 100.186 335.583 85.8966 344.032 84.4676Z" fill="#FEE466"/>
<path d="M299.602 414.173C310.469 414.012 310.688 430.547 299.835 430.693C288.983 430.839 288.75 414.319 299.602 414.173Z" fill="#FEE466"/>
<path d="M158.039 402.216C171.324 399.519 171.936 420.341 158.33 418.212C150.347 416.958 150.071 403.835 158.039 402.216Z" fill="#FEE466"/>
<path d="M64.008 288.499C75.1082 287.085 76.3027 303.897 65.6541 304.509C55.0055 305.122 54.1024 289.768 64.008 288.499Z" fill="#FEE466"/>
<path d="M412.221 318.944C423.321 317.53 424.516 334.342 413.867 334.954C403.626 335.537 402.315 320.213 412.221 318.944Z" fill="#FEE466"/>
<path d="M75.8803 149.557C86.3395 147.764 88.4371 163.132 78.8665 164.78C68.4073 166.573 66.3096 151.205 75.8803 149.557Z" fill="#FEE466"/>
<path d="M424.093 180.002C434.523 178.223 436.621 193.606 427.079 195.225C416.649 197.004 414.552 181.621 424.093 180.002Z" fill="#FEE466"/>
<path d="M209.796 424.627C220.488 423.257 221.581 439.354 211.442 439.937C201.609 440.506 200.415 425.838 209.796 424.627Z" fill="#FEE466"/>
<path d="M244.742 427.762C254.808 426.217 256.906 441.891 246.724 443.043C236.541 444.195 234.924 429.264 244.742 427.762Z" fill="#FEE466"/>
<path d="M189.154 54.3724C201.129 52.3019 201.609 70.2657 189.766 68.9826C181.725 68.1223 181.623 55.6701 189.154 54.3724Z" fill="#FEE466"/>
<path d="M328.3 66.6205C340.274 64.55 340.754 82.5137 328.911 81.2306C320.87 80.3703 320.768 67.9182 328.3 66.6205Z" fill="#FEE466"/>
<path d="M51.0579 235.293C60.8179 233.791 62.6825 248.795 53.039 249.874C43.3956 250.953 41.7932 236.708 51.0579 235.293Z" fill="#FEE466"/>
<path d="M434.232 268.888C443.992 267.386 445.856 282.39 436.213 283.469C426.846 284.519 424.967 270.302 434.232 268.888Z" fill="#FEE466"/>
<path d="M54.5685 200.649C62.8573 199.73 65.8289 211.672 58.0355 214.632C47.5763 218.583 43.9782 201.815 54.5685 200.649Z" fill="#FEE466"/>
<path d="M438.107 234.243C447.823 233.704 448.246 248.649 438.66 248.824C429.075 248.999 428.798 234.768 438.107 234.243Z" fill="#FEE466"/>
<path d="M92.6616 362.323C100.28 361.083 104.082 371.844 96.9589 375.373C87.1698 380.228 82.4792 363.97 92.6616 362.323Z" fill="#FEE466"/>
<path d="M371.302 386.819C378.92 385.579 382.722 396.34 375.599 399.869C365.81 404.724 361.119 388.466 371.302 386.819Z" fill="#FEE466"/>
<path d="M175.898 422.163C185.192 421.638 185.556 435.884 176.452 436.044C167.347 436.205 167.056 422.659 175.898 422.163Z" fill="#FEE466"/>
<path d="M244.072 41.7745C253.366 41.2496 253.73 55.4952 244.626 55.6556C235.522 55.816 235.23 42.2703 244.072 41.7745Z" fill="#FEE466"/>
<path d="M279.034 44.9239C288.327 44.399 288.692 58.6447 279.587 58.805C270.483 58.9654 270.191 45.4197 279.034 44.9239Z" fill="#FEE466"/>
<path d="M280.417 431.597C289.42 430.897 290.265 445.245 280.985 445.493C272.405 445.711 271.4 432.297 280.417 431.597Z" fill="#FEE466"/>
<path d="M351.724 402.916C362.78 400.875 363.304 417.381 352.335 416.127C345.183 415.31 345.139 404.127 351.724 402.916Z" fill="#FEE466"/>
<path d="M107.695 381.57C118.795 379.295 119.174 396.574 107.986 394.765C101.3 393.686 101.169 382.897 107.695 381.57Z" fill="#FEE466"/>
<path d="M389.482 371.071C400.582 368.797 400.961 386.075 389.773 384.267C383.087 383.188 382.956 372.398 389.482 371.071Z" fill="#FEE466"/>
<path d="M76.2299 343.776C86.8493 341.939 87.1261 358.371 76.5212 356.957C69.427 356.009 69.2231 344.986 76.2299 343.776Z" fill="#FEE466"/>
<path d="M47.9114 270.987C56.8119 269.544 58.56 283.119 49.8925 284.169C41.2251 285.218 39.6372 272.329 47.9114 270.987Z" fill="#FEE466"/>
<path d="M431.085 304.582C439.986 303.139 441.734 316.714 433.066 317.763C424.545 318.799 422.811 305.924 431.085 304.582Z" fill="#FEE466"/>
<path d="M116.785 84.1176C124.258 82.8345 127.463 92.0205 121.752 95.7387C118.868 97.6196 114.716 96.6573 112.866 93.814C110.579 90.3 112.604 84.8321 116.785 84.1176Z" fill="#FEE466"/>
<path d="M395.425 108.614C402.898 107.331 406.103 116.517 400.392 120.235C397.508 122.116 393.356 121.153 391.506 118.31C389.219 114.796 391.244 109.328 395.425 108.614Z" fill="#FEE466"/>
<path d="M439.826 200.299C447.299 199.016 450.503 208.202 444.793 211.92C441.909 213.801 437.757 212.839 435.907 209.995C433.62 206.481 435.645 201.013 439.826 200.299Z" fill="#FEE466"/>
<path d="M56.6516 166.704C66.5427 164.867 67.1545 180.206 57.2634 179.215C50.3294 178.53 50.0527 167.915 56.6516 166.704Z" fill="#FEE466"/>
<path d="M124.476 400.817C133.114 399.417 134.615 412.306 126.457 413.298C118.3 414.289 116.726 402.071 124.476 400.817Z" fill="#FEE466"/>
<path d="M98.2553 100.215C106.894 98.8153 108.394 111.705 100.236 112.696C92.0789 113.688 90.5056 101.469 98.2553 100.215Z" fill="#FEE466"/>
<path d="M333.194 419.364C341.832 417.964 343.333 430.853 335.175 431.845C327.018 432.836 325.444 420.618 333.194 419.364Z" fill="#FEE466"/>
<path d="M411.507 127.511C420.145 126.111 421.646 139.001 413.488 139.992C405.331 140.984 403.757 128.765 411.507 127.511Z" fill="#FEE466"/>
<path d="M380.057 89.7168C388.826 88.7545 389.394 102.052 380.989 102.242C373.123 102.417 372.336 90.5625 380.057 89.7168Z" fill="#FEE466"/>
<path d="M136.378 68.3702C145.147 67.4079 145.715 80.7058 137.31 80.8953C129.444 81.0703 128.657 69.2159 136.378 68.3702Z" fill="#FEE466"/>
<path d="M209.446 39.6603C211.704 39.4853 214.283 41.0746 215.317 43.0722C218.318 48.89 211.253 54.8682 206.023 50.6252C201.58 47.0383 204.115 40.0977 209.446 39.6749V39.6603Z" fill="#FEE466"/>
<path d="M312.567 49.1233C317.331 48.1464 320.798 51.0626 320.375 55.8889C319.734 63.1794 307.338 62.9315 308.459 53.76C308.692 51.8937 310.717 49.5024 312.567 49.1233Z" fill="#FEE466"/>
<path d="M60.1477 325.579C64.9111 324.602 68.3781 327.518 67.9557 332.344C67.3147 339.635 54.9181 339.387 56.0397 330.215C56.2728 328.349 58.2976 325.958 60.1477 325.579Z" fill="#FEE466"/>
<path d="M408.361 356.024C413.124 355.047 416.591 357.963 416.169 362.789C415.528 370.08 403.131 369.832 404.253 360.661C404.486 358.794 406.511 356.403 408.361 356.024Z" fill="#FEE466"/>
<path d="M78.6771 116.662C87.869 114.956 88.3643 128.692 79.289 127.773C73.0688 127.146 72.996 117.712 78.6771 116.662Z" fill="#FEE466"/>
<path d="M427.24 147.107C436.432 145.401 436.927 159.137 427.851 158.218C421.631 157.591 421.558 148.157 427.24 147.107Z" fill="#FEE466"/>
<path d="M154.892 52.9727C162.759 51.7041 163.91 62.9169 157.179 63.9959C149.313 65.2645 148.162 54.0517 154.892 52.9727Z" fill="#FEE466"/>
<path d="M225.864 445.609C233.73 444.341 234.881 455.554 228.151 456.633C220.284 457.901 219.134 446.688 225.864 445.609Z" fill="#FEE466"/>
<path d="M363.96 71.5197C371.826 70.2511 372.977 81.4639 366.247 82.5429C358.381 83.8115 357.23 72.5987 363.96 71.5197Z" fill="#FEE466"/>
<path d="M139.859 421.113C148.643 419.291 148.964 432.895 140.15 431.51C134.863 430.678 134.746 422.178 139.859 421.113Z" fill="#FEE466"/>
<path d="M313.966 436.161C322.75 434.338 323.07 447.942 314.257 446.557C308.969 445.726 308.852 437.225 313.966 436.161Z" fill="#FEE466"/>
<path d="M40.1907 219.94C45.0125 224.766 37.5687 232.231 32.7324 227.405C27.8961 222.579 35.3544 215.113 40.1907 219.94Z" fill="#FEE466"/>
<path d="M265.69 450.552C270.512 455.379 263.068 462.844 258.232 458.018C253.395 453.191 260.854 445.726 265.69 450.552Z" fill="#FEE466"/>
<path d="M453.475 255.24C460.424 254.234 461.633 264.995 454.742 265.651C448.231 266.263 446.934 256.188 453.475 255.24Z" fill="#FEE466"/>
<path d="M45.4786 307.382C52.4271 306.376 53.6362 317.136 46.7459 317.792C40.2344 318.405 38.9379 308.329 45.4786 307.382Z" fill="#FEE466"/>
<path d="M428.303 340.976C435.252 339.97 436.461 350.731 429.57 351.387C423.059 351.999 421.762 341.924 428.303 340.976Z" fill="#FEE466"/>
<path d="M191.267 443.16C198.215 442.154 199.424 452.914 192.534 453.571C186.022 454.183 184.726 444.107 191.267 443.16Z" fill="#FEE466"/>
<path d="M449.964 290.584C456.563 289.228 458.209 298.998 452.251 300.222C445.652 301.578 444.006 291.809 449.964 290.584Z" fill="#FEE466"/>
<path d="M443.686 167.054C450.372 166.092 451.348 176.153 444.953 176.765C438.558 177.378 437.655 167.929 443.686 167.054Z" fill="#FEE466"/>
<path d="M60.5119 133.11C67.1982 132.147 68.1742 142.208 61.7792 142.821C55.3842 143.433 54.4811 133.985 60.5119 133.11Z" fill="#FEE466"/>
<path d="M32.543 253.84C39.2293 252.878 40.2053 262.939 33.8103 263.551C27.4154 264.164 26.5122 254.715 32.543 253.84Z" fill="#FEE466"/>
<path d="M263.287 28.1122C268.56 27.6601 270.585 35.0964 265.777 37.269C258.771 40.4331 256.017 28.7391 263.287 28.1122Z" fill="#FEE466"/>
<path d="M456.971 220.581C463.162 219.867 464.138 230 457.554 230.292C451.771 230.54 450.693 221.31 456.971 220.581Z" fill="#FEE466"/>
<path d="M38.836 184.187C45.027 183.472 46.003 193.606 39.4187 193.898C33.6355 194.146 32.5575 184.916 38.836 184.187Z" fill="#FEE466"/>
<path d="M173.422 38.275C178.622 37.0794 181.74 42.9847 177.908 46.2508C174.077 49.517 168.76 45.376 170.654 40.7392C170.945 40.0102 172.65 38.45 173.436 38.275H173.422Z" fill="#FEE466"/>
<path d="M347.878 53.3227C355.045 52.025 355.569 62.5233 348.839 62.3629C343.275 62.2317 343.056 54.183 347.878 53.3227Z" fill="#FEE466"/>
<path d="M228.325 25.3125C232.594 24.8313 235.288 31.0283 230.977 33.5945C224.8 37.2543 221.26 26.1145 228.325 25.3125Z" fill="#FEE466"/>
<path d="M297.898 31.6116C302.166 31.1304 304.861 37.3273 300.549 39.8936C294.373 43.5534 290.833 32.4135 297.898 31.6116Z" fill="#FEE466"/>
<path d="M156.64 441.06C162.132 439.996 163.487 448.715 157.922 449.371C152.824 449.969 151.44 442.066 156.64 441.06Z" fill="#FEE466"/>
<path d="M295.786 453.308C301.278 452.244 302.632 460.963 297.068 461.619C291.969 462.217 290.585 454.314 295.786 453.308Z" fill="#FEE466"/>
<path d="M73.768 381.57C79.187 380.316 80.4835 387.737 76.3318 389.035C70.7089 390.799 69.1794 382.62 73.768 381.57Z" fill="#FEE466"/>
<path d="M387.02 408.865C392.439 407.611 393.735 415.033 389.584 416.331C383.961 418.095 382.431 409.915 387.02 408.865Z" fill="#FEE466"/>
<path d="M29.0177 289.535C34.4367 288.281 35.7332 295.702 31.5815 297C25.944 298.764 24.4291 290.584 29.0177 289.535Z" fill="#FEE466"/>
<path d="M447.153 326.279C452.572 325.025 453.868 332.446 449.717 333.744C444.079 335.508 442.564 327.328 447.153 326.279Z" fill="#FEE466"/>
<path d="M58.7201 362.367C63.5273 362.206 63.8041 369.657 58.9678 369.817C54.1315 369.978 53.8838 362.527 58.7201 362.367Z" fill="#FEE466"/>
<path d="M460.074 187.045C464.881 186.884 465.158 194.335 460.322 194.496C455.485 194.656 455.238 187.205 460.074 187.045Z" fill="#FEE466"/>
<path d="M42.2884 150.301C47.0955 150.14 47.3723 157.591 42.536 157.752C37.6997 157.912 37.4521 150.461 42.2884 150.301Z" fill="#FEE466"/>
<path d="M90.5348 400.51C95.342 400.35 95.6188 407.801 90.7825 407.961C85.9462 408.122 85.6985 400.671 90.5348 400.51Z" fill="#FEE466"/>
<path d="M369.175 425.006C373.982 424.846 374.259 432.297 369.423 432.457C364.586 432.618 364.339 425.167 369.175 425.006Z" fill="#FEE466"/>
<path d="M406.933 393.162C411.74 393.001 412.017 400.452 407.181 400.612C402.344 400.773 402.097 393.322 406.933 393.162Z" fill="#FEE466"/>
<path d="M101.766 68.0057C105.408 67.5537 107.272 72.7591 103.689 74.5088C98.9108 76.8564 96.6238 68.6473 101.766 68.0057Z" fill="#FEE466"/>
<path d="M332.859 35.4609C336.501 35.0089 338.366 40.2143 334.782 41.964C330.004 44.3116 327.717 36.1025 332.859 35.4609Z" fill="#FEE466"/>
<path d="M193.364 23.2129C197.006 22.7609 198.871 27.9663 195.287 29.716C190.509 32.0635 188.222 23.8544 193.364 23.2129Z" fill="#FEE466"/>
<path d="M242.31 466.591C245.952 466.139 247.816 471.345 244.233 473.095C239.455 475.442 237.168 467.233 242.31 466.591Z" fill="#FEE466"/>
<path d="M415.367 95.6512C419.009 95.1992 420.874 100.405 417.29 102.154C412.512 104.502 410.225 96.2928 415.367 95.6512Z" fill="#FEE466"/>
<path d="M208.004 463.821C212.229 463.602 212.709 470.397 208.237 470.616C203.765 470.835 203.532 464.04 208.004 463.821Z" fill="#FEE466"/>
<path d="M430.386 114.913C436.271 113.571 436.271 122.407 430.386 121.066C427.633 120.439 427.633 115.554 430.386 114.913Z" fill="#FEE466"/>
<path d="M105.597 420.064C111.482 418.722 111.482 427.558 105.597 426.217C102.844 425.59 102.844 420.705 105.597 420.064Z" fill="#FEE466"/>
<path d="M349.276 441.41C355.161 440.069 355.161 448.905 349.276 447.563C346.523 446.936 346.523 442.052 349.276 441.41Z" fill="#FEE466"/>
<path d="M42.3175 344.111C46.5857 343.163 47.7074 349.433 43.9053 350.279C39.6372 351.227 38.5155 344.957 42.3175 344.111Z" fill="#FEE466"/>
<path d="M425.492 377.706C429.76 376.758 430.881 383.028 427.079 383.874C422.811 384.821 421.69 378.551 425.492 377.706Z" fill="#FEE466"/>
<path d="M120.281 52.6081C124.549 51.6604 125.671 57.9302 121.869 58.7759C117.601 59.7237 116.479 53.4538 120.281 52.6081Z" fill="#FEE466"/>
<path d="M82.5229 84.1031C86.791 83.1554 87.9127 89.4252 84.1107 90.2709C79.8425 91.2186 78.7208 84.9488 82.5229 84.1031Z" fill="#FEE466"/>
<path d="M398.921 76.7543C403.189 75.8065 404.311 82.0763 400.509 82.922C396.241 83.8698 395.119 77.5999 398.921 76.7543Z" fill="#FEE466"/>
<path d="M469.557 276.208C473.607 275.551 474.364 282.215 470.14 282.448C466.498 282.652 465.639 276.849 469.557 276.208Z" fill="#FEE466"/>
<path d="M17.1164 236.708C20.9913 236.518 21.3555 242.598 17.3495 242.803C13.3435 243.007 13.1105 236.912 17.1164 236.708Z" fill="#FEE466"/>
<path d="M19.2286 202.049C24.5311 200.474 24.5311 209.077 19.2286 207.502C16.9853 206.831 16.9853 202.719 19.2286 202.049Z" fill="#FEE466"/>
<path d="M471.975 241.592C477.278 240.018 477.278 248.62 471.975 247.046C469.732 246.375 469.732 242.263 471.975 241.592Z" fill="#FEE466"/>
<path d="M66.4407 101.279C68.9754 103.831 64.984 107.826 62.4347 105.289C59.8855 102.752 63.8914 98.7423 66.4407 101.279Z" fill="#FEE466"/>
<path d="M279.704 471.17C282.238 473.721 278.247 477.717 275.698 475.18C273.148 472.642 277.154 468.633 279.704 471.17Z" fill="#FEE466"/>
<path d="M175.17 462.071C177.704 464.623 173.713 468.618 171.164 466.081C168.615 463.544 172.621 459.534 175.17 462.071Z" fill="#FEE466"/>
<path d="M449.615 134.874C452.149 137.426 448.158 141.421 445.609 138.884C443.06 136.347 447.066 132.337 449.615 134.874Z" fill="#FEE466"/>
<path d="M249.637 12.0438C252.172 14.5955 248.18 18.5907 245.631 16.0536C243.082 13.5165 247.088 9.50674 249.637 12.0438Z" fill="#FEE466"/>
<path d="M139.145 37.2252C144.098 35.7671 144.098 43.4221 139.145 41.9786C137.324 41.4391 137.31 37.7647 139.145 37.2252Z" fill="#FEE466"/>
<path d="M281.437 14.4788C286.39 13.0207 286.39 20.6758 281.437 19.2322C279.616 18.6928 279.602 15.0183 281.437 14.4788Z" fill="#FEE466"/>
<path d="M382.824 58.5717C387.777 57.1136 387.777 64.7687 382.824 63.3251C381.003 62.7857 380.989 59.1112 382.824 58.5717Z" fill="#FEE466"/>
<path d="M330.383 457.857C335.336 456.399 335.336 464.054 330.383 462.611C328.562 462.071 328.547 458.397 330.383 457.857Z" fill="#FEE466"/>
<path d="M121.679 439.646C124.884 438.669 126.224 443.51 123.282 444.399C120.077 445.376 118.737 440.535 121.679 439.646Z" fill="#FEE466"/>
<path d="M13.6494 272.023C16.8542 271.046 18.1944 275.887 15.2518 276.776C12.0471 277.753 10.7069 272.912 13.6494 272.023Z" fill="#FEE466"/>
<path d="M466.396 311.916C469.601 310.939 470.941 315.78 467.999 316.67C464.794 317.647 463.454 312.806 466.396 311.916Z" fill="#FEE466"/>
<path d="M475.836 207.269C479.128 206.685 479.725 211.905 476.418 212.109C473.519 212.299 472.893 207.794 475.836 207.269Z" fill="#FEE466"/>
<path d="M23.4094 167.433C26.4685 167.273 26.7161 171.968 23.657 172.129C20.5979 172.289 20.3503 167.594 23.4094 167.433Z" fill="#FEE466"/>
<path d="M26.9056 325.958C29.9647 325.797 30.2123 330.493 27.1532 330.653C24.0941 330.813 23.8465 326.118 26.9056 325.958Z" fill="#FEE466"/>
<path d="M212.899 8.55895C215.958 8.39856 216.205 13.0936 213.146 13.254C210.087 13.4144 209.84 8.71934 212.899 8.55895Z" fill="#FEE466"/>
<path d="M445.041 362.702C448.1 362.542 448.347 367.237 445.288 367.397C442.229 367.557 441.982 362.862 445.041 362.702Z" fill="#FEE466"/>
<path d="M44.7648 116.998C47.8822 116.065 48.6834 120.366 46.3672 121.051C43.2498 121.985 42.4486 117.683 44.7648 116.998Z" fill="#FEE466"/>
<path d="M462.55 153.742C465.668 152.809 466.469 157.11 464.153 157.795C461.035 158.729 460.234 154.427 462.55 153.742Z" fill="#FEE466"/>
<path d="M316.413 17.9638C319.53 17.0306 320.331 21.332 318.015 22.0173C314.898 22.9505 314.097 18.6491 316.413 17.9638Z" fill="#FEE466"/>
<path d="M368.126 40.0248C369.496 39.8936 370.952 41.8475 369.656 43.2764C367.077 46.1197 364.572 40.3456 368.126 40.0248Z" fill="#FEE466"/>
<path d="M159.059 21.8277C160.428 21.6965 161.885 23.6503 160.588 25.0792C158.01 27.9225 155.504 22.1485 159.059 21.8277Z" fill="#FEE466"/>
<path d="M223.737 484.103C225.106 483.972 226.563 485.926 225.266 487.355C222.688 490.198 220.182 484.424 223.737 484.103Z" fill="#FEE466"/>
<path d="M139.524 459.607C140.442 460.526 139.99 462.582 138.359 462.655C134.629 462.8 137.135 457.216 139.524 459.607Z" fill="#FEE466"/>
<path d="M490.534 262.239C491.452 263.158 491 265.213 489.368 265.286C485.639 265.432 488.145 259.848 490.534 262.239Z" fill="#FEE466"/>
<path d="M313.98 475.005C314.898 475.923 314.446 477.979 312.815 478.052C309.086 478.198 311.591 472.613 313.98 475.005Z" fill="#FEE466"/>
<path d="M260.14 487.953C261.058 488.871 260.606 490.927 258.975 491C255.245 491.146 257.751 485.561 260.14 487.953Z" fill="#FEE466"/>
<path d="M478.603 173.324C481.371 172.391 481.881 176.255 479.259 176.109C477.438 176.007 477.758 173.616 478.603 173.324Z" fill="#FEE466"/>
<path d="M10.4738 308.052C13.2415 307.119 13.7514 310.983 11.1293 310.837C9.30839 310.735 9.62887 308.344 10.4738 308.052Z" fill="#FEE466"/>
<path d="M463.22 347.596C465.988 346.663 466.498 350.527 463.876 350.381C462.055 350.279 462.376 347.888 463.22 347.596Z" fill="#FEE466"/>
<path d="M0.684698 219.167C3.45245 218.234 3.9623 222.097 1.34022 221.952C-0.480673 221.85 -0.160196 219.458 0.684698 219.167Z" fill="#FEE466"/>
<path d="M188.426 481.624C191.194 480.691 191.704 484.555 189.081 484.409C187.261 484.307 187.581 481.916 188.426 481.624Z" fill="#FEE466"/>
<path d="M4.16616 184.858C5.68114 184.376 6.23469 186.17 5.37523 186.768C3.86025 187.832 2.82598 185.281 4.16616 184.858Z" fill="#FEE466"/>
<path d="M26.1918 134.116C27.7068 133.635 28.2603 135.428 27.4009 136.026C25.8859 137.09 24.8516 134.539 26.1918 134.116Z" fill="#FEE466"/>
<path d="M422.651 414.771C424.166 414.289 424.72 416.083 423.86 416.681C422.345 417.745 421.311 415.193 422.651 414.771Z" fill="#FEE466"/>
<path d="M71.2916 418.97C72.8066 418.489 73.3602 420.282 72.5007 420.88C70.9857 421.944 69.9515 419.393 71.2916 418.97Z" fill="#FEE466"/>
<path d="M55.5591 400.073C57.0741 399.592 57.6276 401.385 56.7682 401.983C55.2532 403.048 54.2189 400.496 55.5591 400.073Z" fill="#FEE466"/>
<path d="M39.4769 381.176C40.9919 380.695 41.5455 382.488 40.686 383.086C39.171 384.151 38.1368 381.599 39.4769 381.176Z" fill="#FEE466"/>
<path d="M300.986 0.0875121C302.501 -0.39366 303.055 1.3998 302.195 1.99762C300.68 3.06203 299.646 0.510361 300.986 0.0875121Z" fill="#FEE466"/>
<path d="M384.893 446.615C386.408 446.134 386.961 447.928 386.102 448.526C384.587 449.59 383.553 447.038 384.893 446.615Z" fill="#FEE466"/>
<path d="M403.772 430.518C405.287 430.037 405.841 431.83 404.981 432.428C403.466 433.493 402.432 430.941 403.772 430.518Z" fill="#FEE466"/>
<path d="M351.68 22.1339C353.195 21.6527 353.748 23.4462 352.889 24.044C351.374 25.1084 350.34 22.5567 351.68 22.1339Z" fill="#FEE466"/>
<path d="M177.573 6.73644C179.088 6.25527 179.642 8.04873 178.782 8.64655C177.267 9.71096 176.233 7.15929 177.573 6.73644Z" fill="#FEE466"/>
<path d="M485.581 297.19C487.096 296.708 487.65 298.502 486.79 299.1C485.275 300.164 484.241 297.612 485.581 297.19Z" fill="#FEE466"/>
<path d="M334.607 185.966C350.995 183.589 352.903 206.86 338.963 208.887C322.575 211.264 320.666 187.993 334.607 185.966Z" fill="#FEE466"/>
<path d="M234.269 335.042C250.176 332.884 252.303 356.374 237.634 358.007C222.105 359.742 219.993 336.981 234.269 335.042Z" fill="#FEE466"/>
<path d="M319.574 167.069C335.423 165.203 337.084 189.101 321.919 190.063C306.755 191.025 305.138 168.775 319.574 167.069Z" fill="#FEE466"/>
<path d="M180.429 154.821C196.249 152.955 197.909 176.853 182.774 177.815C167.639 178.777 166.022 156.527 180.429 154.821Z" fill="#FEE466"/>
<path d="M152.11 275.201C167.449 273.189 169.897 297 154.47 298.196C139.917 299.333 137.456 277.112 152.11 275.201Z" fill="#FEE466"/>
<path d="M326.566 290.599C339.808 289.33 344.09 308.14 331.883 312.718C315.408 318.886 309.741 292.217 326.566 290.599Z" fill="#FEE466"/>
<path d="M289.172 322.444C304.847 321.525 305.254 345.278 290.09 345.453C274.926 345.628 274.547 323.304 289.172 322.444Z" fill="#FEE466"/>
<path d="M184.638 312.981C197.501 311.975 201.507 330.522 189.839 334.998C173.028 341.443 167.391 314.322 184.638 312.981Z" fill="#FEE466"/>
<path d="M167.478 294.434C183.153 291.97 185.44 314.526 171.849 316.655C156.174 319.119 153.887 296.563 167.478 294.434Z" fill="#FEE466"/>
<path d="M306.624 306.682C322.298 304.218 324.585 326.774 310.994 328.903C295.32 331.367 293.033 308.811 306.624 306.682Z" fill="#FEE466"/>
<path d="M267.817 145.708C285.341 142.748 285.836 169.723 268.108 167.288C256.877 165.742 256.629 147.589 267.817 145.708Z" fill="#FEE466"/>
<path d="M232.856 142.558C250.38 139.598 250.875 166.573 233.147 164.138C221.916 162.592 221.668 144.439 232.856 142.558Z" fill="#FEE466"/>
<path d="M332.16 221.66C347.048 219.473 349.262 241.592 335.525 243.225C320.987 244.96 318.816 223.614 332.16 221.66Z" fill="#FEE466"/>
<path d="M158.053 206.263C172.941 204.075 175.155 226.195 161.418 227.828C146.88 229.563 144.71 208.216 158.053 206.263Z" fill="#FEE466"/>
<path d="M155.257 241.257C169.722 239.361 172.038 261.364 157.922 262.822C143.851 264.266 141.505 243.065 155.257 241.257Z" fill="#FEE466"/>
<path d="M329.363 256.304C343.828 254.409 346.144 276.412 332.029 277.87C317.913 279.328 315.612 258.112 329.363 256.304Z" fill="#FEE466"/>
<path d="M227.932 320.023C237.823 329.924 222.688 345.074 212.797 335.173C202.906 325.273 218.041 310.123 227.932 320.023Z" fill="#FEE466"/>
<path d="M262.544 323.173C272.435 333.073 257.299 348.223 247.408 338.323C237.517 328.422 252.652 313.272 262.544 323.173Z" fill="#FEE466"/>
<path d="M216.409 159.064C229.957 158.904 230.205 179.623 216.643 179.783C203.081 179.944 202.847 159.224 216.409 159.064Z" fill="#FEE466"/>
<path d="M285.982 165.013C299.53 164.852 299.777 185.572 286.215 185.732C272.653 185.893 272.42 165.173 285.982 165.013Z" fill="#FEE466"/>
<path d="M176.568 190.85C192.942 188.255 192.942 213.582 176.568 210.972C166.007 209.295 166.007 192.527 176.568 190.85Z" fill="#FEE466"/>
<path d="M315.714 203.099C330.077 200.663 332.204 221.179 320.098 223.235C305.735 225.67 303.608 205.154 315.714 203.099Z" fill="#FEE466"/>
<path d="M310.834 273.102C322.924 271.833 326.362 289.199 315.102 292.771C300.986 297.248 296.485 274.618 310.834 273.102Z" fill="#FEE466"/>
<path d="M171.339 260.854C183.429 259.585 186.867 276.951 175.607 280.523C161.491 285 156.99 262.37 171.339 260.854Z" fill="#FEE466"/>
<path d="M301.044 184.216C312.654 182.802 316.835 199.905 305.517 203.74C291.343 208.537 286.579 185.98 301.044 184.216Z" fill="#FEE466"/>
<path d="M196.511 175.118C208.121 173.703 212.302 190.807 200.983 194.641C186.809 199.439 182.046 176.882 196.511 175.118Z" fill="#FEE466"/>
<path d="M273.44 304.932C286.871 304.422 287.206 324.937 273.993 325.112C261.029 325.273 260.475 305.428 273.44 304.932Z" fill="#FEE466"/>
<path d="M204.173 298.691C217.342 298.546 217.56 318.565 204.406 318.711C191.237 318.857 191.019 298.837 204.173 298.691Z" fill="#FEE466"/>
<path d="M249.637 162.505C263.257 160.362 265.326 180.367 253.017 181.985C239.761 183.72 237.736 164.371 249.637 162.505Z" fill="#FEE466"/>
<path d="M291.605 289.199C304.745 287.333 306.93 307.265 294.271 308.665C281.612 310.065 279.325 290.949 291.605 289.199Z" fill="#FEE466"/>
<path d="M187.071 280.101C200.211 278.234 202.396 298.166 189.737 299.566C177.078 300.966 174.791 281.85 187.071 280.101Z" fill="#FEE466"/>
<path d="M175.49 226.253C188.033 226.064 188.382 245.398 175.723 245.573C163.181 245.762 162.831 226.428 175.49 226.253Z" fill="#FEE466"/>
<path d="M314.985 238.501C327.528 238.312 327.877 257.646 315.218 257.821C302.676 258.01 302.326 238.676 314.985 238.501Z" fill="#FEE466"/>
<path d="M237.765 302.497C250.584 300.674 252.565 319.921 240.431 321.263C227.976 322.633 226.009 304.174 237.765 302.497Z" fill="#FEE466"/>
<path d="M230.758 179.652C242.994 177.553 245.019 195.166 234.444 196.989C222.207 199.089 220.182 181.475 230.758 179.652Z" fill="#FEE466"/>
<path d="M265.37 182.452C277.606 180.352 279.631 197.966 269.055 199.789C256.819 201.888 254.794 184.274 265.37 182.452Z" fill="#FEE466"/>
<path d="M200.662 213.99C208.733 222.068 196.394 234.418 188.324 226.341C180.254 218.263 192.592 205.913 200.662 213.99Z" fill="#FEE466"/>
<path d="M298.262 220.61C308.401 219.779 311.314 234.36 301.817 237.495C289.536 241.534 285.764 221.645 298.262 220.61Z" fill="#FEE466"/>
<path d="M189.154 246.492C203.037 243.896 203.43 265.301 189.446 263.187C180.953 261.904 180.749 248.066 189.154 246.492Z" fill="#FEE466"/>
<path d="M294.038 255.59C306.041 253.534 307.745 270.506 297.723 272.227C285.72 274.283 284.016 257.31 294.038 255.59Z" fill="#FEE466"/>
<path d="M221.668 284.635C233.089 282.827 235.084 299.975 224.348 301.316C213.292 302.701 211.325 286.283 221.668 284.635Z" fill="#FEE466"/>
<path d="M212.243 195.764C223.62 194.248 225.091 211.832 213.889 212.474C203.357 213.072 201.769 197.164 212.243 195.764Z" fill="#FEE466"/>
<path d="M256.993 287.449C268.37 285.933 269.842 303.518 258.64 304.159C248.108 304.757 246.52 288.849 256.993 287.449Z" fill="#FEE466"/>
<path d="M282.53 202.063C294.067 201.115 294.548 218.598 283.447 218.788C272.347 218.977 272.027 202.923 282.53 202.063Z" fill="#FEE466"/>
<path d="M206.649 265.738C215.579 264.791 218.696 277.461 210.918 280.873C199.176 286.035 194.617 266.992 206.649 265.738Z" fill="#FEE466"/>
<path d="M276.222 272.037C285.152 271.09 288.269 283.76 280.49 287.172C268.749 292.334 264.19 273.291 276.222 272.037Z" fill="#FEE466"/>
<path d="M247.918 199.949C257.634 199.409 258.057 214.355 248.472 214.53C239.207 214.705 238.61 200.474 247.918 199.949Z" fill="#FEE466"/>
<path d="M209.796 232.144C219.279 231.108 220.08 245.85 210.728 246.069C202.163 246.273 201.099 233.092 209.796 232.144Z" fill="#FEE466"/>
<path d="M279.369 238.093C288.852 237.058 289.653 251.799 280.301 252.018C271.735 252.222 270.672 239.041 279.369 238.093Z" fill="#FEE466"/>
<path d="M241.246 270.288C250.147 268.844 251.895 282.419 243.228 283.469C234.56 284.519 232.972 271.629 241.246 270.288Z" fill="#FEE466"/>
<path d="M229.025 216.732C231.283 216.557 233.861 218.146 234.895 220.144C237.896 225.961 230.831 231.94 225.601 227.697C221.158 224.11 223.693 217.169 229.025 216.746V216.732Z" fill="#FEE466"/>
<path d="M263.636 219.881C265.894 219.706 268.472 221.296 269.507 223.293C272.507 229.111 265.442 235.089 260.213 230.846C255.77 227.259 258.304 220.319 263.636 219.896V219.881Z" fill="#FEE466"/>
<path d="M259.776 255.59C268.968 253.884 269.463 267.619 260.388 266.701C254.167 266.074 254.095 256.64 259.776 255.59Z" fill="#FEE466"/>
<path d="M224.815 252.441C234.006 250.735 234.502 264.47 225.426 263.551C219.206 262.924 219.133 253.49 224.815 252.441Z" fill="#FEE466"/>
<path d="M244.043 238.093C251.006 236.664 251.239 247.41 244.335 246.389C239.95 245.748 239.848 238.953 244.043 238.093Z" fill="#FEE466"/>
</svg>
