<?xml version="1.0" encoding="UTF-8"?>
<svg id="Layer_2" data-name="Layer 2" xmlns="http://www.w3.org/2000/svg" viewBox="0 0 1234.39 315.39">
  <defs>
    <style>
      .cls-1 {
        fill: #fff;
      }
    </style>
  </defs>
  <g id="Layer_2-2" data-name="Layer 2">
    <g>
      <path class="cls-1" d="M331.44,157.82c.76,3.46,2.4,11.85-.09,14.39-.52.53-1.23.85-2.23,1.07-2.6.56-5.23-.96-7.14-2.8-6.67-6.43-8.59-19.64-4.17-26.64,1.09-1.73,2.52-2.92,4.2-3.29.13-.03.33-.08.57-.08.82,0,2.22.48,4.05,3.51,1.85,3.06,3.51,7.84,4.81,13.83ZM214.9,223.3c-.44.66-.89,1.32-1.34,1.94,1.08,1.1,2.13,2.25,3.13,3.34,16.78,17.67,59.49,35.44,59.95,63.32,2.62-2.64,4.61-5.88,5.99-9.74,6.53-25.96-29.45-45.17-60.82-56.72-2.22-.79-4.54-1.5-6.92-2.14ZM307.67,146.33c-9.46-10.12-27.5-9.33-43.78-7.89-7.56.8-19.81.27-33.31,7.9-12.28,6.83-20.03,18.03-15.54,31.46,0,0,0,0,0,0,.23.73.5,1.45.81,2.19,0,0,0,.03,0,.04.49,1.05,1.2,3.19,3.67,6.29,7.4,8.77,20.46,10.33,31.87,11.83,16.99.97,36.84,4.57,51.57-3.86,7.13-4.39,10.07-11.99,11-19.99-6.06-7.52-8.49-18.8-6.29-27.97ZM231.86,62.76c-5.64-4.32-12.67-5.73-21.44-4.3,6.82,13.04,7.27,34.77,9.74,49.49,2.06,12.83,5.29,21.71,7.99,29.99,6.72-3.46,14.42-5.94,21.91-6.95.18-5.13.03-10.35-.11-15.37-1.41-17.86-4.82-42.72-18.08-52.86ZM204.16,68.35c-4.54-13.76-13.77-17.63-27.87-15.52-28.18,6.41-27.98,42.03-25.06,65.4,1.31,14.17,7.47,30.55,17.94,41.14,9.86,10.04,22.07,13.43,35.69,9.55.28-8.14,5.04-18.53,15.72-26.38-2.58-8.02-7.01-20-9.22-33.12-2.49-13.7-2.9-28.15-7.19-41.08ZM205.69,177.73c-13.59,3.56-26.85.63-37.62-7.39-7.16,5.18-10.31,8.09-14.71,13.15-10.7,12.37-20.01,30.4-14.95,45.95,12.05-22.22,46.96-24.59,68.61-9.68.51-.74,1.03-1.5,1.53-2.3h0c3.94-6.26,6.92-13.64,8.11-20.9-5.76-4.86-9.33-11.31-10.97-18.82ZM202.7,227.25c-24.54-17.53-65.02-6.84-58.59,23.92,3.47,16.48,19.95,30.82,32.62,40.08,18.63,13.7,60.62,34.76,80.9,17.84,4.28-3.54,7.08-8.47,8.79-13.71,4.09-23.08-38.58-41.99-56.12-60.89-2.18-2.51-4.88-5.33-7.59-7.24ZM80.89,230.51c-7.33,11.46-13.59,25.32-21.85,36.38,18.45,2.52,24.66-13.46,36.95-31.17-4.35-3.02-8.49-6.35-12.38-9.75-.98,1.7-1.9,3.23-2.72,4.54ZM69.53,157.26c-1.77,1.16-3.62,2.69-4.57,3.65-1.96,1.78-3.69,4.92-4.21,8.29-2.15,12.16,7.53,30.22,16.52,39.08,15.04,15.04,35.53,33.21,56.81,31.96-3.64-5.85-5.52-12.4-5.59-19.58-.03-3.64.58-7.96.67-7.96,2.21-12.9,9.74-25.65,18.45-35.56-2.68-2.84-5.5-5.67-8.37-8.47-16.99-16.63-50.18-24.42-69.72-11.42ZM71.26,214.33c-10.92-10.75-21.69-31.57-18.85-47-2.18-.73-4.29-1.68-6.34-2.81-7.9,3.14-15.25,8.59-22.35,16.46-16.75,20.45-28.99,59.23-21.43,81.13,2.03,5.87,6.73,10.43,12.57,12.54,12.34,4.48,21.36,2.36,28.76-3.55,8.79-7.04,15.69-19.94,21.33-30.12,8.63-15.57,8-13.4,12.22-20.89-2.07-1.96-4.04-3.89-5.91-5.76ZM49.38,58.64c-1.03.15-2.01-.55-2.15-1.59-2.33-16.99.65-33.89,6.65-50.02,1.28-3.45-1.31-7.02-4.88-7.02-2.11,0-4.1,1.31-4.88,3.4-7.03,18.9-10.1,38.45-6.72,58.27.13.76-.22,1.52-.87,1.94-14.56,9.23-14.53,24.77-13.76,42.44,1.64,15.83,8.89,38.06,23.96,48.83,2.86,2.04,5.87,3.53,8.68,4.44,3.1-5.08,8.97-9.36,14.31-11.96,7.16-3.49,15.31-5.1,23.7-5.14,5.29-13.82,2.56-32.19-1.14-46.57-5.43-19.46-23.06-39.96-42.9-37.02Z"/>
      <g>
        <path class="cls-1" d="M454.03,155.7c-4.7-1.01-9.41-2.08-14.11-3.22-.61-.15-1.12-.77-1.14-1.38-.75-26.24-1.5-52.47-2.25-78.71-.02-.6.42-.99,1-.92,6.53.8,13.06,1.48,19.58,2.05,2.01.28,3.94.6,5.77.96,6.59,1.32,12.2,3.26,16.82,5.92,5.94,3.44,10.31,7.55,13.13,12.44,2.82,4.89,4.23,9.94,4.23,15.18,0,4.15-.94,8.1-2.83,11.87-1.89,3.77-4.65,7.04-8.3,9.74-3.65,2.71-8.11,4.6-13.38,5.61-4.66.91-9.91.88-15.74-.16-.6-.11-1.09.27-1.1.86-.18,6.29-.36,12.58-.54,18.87-.02.61-.52.99-1.14.86ZM456.16,118.74c-.02.66.55,1.34,1.22,1.43,3.61.44,6.75.15,9.41-.89,3.33-1.27,5.87-3.19,7.61-5.78,1.74-2.58,2.61-5.39,2.61-8.38,0-2.72-.78-5.31-2.34-7.83-1.56-2.51-3.66-4.47-6.29-5.89-2.64-1.42-5.39-2.41-8.24-3-.66-.13-1.33-.26-2.03-.37-.59-.1-1.06.29-1.08.88-.29,9.95-.58,19.89-.87,29.83Z"/>
        <path class="cls-1" d="M522.32,143.27c-.22,7.36-.43,14.71-.65,22.07-.02.61-.52,1.04-1.14.98-4.69-.5-9.37-1.06-14.06-1.66-.61-.08-1.12-.63-1.14-1.25-.75-26.15-1.5-52.3-2.25-78.46-.02-.59.41-1.03,1-1.03,6.44.05,12.87,0,19.31-.13.15.03.27,0,.38-.02.07,0,.15.02.22.02,2.16.08,4.21.21,6.16.38,6.34.59,11.74,1.79,16.21,3.64,5.97,2.49,10.38,5.65,13.22,9.62,2.84,3.96,4.26,8.11,4.26,12.47,0,3.4-.95,6.81-2.86,10.19-1.9,3.38-4.7,6.42-8.38,9.06-3.68,2.65-8.16,4.66-13.44,5.99-.22.06-.44.11-.66.17,7.36,7.05,14.71,13.98,22.07,20.82.55.51.51,1.37-.08,1.77-5.05,3.39-10.09,6.73-15.14,10.02-.48.32-1.15.18-1.54-.3-6.5-8.2-13-16.48-19.5-24.85-.67-.87-1.97-.55-2,.49ZM523.58,99.18c-.22,6.96-.43,13.92-.65,20.88-.02.66.54,1.27,1.2,1.3,3.71.15,6.87-.24,9.48-1.13,3.33-1.13,5.83-2.73,7.47-4.76,1.65-2.03,2.47-4.14,2.47-6.3,0-1.98-.77-3.83-2.31-5.53-1.54-1.71-3.55-2.96-6.05-3.74-2.49-.79-4.89-1.29-7.2-1.51-1.06-.1-2.18-.18-3.37-.2-.58-.02-1.04.42-1.05.99Z"/>
        <path class="cls-1" d="M591.47,126.28c8.42-1.25,16.83-2.61,25.25-4.08.73-.13,1.37.45,1.32,1.19-.38,5.04-.76,10.08-1.13,15.13-.04.59-.53,1.04-1.11,1.07-8.32.23-16.65.35-24.97.35-.61,0-1.1.48-1.12,1.08-.14,4.92-.28,9.83-.42,14.75-.02.71.61,1.28,1.31,1.18,9.58-1.3,19.16-2.76,28.74-4.35.72-.12,1.36.46,1.3,1.19-.38,5.23-.76,10.45-1.14,15.68-.04.59-.54,1.07-1.13,1.07-14.89.21-29.78.08-44.67-.46-.61-.02-1.12-.53-1.14-1.14-.75-25.63-1.5-51.27-2.24-76.9-.02-.6.43-1.09,1.03-1.12,17.28-.99,34.56-2.53,51.84-4.52.7-.08,1.29.49,1.24,1.19-.38,5.02-.76,10.05-1.14,15.07-.05.61-.56,1.08-1.17,1.07-10.07-.11-20.14-.38-30.21-.81-.63-.03-1.15.46-1.17,1.09-.2,7.04-.39,14.07-.59,21.11-.02.71.61,1.28,1.32,1.17Z"/>
        <path class="cls-1" d="M686.83,166.27c-1.66-16.92-3.32-33.85-4.98-50.78-.11-1.14-1.67-1.3-2.16-.23-4.13,9.04-8.26,18.06-12.38,27.07-.41.9-1.65.97-2.06.12-4.15-8.56-8.3-17.14-12.45-25.74-.49-1.01-2.04-.68-2.16.47-1.65,16.4-3.29,32.79-4.94,49.18-.05.52-.44.94-.95,1.05-4.7.93-9.4,1.82-14.1,2.69-.71.13-1.34-.42-1.31-1.13.94-26,1.88-52.01,2.83-78.02.02-.56.45-1.04,1-1.12,6.79-.98,13.58-2.03,20.37-3.14.51-.09,1,.19,1.19.66,3.5,8.71,6.99,17.4,10.49,26.07.38.93,1.74.86,2.11-.12,3.48-9.07,6.96-18.16,10.44-27.26.19-.49.68-.82,1.19-.79,6.81.34,13.62.62,20.42.87.56.02.98.45,1,1,.95,25.17,1.89,50.33,2.84,75.5.02.57-.39,1.11-.96,1.24-4.71,1.13-9.42,2.25-14.14,3.34-.65.15-1.24-.27-1.31-.92Z"/>
        <path class="cls-1" d="M732.23,163.55c-4.69.46-9.37.91-14.06,1.34-.61.05-1.12-.39-1.14-1-.75-25.99-1.5-51.97-2.25-77.96-.02-.58.41-1.12,1-1.25,6.18-1.32,12.36-2.68,18.55-4.06.69-.16,1.29.34,1.28,1.03-.75,26.89-1.49,53.78-2.24,80.68-.02.62-.52,1.16-1.14,1.22Z"/>
        <path class="cls-1" d="M766.29,115.7c8.42-2.32,16.83-4.67,25.25-7.04.73-.21,1.37.32,1.32,1.05-.38,5.08-.76,10.17-1.13,15.25-.04.59-.53,1.1-1.11,1.18-8.32,1.13-16.65,2.23-24.97,3.3-.61.07-1.1.62-1.12,1.23-.14,4.93-.28,9.87-.42,14.8-.02.72.61,1.2,1.31,1.01,9.58-2.53,19.16-5.11,28.74-7.7.72-.19,1.36.31,1.3,1.05-.38,5.27-.76,10.53-1.14,15.8-.04.6-.54,1.11-1.13,1.19-14.89,1.78-29.78,3.49-44.67,5.07-.61.07-1.12-.37-1.14-.98-.75-25.52-1.5-51.05-2.24-76.58-.02-.6.43-1.15,1.03-1.27,17.28-3.48,34.56-7.14,51.84-10.88.7-.15,1.29.35,1.24,1.07-.38,5.06-.76,10.13-1.14,15.19-.05.61-.56,1.14-1.17,1.19-10.07.92-20.14,1.81-30.21,2.65-.63.06-1.15.61-1.17,1.24-.2,7.06-.39,14.12-.59,21.19-.02.71.61,1.2,1.32,1Z"/>
        <path class="cls-1" d="M825.25,129.67c-.22,7.41-.43,14.81-.65,22.22-.02.63-.52,1.16-1.14,1.24-4.69.58-9.37,1.15-14.06,1.73-.61.08-1.12-.35-1.14-.97-.75-25.96-1.5-51.92-2.25-77.89-.02-.58.41-1.14,1-1.28,6.44-1.58,12.87-3.18,19.31-4.77.15-.02.27-.05.38-.1.07,0,.15-.02.22-.03,2.16-.42,4.21-.74,6.16-.98,6.34-.79,11.74-.68,16.21.31,5.97,1.32,10.38,3.7,13.22,7.17,2.84,3.46,4.26,7.38,4.26,11.74,0,3.42-.95,6.97-2.86,10.68-1.9,3.71-4.7,7.23-8.38,10.56-3.68,3.33-8.16,6.2-13.44,8.61-.22.1-.44.2-.66.3,7.36,5.54,14.71,11.08,22.07,16.63.55.42.51,1.29-.08,1.79-5.05,4.27-10.09,8.55-15.14,12.82-.48.41-1.15.4-1.54,0-6.5-6.91-13-13.82-19.5-20.73-.67-.72-1.97-.1-2,.95ZM826.51,85.29c-.22,7.01-.43,14.02-.65,21.02-.02.67.54,1.14,1.2,1.03,3.71-.69,6.87-1.75,9.48-3.2,3.33-1.84,5.83-3.94,7.47-6.31,1.65-2.36,2.47-4.64,2.47-6.79,0-1.98-.77-3.67-2.31-5.07-1.54-1.41-3.55-2.24-6.05-2.5-2.49-.25-4.89-.25-7.2.04-1.06.13-2.18.32-3.37.55-.58.12-1.04.66-1.05,1.23Z"/>
        <path class="cls-1" d="M457.47,245.43c6.78,1.04,13.56,1.97,20.34,2.77.69.08,1.25.75,1.2,1.43-.38,4.96-.76,9.91-1.13,14.87-.05.64-.62,1.01-1.26.82-6.51-1.87-13.02-3.84-19.53-5.92-.66-.21-1.24.17-1.26.83-.12,4.48-.25,8.96-.37,13.44-.02.66.54,1.32,1.21,1.42,9.65,1.43,19.3,2.61,28.95,3.56.69.07,1.25.73,1.2,1.41-.38,5.18-.76,10.36-1.14,15.54-.04.61-.58,1-1.2.86-14.89-3.25-29.78-7.05-44.67-11.46-.59-.17-1.06-.77-1.07-1.36-.75-25.81-1.5-51.61-2.24-77.42-.02-.62.46-1.02,1.08-.9,17.28,3.41,34.56,6,51.85,7.86.68.07,1.24.73,1.19,1.4-.38,4.95-.76,9.9-1.13,14.85-.05.64-.62,1.02-1.26.85-10.01-2.68-20.02-5.6-30.03-8.78-.66-.21-1.24.17-1.26.83-.21,7.23-.43,14.46-.64,21.69-.02.65.53,1.31,1.2,1.42Z"/>
        <path class="cls-1" d="M516.3,250.27c-.2,16.49-.39,32.98-.59,49.47,0,.62-.51,1.06-1.14.99-4.7-.55-9.41-1.14-14.11-1.79-.61-.09-1.11-.64-1.13-1.24-1.18-26.22-2.35-52.44-3.53-78.66-.03-.59.41-1.04,1-1.04,6.38.13,12.77.16,19.15.1.45,0,.89.27,1.12.68,5.86,10.76,11.72,21.44,17.58,32.05.58,1.06,2.11.78,2.12-.38.03-8.93.06-17.86.09-26.79,0-.57.43-1.01,1-1.04,6.2-.25,12.39-.58,18.59-.99.7-.05,1.31.56,1.27,1.27-1.58,26.72-3.17,53.45-4.75,80.17-.04.6-.53,1.04-1.13,1-4.7-.3-9.41-.65-14.11-1.03-.63-.05-1.14-.61-1.14-1.24.02-4.29.03-8.59.05-12.88,0-.16-.04-.36-.12-.52-6.02-12.72-12.04-25.51-18.06-38.38-.53-1.13-2.14-.95-2.15.25Z"/>
        <path class="cls-1" d="M598.87,238.15c.34,22.08.67,44.15,1.01,66.22.01.69-.59,1.22-1.28,1.14-6.16-.81-12.32-1.68-18.48-2.61-.59-.09-1.03-.63-.99-1.22,1.17-20.76,2.33-41.52,3.5-62.29.04-.68-.54-1.26-1.23-1.23-5.08.28-10.16.51-15.23.69-.59.02-1.13-.42-1.22-1.02-.74-4.91-1.48-9.82-2.22-14.74-.1-.69.43-1.29,1.12-1.25,17.88.86,35.76,1.12,53.65.89.67,0,1.2.56,1.13,1.23-.35,3.54-.7,7.09-1.05,10.63-.05.55-.49.99-1.04,1.03-5.54.51-11.08.97-16.62,1.38-.6.05-1.05.53-1.05,1.14Z"/>
        <path class="cls-1" d="M644.72,260.66c8.42-1.7,16.83-3.49,25.25-5.36.73-.15,1.37.39,1.32,1.13-.38,5.06-.76,10.12-1.13,15.18-.04.59-.53,1.07-1.11,1.12-8.32.63-16.65,1.17-24.97,1.63-.61.04-1.1.53-1.12,1.15-.14,4.92-.28,9.85-.42,14.77-.02.71.61,1.23,1.31,1.11,9.58-1.82,19.16-3.76,28.74-5.81.72-.16,1.36.4,1.3,1.12-.38,5.25-.76,10.49-1.14,15.74-.04.6-.54,1.09-1.13,1.12-14.89.91-29.78,1.57-44.67,1.9-.61.01-1.12-.46-1.14-1.08-.75-25.59-1.5-51.18-2.24-76.77-.02-.6.43-1.12,1.03-1.18,17.28-2.01,34.56-4.46,51.84-7.24.7-.11,1.29.43,1.24,1.13-.38,5.04-.76,10.08-1.14,15.12-.05.61-.56,1.09-1.17,1.12-10.07.35-20.14.59-30.21.7-.63,0-1.15.52-1.17,1.15-.2,7.05-.39,14.09-.59,21.14-.02.72.61,1.24,1.32,1.1Z"/>
        <path class="cls-1" d="M703.68,277.98c-.22,7.4-.43,14.8-.65,22.19-.02.63-.52,1.15-1.14,1.2-4.69.38-9.37.75-14.06,1.09-.61.04-1.12-.4-1.14-1.02-.75-26-1.5-52-2.25-78-.02-.59.41-1.12,1-1.23,6.44-1.26,12.87-2.56,19.31-3.9.15-.01.27-.04.38-.09.07,0,.15-.01.22-.02,2.16-.32,4.21-.58,6.16-.75,6.34-.55,11.74-.29,16.21.81,5.97,1.47,10.38,3.96,13.22,7.47,2.84,3.51,4.26,7.45,4.26,11.81,0,3.41-.95,6.95-2.86,10.63-1.9,3.68-4.7,7.15-8.38,10.39-3.68,3.24-8.16,6-13.44,8.25-.22.09-.44.19-.66.28,7.36,5.77,14.71,11.49,22.07,17.18.55.42.51,1.29-.08,1.78-5.05,4.18-10.09,8.34-15.14,12.48-.48.39-1.15.38-1.54-.04-6.5-7.09-13-14.22-19.5-21.38-.67-.75-1.97-.18-2,.86ZM704.95,233.66c-.22,7-.43,14-.65,21-.02.67.54,1.17,1.2,1.07,3.71-.54,6.87-1.49,9.48-2.85,3.33-1.73,5.83-3.76,7.47-6.07,1.65-2.32,2.47-4.55,2.47-6.72,0-1.97-.77-3.69-2.31-5.14-1.54-1.44-3.55-2.34-6.05-2.69-2.49-.34-4.89-.41-7.2-.21-1.06.1-2.18.23-3.37.42-.58.09-1.04.62-1.05,1.19Z"/>
        <path class="cls-1" d="M782.21,225.65c.34,22.04.67,44.07,1.01,66.1.01.69-.59,1.29-1.28,1.29-6.16-.04-12.32-.1-18.48-.18-.59,0-1.03-.48-.99-1.08,1.17-20.92,2.33-41.85,3.5-62.77.04-.69-.54-1.19-1.23-1.06-5.08.98-10.16,1.95-15.23,2.9-.59.11-1.13-.25-1.22-.83-.74-4.8-1.48-9.59-2.22-14.39-.1-.68.43-1.36,1.12-1.42,17.88-1.89,35.76-3.97,53.65-6.13.67-.08,1.2.43,1.13,1.11-.35,3.58-.7,7.16-1.05,10.74-.05.55-.49,1.04-1.04,1.15-5.54,1.11-11.08,2.21-16.62,3.3-.6.12-1.05.67-1.05,1.27Z"/>
        <path class="cls-1" d="M813.54,273.49c-1.26,5.14-2.52,10.27-3.79,15.41-.14.56-.67,1-1.24,1-6.23,0-12.46-.02-18.69-.04-.71,0-1.16-.67-.94-1.36,8.4-27.06,16.81-54.15,25.21-81.24.15-.49.59-.86,1.08-.92,6.32-.77,12.64-1.56,18.95-2.34.49-.05.93.2,1.08.66,8.4,25.03,16.81,50.06,25.21,75.09.22.67-.23,1.42-.94,1.59-6.21,1.52-12.43,3.05-18.64,4.59-.57.14-1.1-.16-1.24-.69-1.41-5.35-2.83-10.7-4.24-16.05-.14-.52-.64-.82-1.19-.7-6.54,1.34-13.08,2.69-19.61,4.03-.48.1-.89.5-1.01.98ZM831.55,254.77c-1.93-7.33-3.85-14.66-5.78-22-.29-1.1-1.91-.91-2.2.27-1.88,7.63-3.76,15.25-5.64,22.88-.18.72.33,1.34,1.05,1.29,3.81-.29,7.61-.59,11.42-.88.76-.06,1.34-.84,1.15-1.56Z"/>
        <path class="cls-1" d="M880.84,281.18c-4.69.55-9.37,1.12-14.06,1.69-.61.07-1.12-.35-1.14-.97-.75-25.96-1.5-51.92-2.25-77.89-.02-.58.41-1.14,1-1.28,6.18-1.52,12.36-3.03,18.55-4.52.69-.16,1.29.31,1.28,1.01-.75,26.9-1.49,53.81-2.24,80.72-.02.62-.52,1.17-1.14,1.24Z"/>
        <path class="cls-1" d="M912.94,226.84c-.2,16.53-.39,33.07-.59,49.6,0,.62-.51,1.18-1.14,1.25-4.7.52-9.41,1.05-14.11,1.59-.61.07-1.11-.35-1.13-.95-1.18-25.92-2.35-51.83-3.53-77.75-.03-.6.41-1.16,1-1.29,6.38-1.52,12.77-3.04,19.15-4.52.45-.1.89.06,1.12.44,5.86,9.46,11.72,18.93,17.58,28.43.58.94,2.11.37,2.12-.78.03-8.93.06-17.87.09-26.8,0-.58.43-1.09,1-1.23,6.2-1.39,12.39-2.75,18.59-4.08.7-.15,1.32.36,1.27,1.08-1.58,26.96-3.17,53.92-4.75,80.89-.04.61-.53,1.12-1.13,1.18-4.7.44-9.41.9-14.11,1.37-.63.07-1.14-.4-1.14-1.03.02-4.3.03-8.59.05-12.89,0-.18-.04-.34-.12-.49-6.02-11.6-12.04-23.17-18.06-34.72-.53-1.03-2.14-.47-2.15.73Z"/>
        <path class="cls-1" d="M1021.86,267.51c-1.66-16.97-3.32-33.95-4.98-50.91-.11-1.15-1.67-1.34-2.16-.27-4.13,8.97-8.26,17.95-12.38,26.96-.41.9-1.65.96-2.06.12-4.15-8.54-8.3-17.07-12.45-25.57-.49-1-2.04-.64-2.16.52-1.65,16.44-3.29,32.88-4.94,49.33-.05.52-.44.95-.95,1.08-4.7,1.1-9.4,2.22-14.1,3.35-.71.17-1.34-.34-1.31-1.05.94-26.06,1.88-52.12,2.83-78.18.02-.56.45-1.06,1-1.17,6.79-1.35,13.58-2.66,20.37-3.92.51-.09,1,.17,1.19.63,3.5,8.63,6.99,17.28,10.49,25.94.38.94,1.74.86,2.11-.13,3.48-9.08,6.96-18.13,10.44-27.18.19-.49.68-.81,1.19-.77,6.81.45,13.61.97,20.42,1.54.56.06.98.5,1,1.05.95,25.22,1.89,50.43,2.84,75.65.02.57-.39,1.08-.96,1.19-4.71.88-9.42,1.79-14.14,2.73-.65.12-1.24-.3-1.31-.96Z"/>
        <path class="cls-1" d="M1071.21,223.51c8.42-1.32,16.83-2.52,25.25-3.6.73-.08,1.37.52,1.32,1.25-.38,5.02-.76,10.05-1.13,15.07-.04.59-.53,1.02-1.11,1.01-8.32-.15-16.65-.17-24.97-.08-.61,0-1.1.49-1.12,1.1-.14,4.92-.28,9.84-.42,14.76-.02.71.61,1.26,1.31,1.16,9.58-1.41,19.16-2.67,28.74-3.75.72-.08,1.36.54,1.3,1.26-.38,5.21-.76,10.41-1.14,15.62-.04.59-.54,1.03-1.13,1.01-14.89-.55-29.78-.7-44.67-.51-.61.02-1.12-.47-1.14-1.09-.75-25.59-1.5-51.18-2.24-76.78-.02-.6.43-1.12,1.03-1.18,17.28-1.93,34.56-3.4,51.84-4.32.7-.04,1.29.57,1.24,1.27-.38,5-.76,10-1.14,15-.05.6-.56,1.03-1.17,1-10.07-.71-20.14-1.23-30.21-1.59-.63-.02-1.15.47-1.17,1.1-.2,7.04-.39,14.08-.59,21.12-.02.71.61,1.26,1.32,1.16Z"/>
        <path class="cls-1" d="M1132.06,219.67c-.2,16.49-.39,32.99-.59,49.49,0,.62-.51,1.08-1.14,1.03-4.7-.37-9.41-.7-14.11-.98-.61-.04-1.11-.54-1.14-1.15-1.18-26.12-2.35-52.24-3.53-78.36-.03-.59.41-1.09,1-1.12,6.38-.43,12.77-.79,19.15-1.06.45-.03.89.23,1.12.65,5.86,10.58,11.72,21.23,17.58,31.96.58,1.07,2.11.81,2.12-.33.03-8.93.06-17.85.09-26.78,0-.57.43-1.01,1-1.01,6.2-.07,12.39-.05,18.59.05.7.02,1.32.67,1.27,1.38-1.58,26.59-3.17,53.19-4.75,79.79-.04.59-.53,1-1.13.92-4.7-.63-9.41-1.2-14.11-1.73-.63-.08-1.14-.63-1.14-1.27.02-4.29.03-8.58.05-12.88,0-.18-.04-.36-.12-.52-6.02-12.87-12.04-25.66-18.06-38.37-.53-1.12-2.14-.87-2.15.31Z"/>
        <path class="cls-1" d="M1214.63,214.67c.34,22.14.67,44.29,1.01,66.43.01.69-.59,1.09-1.28.87-6.16-2.06-12.32-4.03-18.48-5.89-.59-.19-1.03-.78-.99-1.37,1.17-20.59,2.33-41.17,3.5-61.75.04-.68-.54-1.35-1.23-1.42-5.08-.51-10.16-.95-15.23-1.33-.59-.05-1.13-.55-1.22-1.15-.74-4.99-1.48-9.98-2.22-14.97-.1-.71.43-1.25,1.12-1.14,17.88,2.72,35.77,6.22,53.65,10.6.67.16,1.2.88,1.13,1.53-.35,3.45-.7,6.9-1.05,10.35-.05.53-.49.86-1.04.77-5.54-.91-11.08-1.73-16.62-2.47-.6-.08-1.06.33-1.05.93Z"/>
      </g>
    </g>
  </g>
</svg>