<?xml version="1.0" encoding="UTF-8"?>
<svg id="Layer_2" data-name="Layer 2" xmlns="http://www.w3.org/2000/svg" viewBox="0 0 1205.13 319.29">
  <defs>
    <style>
      .cls-1 {
        fill: #fee466;
      }

      .cls-2 {
        fill: #fdb81d;
      }
    </style>
  </defs>
  <g id="Layer_2-2" data-name="Layer 2">
    <g>
      <g>
        <path class="cls-1" d="M324.72,158.91c.72,3.3,2.3,11.32-.08,13.75-.5.51-1.18.81-2.13,1.02-2.49.53-4.99-.91-6.82-2.68-6.38-6.14-8.2-18.77-3.99-25.45,1.04-1.66,2.41-2.79,4.02-3.14.13-.03.32-.07.54-.07.79,0,2.12.46,3.87,3.36,1.76,2.92,3.36,7.49,4.59,13.21ZM213.39,221.45c-.42.63-.85,1.26-1.28,1.85,1.03,1.05,2.03,2.15,2.99,3.19,16.03,16.88,56.83,33.85,57.27,60.48,2.51-2.52,4.4-5.62,5.72-9.31,6.24-24.8-28.14-43.15-58.1-54.18-2.13-.75-4.34-1.43-6.61-2.04ZM302.01,147.93c-9.03-9.67-26.27-8.91-41.82-7.53-7.23.77-18.93.25-31.82,7.54-11.73,6.52-19.14,17.22-14.85,30.05,0,0,0,0,0,0,.22.7.48,1.38.78,2.09,0,0,0,.03,0,.04.47,1,1.15,3.05,3.51,6.01,7.07,8.37,19.54,9.87,30.44,11.3,16.23.92,35.19,4.37,49.26-3.69,6.81-4.2,9.62-11.45,10.51-19.1-5.79-7.18-8.11-17.96-6.01-26.72ZM229.58,68.09c-5.39-4.12-12.1-5.47-20.48-4.11,6.51,12.45,6.95,33.22,9.31,47.28,1.97,12.25,5.06,20.74,7.63,28.65,6.42-3.31,13.77-5.67,20.93-6.64.17-4.9.03-9.88-.11-14.69-1.35-17.07-4.6-40.81-17.27-50.5ZM203.12,73.44c-4.34-13.14-13.15-16.84-26.62-14.82-26.92,6.12-26.73,40.15-23.94,62.47,1.25,13.54,7.14,29.18,17.14,39.3,9.42,9.6,21.08,12.83,34.09,9.13.27-7.78,4.81-17.7,15.01-25.2-2.47-7.66-6.69-19.11-8.81-31.63-2.38-13.09-2.77-26.9-6.87-39.24ZM204.59,177.93c-12.98,3.4-25.65.61-35.94-7.06-6.84,4.95-9.85,7.73-14.05,12.56-10.22,11.82-19.12,29.04-14.28,43.9,11.51-21.23,44.86-23.49,65.54-9.25.49-.71.99-1.43,1.47-2.2h0c3.76-5.98,6.61-13.03,7.75-19.97-5.5-4.64-8.92-10.81-10.48-17.98ZM201.73,225.23c-23.44-16.75-62.11-6.54-55.97,22.85,3.32,15.75,19.06,29.44,31.16,38.29,17.8,13.09,57.91,33.21,77.28,17.04,4.09-3.38,6.76-8.09,8.39-13.1,3.91-22.05-36.85-40.11-53.61-58.17-2.08-2.4-4.66-5.09-7.25-6.92ZM85.36,228.35c-7,10.95-12.99,24.19-20.87,34.76,17.63,2.41,23.56-12.86,35.3-29.78-4.15-2.88-8.11-6.07-11.83-9.32-.94,1.63-1.82,3.08-2.6,4.34ZM74.51,158.36c-1.69,1.11-3.45,2.57-4.37,3.49-1.87,1.7-3.53,4.7-4.02,7.92-2.05,11.61,7.19,28.87,15.78,37.33,14.37,14.37,33.94,31.73,54.27,30.53-3.48-5.59-5.27-11.85-5.34-18.7-.03-3.48.55-7.61.64-7.61,2.11-12.33,9.31-24.5,17.63-33.97-2.56-2.71-5.25-5.42-7.99-8.09-16.23-15.89-47.93-23.32-66.6-10.91ZM76.17,212.89c-10.44-10.27-20.72-30.16-18.01-44.9-2.08-.7-4.1-1.6-6.06-2.69-7.55,3-14.57,8.2-21.35,15.73-16,19.53-27.69,56.58-20.48,77.5,1.94,5.61,6.43,9.97,12.01,11.98,11.79,4.28,20.4,2.25,27.47-3.39,8.4-6.73,14.99-19.05,20.38-28.78,8.25-14.88,7.64-12.8,11.68-19.96-1.98-1.87-3.86-3.72-5.64-5.5ZM55.26,64.15c-.99.15-1.92-.53-2.05-1.52-2.23-16.23.62-32.37,6.35-47.78,1.22-3.29-1.25-6.71-4.67-6.71-2.02,0-3.92,1.25-4.66,3.25-6.71,18.06-9.65,36.73-6.42,55.67.12.73-.21,1.45-.83,1.85-13.91,8.82-13.88,23.66-13.15,40.55,1.56,15.12,8.49,36.36,22.89,46.65,2.73,1.95,5.61,3.37,8.29,4.24,2.96-4.86,8.56-8.94,13.67-11.42,6.84-3.34,14.62-4.87,22.64-4.91,5.06-13.2,2.44-30.75-1.09-44.49-5.19-18.59-22.03-38.17-40.98-35.36Z"/>
        <path class="cls-2" d="M332.67,157.18c1.43,6.57,1.73,11.33.93,15-1.09,5.08-4.33,8.36-9.37,9.45-2.5.54-5.09.34-7.61-.58-1.87,8.46-6.1,16.19-13.8,20.98-16.51,10.17-37.52,6.31-55.61,4.88-8.27-1.2-17.15-2.59-24.77-6.28-1.09,4.73-2.79,9.32-4.87,13.54,1.77.52,3.51,1.07,5.18,1.66,47.59,17.53,69.43,39.64,63.2,63.96l-.14.46c-2.99,8.45-8.46,14.72-16.27,18.69-10.6,22.8-35.99,23.72-58.46,15.92-27.72-9.24-71.09-37.6-74.38-69.02h0c-10.63.68-20.74-2.82-30.05-8.15-10.78,15.49-18.82,33.76-38.59,33.76-2.94,0-6.13-.41-9.62-1.31-10.98,10.92-23.86,13.76-39.69,7.75C8.99,275.17,0,263.98.36,250.93c-2.32-21.48,6.65-53.58,24.27-75.28,6.24-6.94,12.82-12.18,19.81-15.76-14.23-12.54-21.14-34.15-22.73-49.72l-.02-.24c-.64-15-1.45-33.59,13.49-45.5-2.32-17.91.14-36.29,7.41-55.87C45.06,1.94,52.52-1.75,59.46.82c6.78,2.52,10.25,10.08,7.73,16.86-5,13.48-7.14,26.06-6.46,38.13,20.83,1.02,37.78,21.54,43.36,41.6,3.7,14.38,6.22,31.99,2,46.16,1.23.46,2.43.97,3.6,1.53,14.03,2.5,27.66,9.12,37.1,18.36,2.8,2.75,5.47,5.43,7.96,8.05.39-.36,1.09-1.02,1.5-1.37,1.97-1.57,4.02-3.21,6.17-4.81-16.15-17.1-20.33-40.52-20.58-63.91-.18-23.26,7.37-47.19,33.02-52.43,12.12-1.76,22.23.61,29.21,7.89.65-.22,1.52-.49,2.33-.69,11.18-2.11,20.65-.28,28.13,5.44,15.11,11.56,18.87,36.23,20.45,56.42.13,2.89.27,9.77.14,14.45,1.44-.12,2.88-.24,4.32-.4,16.91-1.78,35.13-2.1,46.66,7.29,2.07-2.51,4.74-4.25,7.88-4.94,2.91-.63,8.51-.57,13.1,7.03,2.25,3.74,4.13,9.02,5.59,15.7ZM324.63,172.65c2.38-2.42.8-10.45.08-13.75-1.24-5.72-2.83-10.29-4.59-13.21-1.75-2.89-3.08-3.36-3.87-3.36-.23,0-.42.05-.54.07-1.61.35-2.98,1.48-4.02,3.14-4.21,6.68-2.39,19.31,3.99,25.45,1.83,1.76,4.33,3.21,6.82,2.68.96-.21,1.64-.52,2.13-1.02ZM297.5,193.74c6.81-4.2,9.62-11.45,10.51-19.1-5.79-7.18-8.11-17.96-6.01-26.72-9.03-9.67-26.27-8.91-41.82-7.53-7.23.77-18.93.25-31.82,7.54-11.73,6.52-19.14,17.22-14.85,30.05,0,0,0,0,0,0,.22.7.48,1.38.78,2.09,0,0,0,.03,0,.04.47,1,1.15,3.05,3.51,6.01,7.07,8.37,19.54,9.87,30.44,11.3,16.23.92,35.19,4.37,49.26-3.69ZM278.09,277.68c6.24-24.8-28.14-43.15-58.1-54.18-2.13-.75-4.34-1.43-6.61-2.04-.42.63-.85,1.26-1.28,1.85,1.03,1.05,2.03,2.15,2.99,3.19,16.03,16.88,56.83,33.85,57.27,60.48,2.51-2.52,4.4-5.62,5.72-9.31ZM262.59,290.31c3.91-22.05-36.85-40.11-53.61-58.17-2.08-2.4-4.66-5.09-7.25-6.92-23.44-16.75-62.11-6.54-55.97,22.85,3.32,15.75,19.06,29.44,31.16,38.29,17.8,13.09,57.91,33.21,77.28,17.04,4.09-3.38,6.76-8.09,8.39-13.1ZM246.97,133.28c.17-4.9.03-9.88-.11-14.69-1.35-17.07-4.6-40.81-17.27-50.5-5.39-4.12-12.1-5.47-20.48-4.11,6.51,12.45,6.95,33.22,9.31,47.28,1.97,12.25,5.06,20.74,7.63,28.65,6.42-3.31,13.77-5.67,20.93-6.64ZM218.8,144.31c-2.47-7.66-6.69-19.11-8.81-31.63-2.38-13.09-2.77-26.9-6.87-39.24-4.34-13.14-13.15-16.84-26.62-14.82-26.92,6.12-26.73,40.15-23.94,62.47,1.25,13.54,7.14,29.18,17.14,39.3,9.42,9.6,21.08,12.83,34.09,9.13.27-7.78,4.81-17.7,15.01-25.2ZM207.32,215.87c3.76-5.97,6.61-13.02,7.75-19.96-5.5-4.64-8.92-10.81-10.48-17.98-12.98,3.4-25.65.61-35.94-7.06-6.84,4.95-9.85,7.73-14.05,12.56-10.22,11.82-19.12,29.04-14.28,43.9,11.51-21.23,44.86-23.49,65.54-9.25.49-.71.99-1.43,1.47-2.2h0ZM149.1,177.37c-2.56-2.71-5.25-5.42-7.99-8.09-16.23-15.89-47.93-23.32-66.6-10.91-1.69,1.11-3.45,2.57-4.37,3.49-1.87,1.7-3.53,4.7-4.02,7.92-2.05,11.61,7.19,28.87,15.78,37.33,14.37,14.37,33.94,31.73,54.27,30.53-3.48-5.59-5.27-11.85-5.34-18.7-.03-3.48.55-7.61.64-7.61,2.11-12.33,9.31-24.5,17.63-33.97ZM97.33,144c5.06-13.2,2.44-30.75-1.09-44.49-5.19-18.59-22.03-38.17-40.98-35.36-.99.15-1.92-.53-2.05-1.52-2.23-16.23.62-32.37,6.35-47.78,1.22-3.29-1.25-6.71-4.67-6.71-2.02,0-3.92,1.25-4.66,3.25-6.71,18.06-9.65,36.73-6.42,55.67.12.73-.21,1.45-.83,1.85-13.91,8.82-13.88,23.66-13.15,40.55,1.56,15.12,8.49,36.36,22.89,46.65,2.73,1.95,5.61,3.37,8.29,4.24,2.96-4.86,8.56-8.94,13.67-11.42,6.84-3.34,14.62-4.87,22.64-4.91ZM99.79,233.32c-4.15-2.88-8.11-6.07-11.83-9.32-.94,1.63-1.82,3.08-2.6,4.34-7,10.95-12.99,24.19-20.87,34.76,17.63,2.41,23.56-12.86,35.3-29.78ZM70.13,238.35c8.25-14.88,7.64-12.8,11.68-19.96-1.98-1.87-3.86-3.72-5.64-5.5-10.44-10.27-20.72-30.16-18.01-44.9-2.08-.7-4.1-1.6-6.06-2.69-7.55,3-14.57,8.2-21.35,15.73-16,19.53-27.69,56.58-20.48,77.5,1.94,5.61,6.43,9.97,12.01,11.98,11.79,4.28,20.4,2.25,27.47-3.39,8.4-6.73,14.99-19.05,20.38-28.78Z"/>
      </g>
      <g>
        <path class="cls-2" d="M589.23,308.68c-.43,0-.86-.03-1.28-.08-5.95-.78-11.95-1.63-17.82-2.52-5.02-.78-8.6-5.18-8.31-10.24l2.67-47.51c.05-.92-.29-1.81-.93-2.46-.61-.62-1.45-.97-2.32-.97-.04,0-.97.04-.97.04-1.67.06-3.03,1.39-3.13,3.06l-2.97,50.18c-.31,5.12-4.56,9.12-9.68,9.12-.18,0-.42,0-.6-.02-4.59-.29-9.19-.63-13.67-1-3.43-.27-6.51-2.38-8.04-5.51-.5-1.02-1.49-1.7-2.62-1.8-.1,0-.2-.01-.31-.01-1.02,0-1.98.48-2.6,1.3-1.83,2.43-4.7,3.88-7.7,3.88-.38,0-.77-.02-1.15-.07-4.57-.53-9.16-1.11-13.65-1.73-2.15-.29-4.1-1.25-5.64-2.77-.62-.62-1.45-.94-2.29-.94-.52,0-1.03.12-1.51.37-1.36.71-2.89,1.09-4.42,1.09-.68,0-1.36-.07-2.03-.21-14.68-3.21-29.27-6.95-43.34-11.12-4.19-1.27-7.11-5.03-7.24-9.37l-2.14-73.97c-.07-2.58.9-5.12,2.68-6.95,1.77-1.82,4.26-2.87,6.82-2.87.61,0,1.23.06,1.83.17,15.82,3.13,32.26,5.62,48.83,7.4,2.51.27,4.81,1.5,6.48,3.46.61.71,1.49,1.13,2.42,1.14,3.21.05,6.48.08,9.71.08,1.91,0,3.82,0,5.73-.03,3.71,0,7.04,1.99,8.78,5.19l.52.96c.48.89,1.35,1.5,2.35,1.66.17.03.34.04.51.04.83,0,1.63-.31,2.24-.89,1.7-1.61,3.93-2.54,6.28-2.63,5.78-.23,11.67-.55,17.52-.93.19-.01.44-.02.64-.02.98,0,1.95.15,2.89.44.31.1.64.15.97.15.26,0,.52-.03.77-.09.76-.18,1.54-.28,2.32-.28.15,0,.34,0,.48.01,12.57.61,25.68.91,38.98.91,3.86,0,7.81-.03,11.73-.08h.13c2.36,0,4.65.86,6.43,2.42.6.52,1.36.81,2.14.81.13,0,.26,0,.39-.02,14.77-1.77,29.8-3.89,45.95-6.49.53-.08,1.04-.12,1.55-.12,2.16,0,4.29.74,6,2.07.58.45,1.29.69,2.01.69.21,0,.42-.02.63-.06,5.31-1.05,10.85-2.17,16.47-3.34.03,0,.07-.02.1-.02.38-.09.77-.16,1.15-.2.05,0,.1-.01.15-.02,2.12-.32,4.17-.56,6.08-.73,2.28-.2,4.5-.3,6.58-.3,4.3,0,8.25.44,11.74,1.3,1.62.4,3.18.88,4.63,1.42.37.14.75.2,1.13.2,1.05,0,2.07-.51,2.69-1.42.11-.16.22-.31.34-.46,1.66-2.15,4.14-3.54,6.81-3.82,14.83-1.56,31.07-3.42,51.11-5.84.4-.05.78-.07,1.17-.07,1.41,0,2.83.32,4.11.92.44.21.91.31,1.38.31.73,0,1.45-.24,2.04-.72,1.43-1.15,3.13-1.87,4.94-2.1,6.07-.74,12.11-1.49,18.14-2.24.41-.05.8-.07,1.2-.07,4.15,0,7.82,2.63,9.13,6.55l3.91,11.65c.45,1.34,1.71,2.22,3.08,2.22.19,0,.38-.02.57-.05,1.59-.28,2.73-1.69,2.68-3.3l-.23-8.12c-.14-4.63,3.04-8.79,7.55-9.9,5.93-1.45,11.84-2.9,17.76-4.33.74-.18,1.54-.28,2.31-.28,1.61,0,3.21.41,4.64,1.19.48.26,1.02.4,1.56.4.32,0,.64-.05.95-.14.19-.06.38-.11.58-.16,6.13-1.46,12.24-2.91,18.35-4.34.71-.17,1.48-.26,2.23-.26,3.13,0,5.96,1.44,7.79,3.94.61.83,1.57,1.33,2.61,1.34,0,0,.02,0,.03,0,1.02,0,1.98-.48,2.6-1.3,1.4-1.85,3.43-3.16,5.72-3.68,6.04-1.35,12.06-2.68,17.87-3.92.68-.15,1.37-.22,2.06-.22,2.13,0,4.23.72,5.92,2.02.58.45,1.28.68,1.99.68.56,0,1.13-.15,1.63-.44.93-.54,1.93-.92,2.98-1.13,6.63-1.32,13.21-2.58,19.57-3.76.58-.11,1.19-.16,1.78-.16,3.77,0,7.11,2.1,8.73,5.48.54,1.13,1.69,1.85,2.94,1.85.04,0,.08,0,.13,0,1.3-.05,2.44-.87,2.91-2.08l.14-.37c1.46-3.77,5.14-6.31,9.17-6.31.18,0,.41,0,.59.02,6.61.44,13.25.94,19.72,1.49,2.1.18,4.05,1.02,5.63,2.42.61.55,1.39.82,2.16.82.66,0,1.32-.2,1.88-.6,1.35-.96,2.92-1.55,4.55-1.73,17.18-1.92,34-3.32,50-4.17.16,0,.36-.01.52-.01,2.6,0,5.15,1.07,6.98,2.93.61.62,1.45.97,2.32.97.07,0,.14,0,.22,0,5.9-.39,11.8-.72,17.56-.96.12,0,.29,0,.42,0,3.58,0,6.89,1.96,8.63,5.12l.54.98c.49.88,1.35,1.48,2.35,1.64.17.03.33.04.5.04.82,0,1.62-.31,2.23-.89,1.74-1.64,4.05-2.57,6.5-2.6,2.44-.03,4.84-.04,7.24-.04,3.61,0,7.25.03,10.81.09,1.23.02,2.44.28,3.59.76.4.16.82.25,1.25.25.16,0,.32-.01.48-.04.47-.07.95-.11,1.43-.11s1,.04,1.5.12c17.65,2.69,35.13,6.14,51.98,10.27,4.86,1.21,8.15,5.84,7.65,10.77l-1,9.88c-.49,4.88-4.56,8.56-9.46,8.56-.52,0-1.05-.04-1.57-.13-.94-.15-1.89-.31-2.84-.46-.17-.03-.34-.04-.51-.04-.78,0-1.54.28-2.13.8-.73.63-1.14,1.55-1.12,2.51l.77,50.48c.04,2.6-.93,5.04-2.74,6.87-1.8,1.83-4.22,2.83-6.8,2.83-1.06,0-2.1-.17-3.12-.51-5.71-1.91-11.57-3.78-17.42-5.55-4.44-1.35-7.36-5.51-7.1-10.11l2.76-48.71c.1-1.76-1.22-3.28-2.99-3.43l-1.01-.08c-.09,0-.17-.01-.26-.01-.78,0-1.54.28-2.14.8-.66.57-1.06,1.39-1.11,2.26l-2.9,48.74c-.31,5.08-4.52,9.05-9.6,9.05-.45,0-.91-.03-1.36-.1-4.32-.58-8.76-1.12-13.24-1.62-3.38-.37-6.28-2.41-7.78-5.44-.5-1.01-1.49-1.7-2.62-1.8-.1,0-.2-.01-.3-.01-1.02,0-1.99.48-2.6,1.3-1.83,2.45-4.73,3.91-7.74,3.91-.26,0-.59-.01-.85-.04-4.41-.35-8.86-.66-13.25-.92-2.38-.14-4.63-1.14-6.32-2.8-.63-.62-1.46-.93-2.28-.93-.72,0-1.45.24-2.05.73-1.73,1.41-3.9,2.18-6.11,2.18-.12,0-.27,0-.39,0-9.88-.37-20.15-.55-30.52-.55-3.84,0-7.78.03-11.7.08h-.12c-2.59,0-5.02-.98-6.84-2.77-.62-.61-1.45-.93-2.28-.93-.56,0-1.12.14-1.62.43-.96.55-1.99.93-3.07,1.13-4.46.83-8.95,1.7-13.37,2.59-.65.13-1.28.19-1.92.19-5.02,0-9.18-3.77-9.68-8.76l-1.31-13.44c-.11-1.1-.77-2.07-1.75-2.58-.47-.24-.98-.36-1.49-.36-.56,0-1.12.14-1.62.43-1.49.85-3.18,1.31-4.88,1.31-1.68,0-3.33-.43-4.77-1.23-.49-.28-1.04-.42-1.59-.42-.52,0-1.03.12-1.5.37-.97.51-1.63,1.47-1.74,2.56l-1.36,13.53c-.42,4.19-3.46,7.66-7.57,8.62-4.48,1.04-8.94,2.11-13.4,3.19-.74.18-1.53.28-2.31.28-1.89,0-3.73-.55-5.33-1.6-.55-.36-1.17-.53-1.79-.53-.83,0-1.65.32-2.28.93-1.63,1.6-3.76,2.6-6,2.8-4.45.42-8.92.85-13.4,1.3-.31.03-.66.05-.98.05-2.59,0-5.02-1.01-6.85-2.84-.31-.31-.59-.64-.85-.98-.62-.82-1.58-1.29-2.59-1.29-.11,0-.21,0-.32.02-1.13.11-2.11.8-2.61,1.82-1.49,3.08-4.41,5.15-7.79,5.54-4.52.5-9.01,1-13.49,1.52-.36.04-.75.06-1.12.06-1.73,0-3.42-.46-4.9-1.33-.51-.3-1.08-.45-1.65-.45-.81,0-1.61.3-2.23.89-1.55,1.47-3.48,2.38-5.56,2.63-4.51.54-8.98,1.07-13.45,1.62-.39.05-.78.07-1.18.07-1.54,0-3.01-.34-4.36-1.02-.46-.23-.96-.34-1.46-.34-.26,0-.52.03-.78.09-5.32,1.31-10.65,2.62-15.98,3.93-.79.19-1.56.28-2.34.28-4.36,0-8.19-2.93-9.31-7.14l-1.4-5.29c-.38-1.45-1.7-2.42-3.14-2.42-.22,0-.44.02-.66.07l-1.97.41c-1.23.25-2.21,1.19-2.51,2.41l-2.01,8.17c-1.09,4.45-5.05,7.57-9.61,7.57-5.67,0-11.33-.02-16.99-.04h-.01c-.76,0-1.49.26-2.08.75-1.79,1.48-4.03,2.29-6.31,2.29-5.96-.04-11.86-.1-17.76-.17-2.64-.05-5.18-1.17-6.95-3.07-1.09-1.17-1.88-2.62-2.28-4.2-.28-1.11-1.13-1.99-2.23-2.32-.31-.09-.62-.13-.93-.13-.8,0-1.59.3-2.2.86-.13.12-.27.24-.41.36-4.83,4-9.66,7.98-14.49,11.94-1.76,1.45-3.98,2.24-6.25,2.24-2.71,0-5.32-1.15-7.14-3.14l-1.38-1.51c-.62-.68-1.5-1.06-2.4-1.06-.19,0-.38.02-.57.05-1.1.2-2.02.94-2.44,1.97-1.42,3.47-4.62,5.8-8.37,6.09-4.46.37-8.97.72-13.47,1.04-.22.02-.5.03-.71.03-1.9,0-3.73-.53-5.29-1.54-.54-.35-1.15-.52-1.77-.52-.75,0-1.5.26-2.1.77-1.63,1.38-3.6,2.18-5.71,2.31-14.84.91-29.32,1.52-43.03,1.83h-.22c-5.3,0-9.58-4.15-9.74-9.45l-1.57-53.63c-.03-.89-.42-1.74-1.08-2.33-.6-.54-1.37-.83-2.17-.83-.09,0-.18,0-.27.01,0,0-.1,0-.11,0-1.7.15-3.05,1.59-3.02,3.3l.81,53.08c.04,2.6-.98,5.15-2.81,7-1.82,1.85-4.36,2.91-6.95,2.91ZM735.54,250.05c-1.11,0-2.17.57-2.77,1.55-2.2,3.57-5.1,6.96-8.63,10.06l-.4.35c-.74.64-1.16,1.57-1.13,2.55.02.98.49,1.89,1.26,2.49,2.47,1.92,4.96,3.85,7.46,5.78.32.25.63.52.92.8.62.62,1.45.95,2.3.95.39,0,.79-.07,1.16-.22,1.2-.46,2.01-1.58,2.09-2.86l1-18.02c.08-1.49-.86-2.84-2.28-3.29-.32-.1-.65-.15-.97-.15ZM595.3,179.82c-10.27,0-20.48-.18-30.33-.53-4.2-.14-7.83-2.94-9.04-6.98-.3-.99-1.04-1.77-2.01-2.12-.36-.13-.73-.19-1.11-.19-.63,0-1.26.18-1.8.54-2.7,1.79-5.39,3.56-8.05,5.3-1.58,1.03-3.41,1.57-5.3,1.57-3.01,0-5.81-1.35-7.7-3.71l-2-2.53c-.62-.78-1.56-1.24-2.55-1.24-.05,0-.09,0-.14,0-1.04.05-2,.59-2.58,1.46-1.78,2.7-4.79,4.32-8.07,4.32-.35,0-.71-.02-1.05-.06-4.55-.49-9.12-1.03-13.61-1.6-4.79-.63-8.52-4.74-8.66-9.56l-.64-22.18c-.03-1.19-.72-2.27-1.78-2.81-.47-.24-.97-.35-1.48-.35-.65,0-1.29.19-1.84.57-4.33,2.97-9.46,5.04-15.26,6.16-2,.39-4.12.64-6.28.73-1.7.08-3.06,1.45-3.11,3.16l-.19,6.54c-.15,5.2-4.33,9.28-9.53,9.28-.71,0-1.42-.08-2.12-.23-4.51-.97-9.09-2.01-13.63-3.11-4.43-1.06-7.6-4.97-7.73-9.52l-2.15-75.18c-.07-2.62.88-5.09,2.68-6.94,1.77-1.82,4.26-2.87,6.83-2.87.37,0,.75.02,1.12.07,6.09.75,12.31,1.4,18.46,1.93.15.01.3.03.44.05,2.17.3,4.14.63,6.01,1,7.37,1.47,13.48,3.64,18.7,6.64,2.78,1.61,5.33,3.4,7.56,5.33.61.53,1.37.79,2.12.79.87,0,1.73-.34,2.37-1.02,1.79-1.84,4.31-2.9,6.9-2.9,1.69.01,3.29.02,4.9.02,4.4,0,8.88-.05,13.33-.14.04,0,.08,0,.11,0,.16,0,.32-.01.49-.01.25,0,.49.01.74.03.05,0,.1,0,.15,0,2.1.08,4.13.21,6.01.39,7.06.66,12.95,2,18,4.1,3.6,1.49,6.82,3.28,9.55,5.31.58.43,1.26.64,1.94.64.83,0,1.65-.31,2.28-.93,1.66-1.62,3.88-2.6,6.24-2.74,15.68-.9,32.19-2.34,49.05-4.28.39-.04.75-.06,1.11-.06,2.38,0,4.68.87,6.47,2.45.6.53,1.37.82,2.16.82.16,0,.31-.01.47-.03,6.03-.88,12.22-1.83,18.4-2.84.5-.08,1.04-.13,1.57-.13,3.79,0,7.14,2.12,8.76,5.52.54,1.14,1.69,1.86,2.94,1.86.05,0,.09,0,.14,0,1.3-.06,2.45-.88,2.91-2.11l.1-.27c1.46-3.81,5.15-6.36,9.2-6.36.16,0,.35,0,.51.01,6.29.31,12.8.59,19.37.82,1.75.05,3.45.59,4.92,1.56.54.36,1.17.53,1.78.53.8,0,1.59-.29,2.21-.86,1.28-1.18,2.85-2,4.55-2.38,5.72-1.22,11.49-2.49,17.72-3.88.68-.16,1.42-.24,2.14-.24,2.14,0,4.26.73,5.96,2.06.58.45,1.29.69,2,.69.27,0,.55-.03.82-.1.2-.05.4-.1.6-.14,14.43-2.9,30.11-6.2,49.35-10.36.67-.15,1.38-.22,2.07-.22,1.96,0,3.94.62,5.55,1.76.55.39,1.21.59,1.87.59.26,0,.52-.03.78-.09,5.51-1.36,11.01-2.72,16.51-4.08.04,0,.07-.02.11-.03.38-.11.77-.19,1.17-.25.05,0,.1-.02.15-.02,2.05-.39,4.09-.71,6.07-.95,3.03-.37,5.92-.56,8.59-.56,3.55,0,6.86.33,9.85.99,7.63,1.69,13.51,4.99,17.47,9.83,3.95,4.82,6.04,10.6,6.04,16.72,0,4.62-1.24,9.39-3.69,14.16-2.29,4.47-5.63,8.7-9.91,12.57l-.5.45c-.74.65-1.14,1.59-1.11,2.57.04.98.51,1.89,1.29,2.48l7.33,5.53c2.35,1.79,3.75,4.51,3.82,7.46.08,3.01-1.21,5.86-3.53,7.82-4.8,4.07-9.62,8.15-14.44,12.23-1.79,1.52-4.06,2.35-6.39,2.35-2.67,0-5.24-1.11-7.05-3.06l-1.3-1.38c-.62-.66-1.48-1.02-2.37-1.02-.22,0-.43.02-.65.07-1.11.23-2.01,1.01-2.41,2.07-1.28,3.47-4.44,6.02-8.06,6.48-.13.02-9.05,1.11-13.49,1.66-.38.05-.79.07-1.19.07-1.72,0-3.39-.44-4.85-1.29-.51-.29-1.07-.44-1.63-.44-.81,0-1.62.3-2.24.89-1.56,1.47-3.5,2.38-5.62,2.64-16.25,1.94-29.85,3.48-42.79,4.86-.35.04-.69.05-1.03.05-1.78,0-3.52-.48-5.01-1.38-.52-.31-1.1-.47-1.68-.47-.79,0-1.58.29-2.2.85-1.59,1.46-3.57,2.33-5.71,2.54-4.48.44-8.97.87-13.47,1.28-.29.03-.59.04-.89.04-2.29,0-4.51-.8-6.24-2.25-.6-.51-1.35-.76-2.09-.76-.6,0-1.21.17-1.75.51-.91.58-1.91,1.01-2.97,1.26-4.53,1.09-9.06,2.16-13.58,3.21-.7.17-1.46.25-2.21.25-5.01,0-9.15-3.76-9.64-8.74l-1.29-13.17c-.11-1.1-.77-2.07-1.75-2.58-.47-.24-.98-.36-1.49-.36-.56,0-1.12.15-1.63.44-1.49.86-3.19,1.32-4.9,1.32s-3.35-.43-4.79-1.24c-.5-.28-1.05-.42-1.6-.42-.51,0-1.03.12-1.5.37-.98.51-1.63,1.47-1.74,2.56l-1.33,13.18c-.43,4.27-3.67,7.83-7.88,8.65-4.53.89-9.1,1.76-13.56,2.59-.58.11-1.18.16-1.77.16-1.36,0-2.75-.3-4-.87-.43-.19-.88-.29-1.34-.29-.54,0-1.07.13-1.55.39-1.37.74-2.86,1.14-4.44,1.18h-.1c-4.28.06-8.58.09-12.77.09Z"/>
        <path class="cls-1" d="M450.98,156.88c-4.49-.97-8.99-1.99-13.48-3.07-.59-.14-1.07-.72-1.08-1.32-.72-25.06-1.43-50.12-2.15-75.19-.02-.57.4-.94.95-.87,6.24.76,12.47,1.42,18.71,1.96,1.92.27,3.76.57,5.51.92,6.3,1.26,11.65,3.12,16.07,5.66,5.67,3.28,9.85,7.21,12.55,11.88,2.7,4.67,4.04,9.5,4.04,14.51,0,3.96-.9,7.74-2.7,11.34-1.8,3.6-4.45,6.71-7.93,9.3-3.48,2.59-7.74,4.39-12.78,5.36-4.45.87-9.47.83-15.04-.15-.57-.1-1.04.26-1.05.82-.17,6.01-.35,12.02-.52,18.03-.02.58-.5.95-1.08.82ZM453.01,121.57c-.02.64.52,1.29,1.16,1.36,3.45.43,6.44.14,8.99-.85,3.18-1.2,5.61-3.06,7.27-5.52,1.66-2.46,2.49-5.14,2.49-8.01,0-2.59-.74-5.08-2.23-7.48-1.49-2.4-3.49-4.27-6.01-5.63-2.52-1.35-5.15-2.31-7.88-2.87-.63-.13-1.27-.25-1.94-.35-.56-.09-1.02.28-1.03.84-.28,9.5-.55,19-.83,28.5ZM516.21,145c-.21,7.03-.41,14.06-.62,21.08-.02.58-.5,1-1.08.94-4.48-.48-8.96-1.01-13.43-1.58-.59-.08-1.07-.6-1.08-1.19-.72-24.98-1.43-49.96-2.15-74.95-.02-.56.4-.99.95-.98,6.15.05,12.3,0,18.45-.12.14.01.26,0,.37-.02.07,0,.14.01.21.02,2.06.07,4.02.19,5.88.37,6.05.57,11.22,1.71,15.49,3.48,5.7,2.36,9.91,5.4,12.63,9.19,2.71,3.79,4.07,7.75,4.07,11.92,0,3.25-.91,6.5-2.73,9.73-1.82,3.23-4.49,6.12-8.01,8.65-3.52,2.53-7.8,4.45-12.84,5.72-.21.05-.42.11-.63.16,7.03,6.73,14.05,13.36,21.08,19.89.52.48.49,1.31-.08,1.69-4.82,3.24-9.64,6.43-14.46,9.57-.46.3-1.1.17-1.47-.29-6.21-7.83-12.42-15.74-18.63-23.74-.64-.82-1.89-.52-1.91.47ZM517.42,102.88c-.21,6.65-.41,13.3-.62,19.94-.02.63.51,1.21,1.15,1.24,3.54.14,6.56-.22,9.06-1.08,3.18-1.09,5.57-2.61,7.14-4.55,1.57-1.94,2.36-3.95,2.36-6.01,0-1.89-.73-3.65-2.2-5.29-1.47-1.63-3.4-2.82-5.77-3.57-2.38-.75-4.67-1.23-6.88-1.44-1.01-.1-2.08-.16-3.22-.19-.55-.02-.99.4-1.01.95ZM582.27,128.78c8.04-1.19,16.08-2.49,24.12-3.9.69-.12,1.31.44,1.26,1.14-.36,4.82-.72,9.64-1.08,14.45-.04.56-.5,1-1.06,1.02-7.95.22-15.9.33-23.85.34-.58,0-1.05.46-1.07,1.04-.14,4.7-.27,9.39-.41,14.09-.02.67.58,1.22,1.25,1.12,9.15-1.24,18.3-2.64,27.45-4.16.69-.12,1.3.43,1.25,1.13-.36,4.99-.72,9.99-1.09,14.98-.04.57-.51,1.01-1.08,1.02-14.22.2-28.45.07-42.67-.44-.59-.02-1.07-.5-1.08-1.09-.71-24.48-1.43-48.97-2.14-73.46-.02-.57.41-1.04.98-1.07,16.51-.95,33.02-2.42,49.53-4.32.67-.07,1.24.46,1.19,1.14-.36,4.8-.72,9.6-1.09,14.4-.04.58-.53,1.03-1.11,1.02-9.62-.11-19.24-.36-28.85-.78-.6-.02-1.1.44-1.12,1.04-.19,6.72-.38,13.45-.56,20.17-.02.68.59,1.22,1.26,1.12ZM673.37,166.97c-1.59-16.17-3.17-32.34-4.76-48.51-.11-1.09-1.59-1.25-2.06-.22-3.94,8.64-7.89,17.26-11.83,25.86-.39.85-1.57.92-1.96.11-3.96-8.18-7.93-16.38-11.89-24.59-.47-.97-1.95-.65-2.06.45-1.57,15.66-3.15,31.32-4.72,46.98-.05.49-.42.9-.91,1-4.49.88-8.98,1.74-13.46,2.57-.67.12-1.28-.4-1.25-1.08.9-24.84,1.8-49.68,2.7-74.53.02-.53.43-.99.96-1.07,6.49-.94,12.97-1.94,19.46-2.99.49-.08.95.18,1.14.63,3.34,8.32,6.68,16.62,10.02,24.91.36.9,1.66.82,2.02-.12,3.32-8.67,6.65-17.35,9.97-26.04.18-.47.65-.78,1.14-.76,6.5.32,13.01.59,19.51.83.53.02.94.43.96.96.9,24.04,1.81,48.08,2.71,72.12.02.55-.37,1.06-.91,1.19-4.5,1.08-9,2.15-13.5,3.19-.62.15-1.19-.26-1.25-.88ZM716.74,164.38c-4.48.44-8.95.87-13.43,1.28-.59.06-1.07-.37-1.08-.96-.72-24.82-1.43-49.65-2.15-74.47-.02-.56.4-1.07.95-1.19,5.91-1.26,11.81-2.56,17.72-3.88.66-.15,1.24.32,1.22.99-.71,25.69-1.43,51.38-2.14,77.07-.02.59-.5,1.11-1.08,1.16ZM749.28,118.66c8.04-2.21,16.08-4.46,24.12-6.72.69-.2,1.31.29,1.26,1-.36,4.86-.72,9.71-1.08,14.57-.04.56-.5,1.05-1.06,1.13-7.95,1.07-15.9,2.13-23.85,3.15-.58.07-1.05.59-1.07,1.17-.14,4.71-.27,9.43-.41,14.14-.02.68.58,1.14,1.25.96,9.15-2.42,18.3-4.87,27.45-7.36.69-.19,1.3.3,1.25,1-.36,5.03-.72,10.06-1.09,15.09-.04.57-.51,1.07-1.08,1.14-14.22,1.7-28.45,3.33-42.67,4.84-.59.06-1.07-.35-1.08-.94-.71-24.38-1.43-48.77-2.14-73.15-.02-.57.41-1.1.98-1.21,16.51-3.32,33.02-6.82,49.53-10.4.67-.15,1.24.34,1.19,1.02-.36,4.84-.72,9.67-1.09,14.51-.04.58-.53,1.08-1.11,1.14-9.62.88-19.24,1.73-28.85,2.54-.6.05-1.1.58-1.12,1.18-.19,6.75-.38,13.49-.56,20.24-.02.68.59,1.14,1.26.96ZM805.6,132.01c-.21,7.08-.41,14.15-.62,21.23-.02.59-.5,1.11-1.08,1.19-4.48.55-8.96,1.1-13.43,1.65-.59.07-1.07-.34-1.08-.92-.72-24.8-1.43-49.6-2.15-74.4-.02-.56.4-1.09.95-1.22,6.15-1.51,12.3-3.03,18.45-4.56.14-.02.26-.05.37-.1.07,0,.14-.02.21-.03,2.06-.4,4.02-.7,5.88-.94,6.05-.75,11.22-.65,15.49.29,5.71,1.26,9.91,3.54,12.63,6.85,2.71,3.31,4.07,7.05,4.07,11.21,0,3.26-.91,6.65-2.73,10.2-1.82,3.55-4.49,6.91-8.01,10.09-3.52,3.18-7.8,5.92-12.84,8.22-.21.1-.42.19-.63.29,7.03,5.29,14.05,10.58,21.08,15.89.52.4.49,1.23-.08,1.7-4.82,4.08-9.64,8.16-14.46,12.25-.46.39-1.1.39-1.47,0-6.21-6.6-12.42-13.2-18.62-19.8-.64-.68-1.89-.1-1.91.9ZM806.81,89.62c-.21,6.69-.41,13.39-.62,20.08-.02.63.51,1.09,1.15.98,3.54-.65,6.56-1.68,9.06-3.06,3.18-1.76,5.57-3.77,7.14-6.03,1.57-2.26,2.36-4.42,2.36-6.49,0-1.89-.74-3.5-2.2-4.85-1.47-1.34-3.4-2.14-5.77-2.38-2.38-.25-4.67-.23-6.88.04-1.01.13-2.08.3-3.22.53-.55.11-.99.62-1.01,1.18ZM454.26,242.6c6.48,1,12.95,1.88,19.43,2.65.65.08,1.19.72,1.14,1.36-.36,4.74-.72,9.47-1.08,14.21-.05.61-.59.96-1.2.79-6.22-1.78-12.44-3.67-18.66-5.66-.63-.2-1.19.17-1.2.79-.12,4.28-.24,8.56-.36,12.84-.02.63.52,1.26,1.15,1.36,9.22,1.36,18.44,2.49,27.66,3.4.66.06,1.2.7,1.15,1.35-.36,4.95-.73,9.9-1.09,14.85-.04.58-.55.94-1.14.82-14.22-3.11-28.45-6.74-42.67-10.95-.56-.17-1.01-.74-1.03-1.3-.71-24.65-1.43-49.31-2.14-73.96-.02-.6.44-.97,1.03-.86,16.51,3.26,33.02,5.73,49.53,7.51.65.07,1.18.7,1.13,1.34-.36,4.73-.72,9.46-1.08,14.18-.05.6-.59.97-1.2.81-9.56-2.56-19.13-5.35-28.69-8.39-.63-.2-1.18.16-1.2.79-.2,6.91-.41,13.81-.61,20.72-.02.63.51,1.26,1.14,1.36ZM510.46,247.22c-.19,15.75-.38,31.5-.56,47.25,0,.59-.49,1.02-1.09.95-4.49-.52-8.99-1.09-13.48-1.71-.58-.08-1.06-.6-1.08-1.19-1.12-25.04-2.25-50.09-3.37-75.15-.03-.57.39-1,.95-.99,6.1.12,12.2.15,18.29.1.43,0,.85.25,1.07.65,5.6,10.28,11.2,20.48,16.79,30.61.56,1.01,2.02.74,2.02-.37.03-8.53.06-17.06.09-25.59,0-.55.41-.97.95-.99,5.92-.24,11.84-.56,17.76-.95.67-.04,1.26.54,1.22,1.21-1.51,25.53-3.02,51.06-4.54,76.58-.03.57-.51.99-1.08.95-4.49-.29-8.99-.61-13.48-.99-.6-.05-1.09-.58-1.09-1.18.02-4.1.03-8.2.05-12.3,0-.17-.04-.33-.11-.49-5.75-12.15-11.5-24.36-17.25-36.66-.51-1.08-2.04-.9-2.06.24ZM589.34,235.64c.32,21.09.64,42.18.96,63.26.01.66-.56,1.17-1.22,1.09-5.88-.77-11.77-1.6-17.65-2.5-.57-.09-.98-.59-.95-1.17,1.11-19.83,2.23-39.67,3.34-59.5.04-.66-.52-1.21-1.17-1.17-4.85.26-9.7.49-14.55.66-.57.02-1.08-.4-1.16-.97-.71-4.69-1.42-9.38-2.13-14.08-.1-.66.41-1.23,1.07-1.2,17.08.82,34.17,1.07,51.25.85.64,0,1.14.54,1.08,1.18-.33,3.38-.67,6.77-1,10.15-.05.52-.47.94-.99.99-5.29.48-10.59.92-15.88,1.32-.57.04-1.01.52-1,1.09ZM633.15,257.14c8.04-1.62,16.08-3.33,24.12-5.12.69-.15,1.31.37,1.26,1.08-.36,4.83-.72,9.67-1.08,14.5-.04.56-.5,1.02-1.06,1.07-7.95.6-15.9,1.12-23.85,1.55-.58.03-1.05.51-1.07,1.09-.14,4.7-.27,9.41-.41,14.11-.02.68.58,1.19,1.25,1.06,9.15-1.74,18.3-3.59,27.45-5.55.69-.15,1.3.38,1.25,1.07-.36,5.01-.72,10.02-1.09,15.03-.04.57-.51,1.04-1.08,1.07-14.22.87-28.45,1.49-42.67,1.81-.59.02-1.07-.44-1.08-1.03-.71-24.44-1.43-48.89-2.14-73.33-.02-.57.41-1.06.98-1.13,16.51-1.92,33.02-4.26,49.53-6.92.67-.11,1.24.41,1.19,1.08-.36,4.82-.72,9.63-1.09,14.45-.04.58-.53,1.05-1.11,1.08-9.62.34-19.24.57-28.86.67-.6,0-1.1.5-1.12,1.1-.19,6.73-.38,13.47-.56,20.2-.02.68.59,1.19,1.26,1.05ZM689.47,273.69c-.21,7.07-.41,14.13-.62,21.2-.02.59-.5,1.1-1.08,1.14-4.48.37-8.96.72-13.43,1.04-.59.04-1.07-.39-1.08-.98-.72-24.84-1.43-49.67-2.15-74.51-.02-.56.4-1.07.95-1.18,6.15-1.2,12.3-2.45,18.45-3.73.14-.01.26-.04.37-.08.07,0,.14-.01.21-.02,2.06-.32,4.02-.56,5.88-.72,6.05-.53,11.22-.28,15.49.78,5.71,1.41,9.91,3.78,12.63,7.14,2.71,3.36,4.07,7.12,4.07,11.29,0,3.26-.91,6.64-2.73,10.15-1.82,3.51-4.49,6.82-8.01,9.92-3.52,3.1-7.8,5.74-12.84,7.88-.21.09-.42.18-.63.27,7.03,5.51,14.05,10.98,21.08,16.41.52.41.49,1.24-.08,1.7-4.82,3.99-9.64,7.96-14.46,11.92-.46.38-1.1.36-1.47-.04-6.21-6.78-12.42-13.58-18.63-20.42-.64-.71-1.89-.17-1.91.83ZM690.68,231.35c-.21,6.69-.41,13.37-.62,20.06-.02.64.51,1.12,1.15,1.03,3.54-.51,6.56-1.43,9.06-2.73,3.18-1.65,5.57-3.59,7.14-5.8,1.58-2.22,2.36-4.35,2.36-6.42,0-1.89-.73-3.53-2.2-4.91-1.47-1.39-3.4-2.24-5.77-2.56-2.38-.32-4.67-.4-6.88-.2-1.01.09-2.09.22-3.22.4-.55.09-.99.58-1.01,1.14ZM764.49,223.71c.32,21.05.64,42.1.96,63.14.01.66-.56,1.24-1.22,1.24-5.88-.04-11.77-.1-17.65-.17-.57-.01-.98-.46-.95-1.03,1.11-19.99,2.23-39.98,3.34-59.96.04-.66-.52-1.14-1.17-1.01-4.85.94-9.7,1.86-14.55,2.77-.57.1-1.08-.24-1.16-.8-.71-4.58-1.42-9.17-2.13-13.75-.1-.64.41-1.29,1.07-1.36,17.08-1.8,34.17-3.79,51.25-5.85.64-.08,1.14.42,1.08,1.06-.33,3.42-.67,6.84-1,10.26-.05.53-.47.99-.99,1.1-5.29,1.06-10.59,2.11-15.88,3.16-.57.11-1.01.64-1,1.22ZM794.42,269.41c-1.21,4.91-2.41,9.82-3.62,14.72-.13.54-.64.96-1.18.95-5.95,0-11.9-.02-17.86-.04-.68,0-1.11-.63-.9-1.3,8.03-25.85,16.06-51.73,24.08-77.61.14-.46.56-.82,1.03-.88,6.04-.74,12.07-1.49,18.11-2.23.47-.06.89.19,1.03.62,8.03,23.91,16.06,47.82,24.08,71.74.21.62-.22,1.35-.9,1.52-5.94,1.46-11.87,2.92-17.81,4.38-.54.13-1.05-.15-1.18-.66-1.35-5.11-2.7-10.22-4.05-15.33-.13-.5-.61-.78-1.14-.67-6.25,1.29-12.49,2.57-18.74,3.85-.46.09-.85.47-.96.93ZM811.62,251.52c-1.84-7-3.68-14.01-5.52-21.01-.28-1.06-1.83-.87-2.1.26-1.8,7.29-3.59,14.57-5.39,21.86-.17.69.32,1.28,1,1.23,3.64-.28,7.27-.56,10.91-.84.73-.05,1.28-.8,1.1-1.49ZM858.71,276.75c-4.48.53-8.95,1.07-13.43,1.61-.59.07-1.07-.34-1.08-.92-.72-24.8-1.43-49.6-2.15-74.4-.02-.56.4-1.09.95-1.22,5.91-1.45,11.81-2.89,17.72-4.32.66-.16,1.24.3,1.22.96-.71,25.7-1.43,51.41-2.14,77.11-.02.59-.5,1.11-1.08,1.18ZM889.37,224.84c-.19,15.79-.38,31.59-.56,47.38,0,.6-.49,1.12-1.09,1.19-4.49.5-8.99,1-13.48,1.52-.58.07-1.06-.33-1.08-.91-1.12-24.76-2.25-49.52-3.37-74.28-.03-.56.39-1.1.95-1.24,6.1-1.46,12.2-2.9,18.29-4.32.43-.1.85.06,1.07.41,5.6,9.03,11.2,18.09,16.79,27.16.56.9,2.02.36,2.02-.75.03-8.53.06-17.07.09-25.6,0-.55.41-1.05.95-1.17,5.92-1.33,11.84-2.63,17.76-3.9.67-.14,1.26.35,1.22,1.03-1.51,25.75-3.02,51.51-4.54,77.27-.03.58-.51,1.07-1.08,1.12-4.49.42-8.99.86-13.48,1.31-.6.06-1.09-.38-1.09-.98.02-4.1.03-8.21.05-12.31,0-.17-.04-.33-.11-.47-5.75-11.08-11.5-22.13-17.25-33.16-.5-.97-2.04-.45-2.06.69ZM993.42,263.69c-1.59-16.22-3.17-32.43-4.76-48.64-.11-1.09-1.59-1.28-2.06-.26-3.94,8.56-7.89,17.15-11.83,25.75-.39.86-1.57.92-1.96.12-3.96-8.16-7.93-16.3-11.89-24.43-.47-.96-1.95-.6-2.06.5-1.57,15.71-3.15,31.42-4.72,47.13-.05.49-.42.92-.91,1.03-4.49,1.05-8.98,2.11-13.46,3.2-.67.17-1.28-.32-1.25-1.01.9-24.9,1.8-49.79,2.7-74.68.02-.53.43-1.02.96-1.12,6.49-1.29,12.97-2.54,19.46-3.74.49-.09.96.16,1.14.6,3.34,8.25,6.68,16.51,10.02,24.78.36.89,1.66.81,2.02-.12,3.32-8.67,6.65-17.33,9.97-25.97.18-.47.65-.77,1.14-.74,6.5.43,13.01.92,19.51,1.47.53.05.94.47.96,1.01.9,24.09,1.81,48.18,2.71,72.27.02.55-.37,1.04-.91,1.14-4.5.84-9,1.71-13.5,2.61-.62.12-1.19-.3-1.25-.91ZM1040.56,221.66c8.04-1.26,16.08-2.41,24.12-3.44.69-.08,1.31.5,1.26,1.2-.36,4.8-.72,9.6-1.08,14.4-.04.56-.5.97-1.06.97-7.95-.14-15.9-.16-23.85-.08-.58,0-1.05.47-1.07,1.05-.14,4.7-.27,9.4-.41,14.1-.02.68.58,1.21,1.25,1.11,9.15-1.35,18.3-2.55,27.45-3.58.69-.08,1.3.51,1.25,1.2-.36,4.97-.72,9.95-1.09,14.92-.04.57-.51.99-1.08.97-14.22-.53-28.45-.67-42.67-.48-.59,0-1.07-.45-1.08-1.04-.71-24.45-1.43-48.9-2.14-73.34-.02-.57.41-1.07.98-1.13,16.51-1.84,33.02-3.25,49.53-4.13.67-.04,1.24.54,1.19,1.21-.36,4.78-.72,9.55-1.09,14.33-.04.58-.53,1-1.11.96-9.62-.68-19.24-1.18-28.86-1.52-.6-.02-1.1.45-1.12,1.05-.19,6.73-.38,13.45-.56,20.17-.02.68.59,1.22,1.26,1.11ZM1098.7,217.99c-.19,15.76-.38,31.52-.56,47.27,0,.59-.49,1.04-1.09.99-4.49-.35-8.99-.67-13.48-.94-.58-.04-1.06-.52-1.08-1.1-1.12-24.95-2.25-49.91-3.37-74.86-.03-.57.39-1.04.95-1.07,6.1-.41,12.2-.75,18.29-1.01.43-.02.85.22,1.07.62,5.6,10.11,11.2,20.28,16.79,30.53.56,1.01,2.02.79,2.02-.32.03-8.53.06-17.06.09-25.58,0-.55.41-.96.95-.97,5.92-.07,11.84-.05,17.76.05.67.01,1.26.64,1.22,1.31-1.51,25.4-3.02,50.81-4.54,76.22-.03.57-.51.96-1.08.88-4.49-.6-8.99-1.15-13.48-1.65-.6-.07-1.09-.61-1.09-1.21.02-4.1.03-8.2.05-12.3,0-.16-.04-.34-.11-.5-5.75-12.29-11.5-24.51-17.25-36.66-.51-1.06-2.04-.85-2.06.3ZM1177.57,213.21c.32,21.15.64,42.31.96,63.46.01.66-.56,1.05-1.22.83-5.88-1.97-11.77-3.84-17.65-5.63-.57-.17-.98-.74-.95-1.31,1.11-19.67,2.23-39.33,3.34-58.99.04-.65-.52-1.29-1.17-1.36-4.85-.48-9.7-.91-14.55-1.27-.57-.04-1.08-.52-1.16-1.1-.71-4.77-1.42-9.53-2.13-14.3-.1-.67.41-1.19,1.07-1.09,17.08,2.6,34.17,5.94,51.25,10.13.64.16,1.14.83,1.08,1.46-.33,3.3-.67,6.59-1,9.89-.05.51-.47.82-.99.73-5.29-.87-10.59-1.65-15.88-2.36-.57-.08-1.01.31-1,.89Z"/>
      </g>
    </g>
  </g>
</svg>