<?xml version="1.0" encoding="UTF-8"?>
<svg id="Layer_2" data-name="Layer 2" xmlns="http://www.w3.org/2000/svg" viewBox="0 0 332.68 315.39">
  <defs>
    <style>
      .cls-1 {
        fill: #fff;
      }
    </style>
  </defs>
  <g id="Layer_2-2" data-name="Layer 2">
    <path class="cls-1" d="M331.44,157.82c.76,3.46,2.4,11.85-.09,14.39-.52.53-1.23.85-2.23,1.07-2.6.56-5.23-.96-7.14-2.8-6.67-6.43-8.59-19.64-4.17-26.64,1.09-1.73,2.52-2.92,4.2-3.29.13-.03.33-.08.57-.08.82,0,2.22.48,4.05,3.51,1.85,3.06,3.51,7.84,4.81,13.83ZM214.9,223.3c-.44.66-.89,1.32-1.34,1.94,1.08,1.1,2.13,2.25,3.13,3.34,16.78,17.67,59.49,35.44,59.95,63.32,2.62-2.64,4.61-5.88,5.99-9.74,6.53-25.96-29.45-45.17-60.82-56.72-2.22-.79-4.54-1.5-6.92-2.14ZM307.67,146.33c-9.46-10.12-27.5-9.33-43.78-7.89-7.56.8-19.81.27-33.31,7.9-12.28,6.83-20.03,18.03-15.54,31.46,0,0,0,0,0,0,.23.73.5,1.45.81,2.19,0,0,0,.03,0,.04.49,1.05,1.2,3.19,3.67,6.29,7.4,8.77,20.46,10.33,31.87,11.83,16.99.97,36.84,4.57,51.57-3.86,7.13-4.39,10.07-11.99,11-19.99-6.06-7.52-8.49-18.8-6.29-27.97ZM231.86,62.76c-5.64-4.32-12.67-5.73-21.44-4.3,6.82,13.04,7.27,34.77,9.74,49.49,2.06,12.83,5.29,21.71,7.99,29.99,6.72-3.46,14.42-5.94,21.91-6.95.18-5.13.03-10.35-.11-15.37-1.41-17.86-4.82-42.72-18.08-52.86ZM204.16,68.35c-4.54-13.76-13.77-17.63-27.87-15.52-28.18,6.41-27.98,42.03-25.06,65.4,1.31,14.17,7.47,30.55,17.94,41.14,9.86,10.04,22.07,13.43,35.69,9.55.28-8.14,5.04-18.53,15.72-26.38-2.58-8.02-7.01-20-9.22-33.12-2.49-13.7-2.9-28.15-7.19-41.08ZM205.69,177.73c-13.59,3.56-26.85.63-37.62-7.39-7.16,5.18-10.31,8.09-14.71,13.15-10.7,12.37-20.01,30.4-14.95,45.95,12.05-22.22,46.96-24.59,68.61-9.68.51-.74,1.03-1.5,1.53-2.3h0c3.94-6.26,6.92-13.64,8.11-20.9-5.76-4.86-9.33-11.31-10.97-18.82ZM202.7,227.25c-24.54-17.53-65.02-6.84-58.59,23.92,3.47,16.48,19.95,30.82,32.62,40.08,18.63,13.7,60.62,34.76,80.9,17.84,4.28-3.54,7.08-8.47,8.79-13.71,4.09-23.08-38.58-41.99-56.12-60.89-2.18-2.51-4.88-5.33-7.59-7.24ZM80.89,230.51c-7.33,11.46-13.59,25.32-21.85,36.38,18.45,2.52,24.66-13.46,36.95-31.17-4.35-3.02-8.49-6.35-12.38-9.75-.98,1.7-1.9,3.23-2.72,4.54ZM69.53,157.26c-1.77,1.16-3.62,2.69-4.57,3.65-1.96,1.78-3.69,4.92-4.21,8.29-2.15,12.16,7.53,30.22,16.52,39.08,15.04,15.04,35.53,33.21,56.81,31.96-3.64-5.85-5.52-12.4-5.59-19.58-.03-3.64.58-7.96.67-7.96,2.21-12.9,9.74-25.65,18.45-35.56-2.68-2.84-5.5-5.67-8.37-8.47-16.99-16.63-50.18-24.42-69.72-11.42ZM71.26,214.33c-10.92-10.75-21.69-31.57-18.85-47-2.18-.73-4.29-1.68-6.34-2.81-7.9,3.14-15.25,8.59-22.35,16.46-16.75,20.45-28.99,59.23-21.43,81.13,2.03,5.87,6.73,10.43,12.57,12.54,12.34,4.48,21.36,2.36,28.76-3.55,8.79-7.04,15.69-19.94,21.33-30.12,8.63-15.57,8-13.4,12.22-20.89-2.07-1.96-4.04-3.89-5.91-5.76ZM49.38,58.64c-1.03.15-2.01-.55-2.15-1.59-2.33-16.99.65-33.89,6.65-50.02,1.28-3.45-1.31-7.02-4.88-7.02-2.11,0-4.1,1.31-4.88,3.4-7.03,18.9-10.1,38.45-6.72,58.27.13.76-.22,1.52-.87,1.94-14.56,9.23-14.53,24.77-13.76,42.44,1.64,15.83,8.89,38.06,23.96,48.83,2.86,2.04,5.87,3.53,8.68,4.44,3.1-5.08,8.97-9.36,14.31-11.96,7.16-3.49,15.31-5.1,23.7-5.14,5.29-13.82,2.56-32.19-1.14-46.57-5.43-19.46-23.06-39.96-42.9-37.02Z"/>
  </g>
</svg>