<?xml version="1.0" encoding="UTF-8"?>
<svg id="Layer_2" data-name="Layer 2" xmlns="http://www.w3.org/2000/svg" viewBox="0 0 334.04 319.29">
  <defs>
    <style>
      .cls-1 {
        fill: #fee466;
      }

      .cls-2 {
        fill: #fdb81d;
      }
    </style>
  </defs>
  <g id="Layer_2-2" data-name="Layer 2">
    <g>
      <path class="cls-1" d="M324.72,158.91c.72,3.3,2.3,11.32-.08,13.75-.5.51-1.18.81-2.13,1.02-2.49.53-4.99-.91-6.82-2.68-6.38-6.14-8.2-18.77-3.99-25.45,1.04-1.66,2.41-2.79,4.02-3.14.13-.03.32-.07.54-.07.79,0,2.12.46,3.87,3.36,1.76,2.92,3.36,7.49,4.59,13.21ZM213.39,221.45c-.42.63-.85,1.26-1.28,1.85,1.03,1.05,2.03,2.15,2.99,3.19,16.03,16.88,56.83,33.85,57.27,60.48,2.51-2.52,4.4-5.62,5.72-9.31,6.24-24.8-28.14-43.15-58.1-54.18-2.13-.75-4.34-1.43-6.61-2.04ZM302.01,147.93c-9.03-9.67-26.27-8.91-41.82-7.53-7.23.77-18.93.25-31.82,7.54-11.73,6.52-19.14,17.22-14.85,30.05,0,0,0,0,0,0,.22.7.48,1.38.78,2.09,0,0,0,.03,0,.04.47,1,1.15,3.05,3.51,6.01,7.07,8.37,19.54,9.87,30.44,11.3,16.23.92,35.19,4.37,49.26-3.69,6.81-4.2,9.62-11.45,10.51-19.1-5.79-7.18-8.11-17.96-6.01-26.72ZM229.58,68.09c-5.39-4.12-12.1-5.47-20.48-4.11,6.51,12.45,6.95,33.22,9.31,47.28,1.97,12.25,5.06,20.74,7.63,28.65,6.42-3.31,13.77-5.67,20.93-6.64.17-4.9.03-9.88-.11-14.69-1.35-17.07-4.6-40.81-17.27-50.5ZM203.12,73.44c-4.34-13.14-13.15-16.84-26.62-14.82-26.92,6.12-26.73,40.15-23.94,62.47,1.25,13.54,7.14,29.18,17.14,39.3,9.42,9.6,21.08,12.83,34.09,9.13.27-7.78,4.81-17.7,15.01-25.2-2.47-7.66-6.69-19.11-8.81-31.63-2.38-13.09-2.77-26.9-6.87-39.24ZM204.59,177.93c-12.98,3.4-25.65.61-35.94-7.06-6.84,4.95-9.85,7.73-14.05,12.56-10.22,11.82-19.12,29.04-14.28,43.9,11.51-21.23,44.86-23.49,65.54-9.25.49-.71.99-1.43,1.47-2.2h0c3.76-5.98,6.61-13.03,7.75-19.97-5.5-4.64-8.92-10.81-10.48-17.98ZM201.73,225.23c-23.44-16.75-62.11-6.54-55.97,22.85,3.32,15.75,19.06,29.44,31.16,38.29,17.8,13.09,57.91,33.21,77.28,17.04,4.09-3.38,6.76-8.09,8.39-13.1,3.91-22.05-36.85-40.11-53.61-58.17-2.08-2.4-4.66-5.09-7.25-6.92ZM85.36,228.35c-7,10.95-12.99,24.19-20.87,34.76,17.63,2.41,23.56-12.86,35.3-29.78-4.15-2.88-8.11-6.07-11.83-9.32-.94,1.63-1.82,3.08-2.6,4.34ZM74.51,158.36c-1.69,1.11-3.45,2.57-4.37,3.49-1.87,1.7-3.53,4.7-4.02,7.92-2.05,11.61,7.19,28.87,15.78,37.33,14.37,14.37,33.94,31.73,54.27,30.53-3.48-5.59-5.27-11.85-5.34-18.7-.03-3.48.55-7.61.64-7.61,2.11-12.33,9.31-24.5,17.63-33.97-2.56-2.71-5.25-5.42-7.99-8.09-16.23-15.89-47.93-23.32-66.6-10.91ZM76.17,212.89c-10.44-10.27-20.72-30.16-18.01-44.9-2.08-.7-4.1-1.6-6.06-2.69-7.55,3-14.57,8.2-21.35,15.73-16,19.53-27.69,56.58-20.48,77.5,1.94,5.61,6.43,9.97,12.01,11.98,11.79,4.28,20.4,2.25,27.47-3.39,8.4-6.73,14.99-19.05,20.38-28.78,8.25-14.88,7.64-12.8,11.68-19.96-1.98-1.87-3.86-3.72-5.64-5.5ZM55.26,64.15c-.99.15-1.92-.53-2.05-1.52-2.23-16.23.62-32.37,6.35-47.78,1.22-3.29-1.25-6.71-4.67-6.71-2.02,0-3.92,1.25-4.66,3.25-6.71,18.06-9.65,36.73-6.42,55.67.12.73-.21,1.45-.83,1.85-13.91,8.82-13.88,23.66-13.15,40.55,1.56,15.12,8.49,36.36,22.89,46.65,2.73,1.95,5.61,3.37,8.29,4.24,2.96-4.86,8.56-8.94,13.67-11.42,6.84-3.34,14.62-4.87,22.64-4.91,5.06-13.2,2.44-30.75-1.09-44.49-5.19-18.59-22.03-38.17-40.98-35.36Z"/>
      <path class="cls-2" d="M332.67,157.18c1.43,6.57,1.73,11.33.93,15-1.09,5.08-4.33,8.36-9.37,9.45-2.5.54-5.09.34-7.61-.58-1.87,8.46-6.1,16.19-13.8,20.98-16.51,10.17-37.52,6.31-55.61,4.88-8.27-1.2-17.15-2.59-24.77-6.28-1.09,4.73-2.79,9.32-4.87,13.54,1.77.52,3.51,1.07,5.18,1.66,47.59,17.53,69.43,39.64,63.2,63.96l-.14.46c-2.99,8.45-8.46,14.72-16.27,18.69-10.6,22.8-35.99,23.72-58.46,15.92-27.72-9.24-71.09-37.6-74.38-69.02h0c-10.63.68-20.74-2.82-30.05-8.15-10.78,15.49-18.82,33.76-38.59,33.76-2.94,0-6.13-.41-9.62-1.31-10.98,10.92-23.86,13.76-39.69,7.75C8.99,275.17,0,263.98.36,250.93c-2.32-21.48,6.65-53.58,24.27-75.28,6.24-6.94,12.82-12.18,19.81-15.76-14.23-12.54-21.14-34.15-22.73-49.72l-.02-.24c-.64-15-1.45-33.59,13.49-45.5-2.32-17.91.14-36.29,7.41-55.87C45.06,1.94,52.52-1.75,59.46.82c6.78,2.52,10.25,10.08,7.73,16.86-5,13.48-7.14,26.06-6.46,38.13,20.83,1.02,37.78,21.54,43.36,41.6,3.7,14.38,6.22,31.99,2,46.16,1.23.46,2.43.97,3.6,1.53,14.03,2.5,27.66,9.12,37.1,18.36,2.8,2.75,5.47,5.43,7.96,8.05.39-.36,1.09-1.02,1.5-1.37,1.97-1.57,4.02-3.21,6.17-4.81-16.15-17.1-20.33-40.52-20.58-63.91-.18-23.26,7.37-47.19,33.02-52.43,12.12-1.76,22.23.61,29.21,7.89.65-.22,1.52-.49,2.33-.69,11.18-2.11,20.65-.28,28.13,5.44,15.11,11.56,18.87,36.23,20.45,56.42.13,2.89.27,9.77.14,14.45,1.44-.12,2.88-.24,4.32-.4,16.91-1.78,35.13-2.1,46.66,7.29,2.07-2.51,4.74-4.25,7.88-4.94,2.91-.63,8.51-.57,13.1,7.03,2.25,3.74,4.13,9.02,5.59,15.7ZM324.63,172.65c2.38-2.42.8-10.45.08-13.75-1.24-5.72-2.83-10.29-4.59-13.21-1.75-2.89-3.08-3.36-3.87-3.36-.23,0-.42.05-.54.07-1.61.35-2.98,1.48-4.02,3.14-4.21,6.68-2.39,19.31,3.99,25.45,1.83,1.76,4.33,3.21,6.82,2.68.96-.21,1.64-.52,2.13-1.02ZM297.5,193.74c6.81-4.2,9.62-11.45,10.51-19.1-5.79-7.18-8.11-17.96-6.01-26.72-9.03-9.67-26.27-8.91-41.82-7.53-7.23.77-18.93.25-31.82,7.54-11.73,6.52-19.14,17.22-14.85,30.05,0,0,0,0,0,0,.22.7.48,1.38.78,2.09,0,0,0,.03,0,.04.47,1,1.15,3.05,3.51,6.01,7.07,8.37,19.54,9.87,30.44,11.3,16.23.92,35.19,4.37,49.26-3.69ZM278.09,277.68c6.24-24.8-28.14-43.15-58.1-54.18-2.13-.75-4.34-1.43-6.61-2.04-.42.63-.85,1.26-1.28,1.85,1.03,1.05,2.03,2.15,2.99,3.19,16.03,16.88,56.83,33.85,57.27,60.48,2.51-2.52,4.4-5.62,5.72-9.31ZM262.59,290.31c3.91-22.05-36.85-40.11-53.61-58.17-2.08-2.4-4.66-5.09-7.25-6.92-23.44-16.75-62.11-6.54-55.97,22.85,3.32,15.75,19.06,29.44,31.16,38.29,17.8,13.09,57.91,33.21,77.28,17.04,4.09-3.38,6.76-8.09,8.39-13.1ZM246.97,133.28c.17-4.9.03-9.88-.11-14.69-1.35-17.07-4.6-40.81-17.27-50.5-5.39-4.12-12.1-5.47-20.48-4.11,6.51,12.45,6.95,33.22,9.31,47.28,1.97,12.25,5.06,20.74,7.63,28.65,6.42-3.31,13.77-5.67,20.93-6.64ZM218.8,144.31c-2.47-7.66-6.69-19.11-8.81-31.63-2.38-13.09-2.77-26.9-6.87-39.24-4.34-13.14-13.15-16.84-26.62-14.82-26.92,6.12-26.73,40.15-23.94,62.47,1.25,13.54,7.14,29.18,17.14,39.3,9.42,9.6,21.08,12.83,34.09,9.13.27-7.78,4.81-17.7,15.01-25.2ZM207.32,215.87c3.76-5.97,6.61-13.02,7.75-19.96-5.5-4.64-8.92-10.81-10.48-17.98-12.98,3.4-25.65.61-35.94-7.06-6.84,4.95-9.85,7.73-14.05,12.56-10.22,11.82-19.12,29.04-14.28,43.9,11.51-21.23,44.86-23.49,65.54-9.25.49-.71.99-1.43,1.47-2.2h0ZM149.1,177.37c-2.56-2.71-5.25-5.42-7.99-8.09-16.23-15.89-47.93-23.32-66.6-10.91-1.69,1.11-3.45,2.57-4.37,3.49-1.87,1.7-3.53,4.7-4.02,7.92-2.05,11.61,7.19,28.87,15.78,37.33,14.37,14.37,33.94,31.73,54.27,30.53-3.48-5.59-5.27-11.85-5.34-18.7-.03-3.48.55-7.61.64-7.61,2.11-12.33,9.31-24.5,17.63-33.97ZM97.33,144c5.06-13.2,2.44-30.75-1.09-44.49-5.19-18.59-22.03-38.17-40.98-35.36-.99.15-1.92-.53-2.05-1.52-2.23-16.23.62-32.37,6.35-47.78,1.22-3.29-1.25-6.71-4.67-6.71-2.02,0-3.92,1.25-4.66,3.25-6.71,18.06-9.65,36.73-6.42,55.67.12.73-.21,1.45-.83,1.85-13.91,8.82-13.88,23.66-13.15,40.55,1.56,15.12,8.49,36.36,22.89,46.65,2.73,1.95,5.61,3.37,8.29,4.24,2.96-4.86,8.56-8.94,13.67-11.42,6.84-3.34,14.62-4.87,22.64-4.91ZM99.79,233.32c-4.15-2.88-8.11-6.07-11.83-9.32-.94,1.63-1.82,3.08-2.6,4.34-7,10.95-12.99,24.19-20.87,34.76,17.63,2.41,23.56-12.86,35.3-29.78ZM70.13,238.35c8.25-14.88,7.64-12.8,11.68-19.96-1.98-1.87-3.86-3.72-5.64-5.5-10.44-10.27-20.72-30.16-18.01-44.9-2.08-.7-4.1-1.6-6.06-2.69-7.55,3-14.57,8.2-21.35,15.73-16,19.53-27.69,56.58-20.48,77.5,1.94,5.61,6.43,9.97,12.01,11.98,11.79,4.28,20.4,2.25,27.47-3.39,8.4-6.73,14.99-19.05,20.38-28.78Z"/>
    </g>
  </g>
</svg>