<svg width="823" height="598" viewBox="0 0 823 598" fill="none" xmlns="http://www.w3.org/2000/svg">
<path d="M819.933 387.808C821.813 396.311 825.87 416.927 819.71 423.169C818.424 424.471 816.667 425.257 814.194 425.798C807.762 427.174 801.255 423.439 796.53 418.918C780.03 403.117 775.28 370.657 786.214 353.456C788.911 349.205 792.449 346.281 796.605 345.371C796.926 345.298 797.421 345.175 798.015 345.175C800.043 345.175 803.507 346.354 808.034 353.8C812.61 361.319 816.717 373.065 819.933 387.784V387.808ZM531.631 548.711C530.542 550.333 529.429 551.954 528.316 553.478C530.987 556.181 533.585 559.007 536.059 561.685C577.57 605.105 683.228 648.771 684.366 717.28C690.848 710.793 695.771 702.831 699.184 693.346C715.339 629.555 626.33 582.351 548.725 553.969C543.233 552.028 537.494 550.283 531.606 548.711H531.631ZM761.13 359.574C737.727 334.707 693.099 336.648 652.825 340.186C634.122 342.152 603.818 340.85 570.421 359.599C540.042 376.382 520.869 403.904 531.977 436.905C532.546 438.699 533.214 440.468 533.981 442.286C533.981 442.286 533.981 442.36 533.981 442.385C535.193 444.965 536.949 450.223 543.06 457.841C561.366 479.391 593.675 483.224 621.901 486.91C663.932 489.294 713.038 498.14 749.478 477.425C767.116 466.638 774.389 447.963 776.69 428.304C761.699 409.826 755.687 382.108 761.13 359.574ZM573.587 154.22C559.635 143.604 542.243 140.14 520.548 143.654C537.419 175.696 538.533 229.093 544.643 265.264C549.739 296.791 557.73 318.612 564.409 338.958C581.033 330.456 600.082 324.362 618.611 321.88C619.056 309.274 618.685 296.447 618.339 284.111C614.851 240.225 606.415 179.137 573.612 154.22H573.587ZM505.062 167.956C493.83 134.144 470.997 124.634 436.115 129.819C366.402 145.57 366.897 233.098 374.121 290.525C377.361 325.345 392.6 365.595 418.502 391.617C442.894 416.288 473.099 424.618 506.793 415.084C507.486 395.082 519.261 369.551 545.682 350.261C539.3 330.554 528.34 301.116 522.873 268.876C516.713 235.212 515.699 199.704 505.086 167.931L505.062 167.956ZM508.847 436.733C475.227 445.481 442.424 438.281 415.78 418.574C398.068 431.302 390.275 438.453 379.39 450.887C352.92 481.283 329.888 525.588 342.406 563.798C372.216 509.198 458.578 503.374 512.137 540.012C513.398 538.194 514.685 536.326 515.922 534.36C525.669 518.978 533.041 500.843 535.985 483.003C521.735 471.061 512.904 455.212 508.847 436.757V436.733ZM501.45 558.417C440.741 515.341 340.6 541.609 356.507 617.195C365.091 657.691 405.86 692.928 437.204 715.683C483.292 749.347 587.169 801.097 637.338 759.52C647.926 750.822 654.853 738.707 659.083 725.831C669.201 669.117 563.642 622.65 520.251 576.208C514.858 570.04 508.179 563.11 501.474 558.417H501.45ZM200.11 566.428C181.977 594.588 166.491 628.646 146.057 655.823C191.699 662.016 207.062 622.749 237.465 579.23C226.704 571.809 216.462 563.626 206.839 555.272C204.415 559.449 202.139 563.209 200.11 566.428ZM172.007 386.432C167.629 389.283 163.052 393.042 160.702 395.401C155.853 399.775 151.573 407.491 150.287 415.772C144.968 445.653 168.915 490.031 191.155 511.803C228.362 548.76 279.051 593.409 331.694 590.337C322.689 575.962 318.039 559.867 317.865 542.224C317.791 533.279 319.3 522.664 319.523 522.664C324.99 490.965 343.618 459.635 365.165 435.283C358.535 428.304 351.559 421.35 344.459 414.47C302.429 373.605 220.322 354.463 171.983 386.408L172.007 386.432ZM176.287 526.669C149.273 500.253 122.629 449.093 129.655 411.177C124.262 409.383 119.042 407.049 113.971 404.272C94.4274 411.988 76.2446 425.38 58.6802 444.719C17.2433 494.97 -13.0366 590.263 5.66566 644.078C10.6876 658.502 22.3147 669.707 36.7619 674.892C67.2892 685.9 89.6033 680.691 107.91 666.169C129.655 648.869 146.725 617.17 160.677 592.155C182.026 553.896 180.468 559.228 190.907 540.823C185.787 536.007 180.913 531.264 176.287 526.669ZM122.159 144.096C119.611 144.465 117.187 142.744 116.84 140.189C111.076 98.4397 118.448 56.9118 133.292 17.2759C136.458 8.79835 130.051 0.0258789 121.219 0.0258789C115.999 0.0258789 111.076 3.24491 109.147 8.38061C91.7556 54.8231 84.1609 102.863 92.5225 151.566C92.8441 153.434 91.9782 155.301 90.3702 156.333C54.351 179.014 54.4252 217.2 56.3301 260.62C60.3872 299.519 78.3226 354.144 115.604 380.609C122.679 385.621 130.125 389.283 137.077 391.519C144.745 379.036 159.267 368.519 172.477 362.13C190.19 353.554 210.352 349.598 231.107 349.5C244.194 315.54 237.441 270.4 228.287 235.064C214.854 187.246 171.24 136.872 122.159 144.096Z" fill="#3DAFD2"/>
</svg>
